<svg xmlns="http://www.w3.org/2000/svg" xmlns:v="https://svgstorm.com"
viewBox = "0 0 500 500"
width="500"
height="500">
<g fill="None" fill-opacity="0.0" stroke="#000000" stroke-opacity="0.00" stroke-width="0.3"><path d="
M 0.00 500.00 
L 500.00 500.00
L 500.00 0.00
L 0.00 0.00
L 0.00 500.00
M 125.00 91.00 
C 132.84 91.16 133.72 92.59 135.00 100.00
C 138.32 119.23 142.45 138.29 144.00 158.00
C 129.80 160.21 114.18 169.44 112.00 185.00
C 111.03 189.76 111.45 194.11 112.00 199.00
C 112.86 206.72 112.18 221.32 116.00 228.00
C 120.63 227.58 125.37 228.42 130.00 228.00
C 130.00 227.50 130.00 227.00 130.00 227.00
C 130.00 220.33 130.00 213.67 130.00 207.00
C 130.00 197.60 126.05 177.86 135.00 174.00
C 148.13 168.33 164.84 158.75 179.00 157.00
C 185.64 156.18 193.27 156.39 200.00 157.00 C 206.73 157.61 214.69 155.01 221.00 156.00
C 233.34 147.94 239.45 136.90 256.00 136.00
C 263.12 134.84 271.94 134.74 279.00 136.00
C 286.10 136.48 293.20 139.94 299.00 144.00
C 300.97 145.38 302.37 146.57 304.00 148.00
C 306.46 150.16 309.27 152.20 311.00 155.00
C 311.20 155.32 311.69 155.80 312.00 156.00
C 313.73 157.14 315.07 156.64 317.00 157.00
C 320.59 156.99 324.03 156.78 328.00 157.00
C 339.05 156.53 353.02 154.59 364.00 157.00
C 365.00 157.00 366.00 157.00 367.00 157.00
C 369.91 156.36 374.12 154.88 377.00 157.00
C 377.35 157.03 377.78 157.70 378.00 158.00
C 380.73 161.71 378.56 168.05 379.00 173.00 C 379.44 177.95 379.00 184.87 379.00 190.00
C 379.00 200.17 379.66 212.00 379.00 222.00 C 378.34 232.00 380.75 244.61 379.00 254.00 C 377.25 263.39 383.33 278.77 378.00 286.00
C 377.97 286.35 377.15 287.10 377.00 287.00
C 384.08 293.84 387.85 305.79 386.00 317.00
C 388.16 316.60 390.79 317.00 393.00 317.00
C 408.70 317.00 423.62 315.61 439.00 317.00
C 442.99 320.83 439.33 332.96 440.00 339.00 C 440.67 345.04 440.53 356.68 440.00 363.00 C 439.47 369.32 442.55 381.18 439.00 386.00
C 438.78 386.30 438.35 386.88 438.00 387.00
C 425.81 391.00 409.93 396.66 397.00 397.00
C 390.86 398.10 381.66 398.22 375.00 398.00 C 368.34 397.78 367.98 397.97 363.00 398.00 C 358.02 398.03 355.69 397.64 352.00 398.00 C 348.31 398.36 342.58 397.16 340.00 398.00 C 337.42 398.84 329.22 396.93 330.00 396.00
C 328.03 391.70 329.91 382.99 330.00 378.00 C 330.09 373.02 328.47 364.54 329.00 360.00
C 328.00 360.00 327.00 360.00 326.00 360.00
C 322.04 360.87 314.82 359.82 311.00 362.00
C 311.22 365.24 309.61 368.39 309.00 371.00
C 306.60 389.46 293.93 403.33 276.00 390.00
C 273.00 387.77 270.19 384.95 268.00 382.00
C 264.50 377.29 258.68 368.02 259.00 362.00
C 257.37 362.00 255.62 362.17 254.00 362.00
C 253.57 367.75 248.38 374.46 245.00 379.00
C 242.52 382.33 239.28 385.56 236.00 388.00
C 231.56 391.30 226.54 393.62 221.00 394.00
C 218.03 394.53 215.97 394.74 213.00 394.00
C 201.31 391.11 192.12 374.01 194.00 362.00
C 190.50 360.00 185.00 361.00 181.00 361.00
C 174.67 361.00 168.33 361.00 162.00 361.00
C 153.36 361.00 140.52 363.07 133.00 360.00
C 132.25 359.91 131.11 360.16 131.00 359.00
C 128.81 356.89 130.00 350.10 130.00 347.00
C 130.00 342.00 130.00 337.00 130.00 332.00
C 130.00 331.50 130.00 330.50 130.00 330.00
C 128.14 325.63 129.00 319.13 129.00 314.00
C 129.00 313.35 129.30 311.56 129.00 311.00
C 128.18 311.37 124.88 311.25 124.00 311.00
C 125.17 315.93 124.88 325.20 125.00 331.00
C 125.40 334.33 126.72 338.96 126.00 343.00
C 125.17 347.63 122.06 348.90 118.00 350.00
C 115.93 350.56 113.06 352.14 111.00 350.00
C 102.25 350.30 102.00 327.07 102.00 321.00
C 99.68 323.37 92.55 322.18 90.00 321.00
C 87.11 319.66 84.29 316.05 84.00 313.00
C 83.95 312.50 84.00 312.00 84.00 312.00
C 81.99 309.28 83.35 305.63 84.00 303.00
C 84.55 300.76 84.74 299.06 86.00 297.00
C 87.76 294.12 90.18 292.48 93.00 291.00
C 93.96 290.50 96.87 288.39 98.00 289.00
C 95.87 277.74 92.18 264.75 93.00 253.00
C 93.03 252.50 93.07 251.49 93.00 251.00
C 91.41 246.86 74.99 251.36 71.00 252.00
C 68.56 252.39 63.10 254.68 62.00 251.00
C 61.86 250.54 62.00 250.00 62.00 250.00
C 61.08 247.41 61.05 244.87 61.00 242.00
C 60.96 239.67 61.03 237.33 61.00 235.00
C 64.85 234.20 68.85 233.69 73.00 234.00
C 74.72 233.79 76.19 233.24 78.00 233.00
C 80.02 232.73 83.22 232.00 85.00 232.00
C 81.73 228.20 84.70 217.94 83.00 213.00 C 81.30 208.06 81.67 199.81 80.22 194.78 C 78.77 189.74 78.15 183.78 73.75 180.25 C 69.35 176.72 66.70 173.11 60.78 172.22 C 54.85 171.34 49.06 169.24 50.00 162.00 C 50.94 154.75 47.83 149.62 48.02 142.98 C 48.22 136.33 47.32 128.24 48.00 122.00 C 48.68 115.76 47.44 109.13 52.00 105.00
C 55.72 101.63 61.44 99.72 66.00 98.00
C 68.36 97.11 70.65 96.76 73.00 96.00
C 78.18 94.32 84.24 91.68 90.00 91.00
C 101.83 89.61 113.22 90.76 125.00 91.00 Z"/>
</g>
<g fill="None" fill-opacity="0.0" stroke="#B1B3B4" stroke-opacity="0.98" stroke-width="0.3"><path d="
M 90.00 91.00 
C 92.98 100.15 93.00 114.07 91.00 122.00
C 92.28 122.28 94.50 121.24 95.00 123.00
C 100.03 122.44 106.27 120.93 111.07 121.07 C 115.88 121.21 124.26 118.10 128.00 119.00
C 126.79 115.60 131.47 110.64 129.99 106.99 C 128.52 103.34 133.01 96.24 131.00 93.00
C 129.90 92.22 126.15 91.14 125.00 91.00
C 113.22 90.76 101.83 89.61 90.00 91.00 Z"/>
</g>
<g fill="None" fill-opacity="0.0" stroke="#CDCDCD" stroke-opacity="0.99" stroke-width="0.3"><path d="
M 73.00 96.00 
C 72.36 96.35 67.80 97.63 66.00 98.00
C 61.44 99.72 55.72 101.63 52.00 105.00
C 49.65 110.80 55.29 119.65 54.00 126.00 C 52.71 132.35 55.53 139.92 57.32 145.68 C 59.11 151.44 66.36 154.90 72.00 154.00
C 71.30 156.08 63.97 153.77 67.00 157.00
C 66.15 160.97 68.27 164.47 66.00 168.00
C 69.36 167.05 69.11 170.94 68.00 173.00
C 89.26 184.85 86.23 211.75 89.00 232.00
C 92.72 231.42 96.22 231.49 100.00 231.00
C 101.55 230.80 102.58 230.25 104.00 230.00
C 106.15 227.07 103.04 220.34 103.01 216.99 C 102.97 213.65 101.63 208.44 101.00 205.00
C 98.84 193.20 97.66 181.17 97.00 169.00
C 96.60 166.20 96.75 152.89 92.92 152.08 C 89.08 151.28 76.01 151.57 72.00 151.00
C 68.43 150.86 67.50 151.04 65.00 149.00
C 59.94 144.88 57.73 128.13 67.22 127.22 C 76.72 126.32 85.67 124.04 95.00 123.00
C 94.50 121.24 92.28 122.28 91.00 122.00
C 93.00 114.07 92.98 100.15 90.00 91.00
C 84.24 91.68 78.18 94.32 73.00 96.00 Z"/>
</g>
<g fill="None" fill-opacity="0.0" stroke="#869293" stroke-opacity="0.28" stroke-width="0.3"><path d="
M 131.00 93.00 
C 132.53 94.08 134.31 97.75 135.00 100.00
C 133.72 92.59 132.84 91.16 125.00 91.00
C 126.15 91.14 129.90 92.22 131.00 93.00 Z"/>
</g>
<g fill="None" fill-opacity="0.0" stroke="#48484A" stroke-opacity="0.93" stroke-width="0.3"><path d="
M 128.00 119.00 
C 129.37 119.33 130.40 120.93 131.00 122.00
C 141.38 140.49 122.37 145.39 110.00 150.00
C 108.91 150.41 107.42 151.62 106.00 152.00
C 107.00 152.10 109.31 153.95 111.00 153.00
C 108.59 171.40 102.50 189.48 104.00 208.00
C 101.99 205.82 103.76 199.58 101.00 205.00
C 101.63 208.44 102.97 213.65 103.01 216.99 C 103.04 220.34 106.15 227.07 104.00 230.00
C 107.92 229.32 112.05 229.21 116.00 229.00
C 116.01 229.00 116.00 228.00 116.00 228.00
C 112.18 221.32 112.86 206.72 112.00 199.00
C 110.55 193.34 109.83 190.60 112.00 185.00
C 114.18 169.44 129.80 160.21 144.00 158.00
C 142.45 138.29 138.32 119.23 135.00 100.00
C 134.31 97.75 132.53 94.08 131.00 93.00
C 133.01 96.24 128.52 103.34 129.99 106.99 C 131.47 110.64 126.79 115.60 128.00 119.00 Z"/>
</g>
<g fill="None" fill-opacity="0.0" stroke="#B5C4C5" stroke-opacity="0.39" stroke-width="0.3"><path d="
M 66.00 98.00 
C 67.80 97.63 72.36 96.35 73.00 96.00
C 70.65 96.76 68.36 97.11 66.00 98.00 Z"/>
</g>
<g fill="None" fill-opacity="0.0" stroke="#EAECEC" stroke-opacity="0.87" stroke-width="0.3"><path d="
M 85.00 232.00 
C 86.04 232.00 87.80 232.19 89.00 232.00
C 86.23 211.75 89.26 184.85 68.00 173.00
C 69.11 170.94 69.36 167.05 66.00 168.00
C 68.27 164.47 66.15 160.97 67.00 157.00
C 63.97 153.77 71.30 156.08 72.00 154.00
C 66.36 154.90 59.11 151.44 57.32 145.68 C 55.53 139.92 52.71 132.35 54.00 126.00 C 55.29 119.65 49.65 110.80 52.00 105.00
C 47.44 109.13 48.68 115.76 48.00 122.00 C 47.32 128.24 48.22 136.33 48.02 142.98 C 47.83 149.62 50.94 154.75 50.00 162.00 C 49.06 169.24 54.85 171.34 60.78 172.22 C 66.70 173.11 69.35 176.72 73.75 180.25 C 78.15 183.78 78.77 189.74 80.22 194.78 C 81.67 199.81 81.30 208.06 83.00 213.00 C 84.70 217.94 81.73 228.20 85.00 232.00 Z"/>
</g>
<g fill="None" fill-opacity="0.0" stroke="#6B6A6A" stroke-opacity="1.00" stroke-width="0.3"><path d="
M 95.00 123.00 
C 85.67 124.04 76.72 126.32 67.22 127.22 C 57.73 128.13 59.94 144.88 65.00 149.00
C 62.53 145.82 63.30 139.69 63.00 134.00 C 62.70 128.31 72.69 128.56 77.00 128.00
C 89.68 126.35 102.21 124.59 115.00 123.00
C 118.53 122.56 128.30 119.72 131.00 122.00
C 130.40 120.93 129.37 119.33 128.00 119.00
C 124.26 118.10 115.88 121.21 111.07 121.07 C 106.27 120.93 100.03 122.44 95.00 123.00 Z"/>
</g>
<g fill="None" fill-opacity="0.0" stroke="#B0B0B0" stroke-opacity="1.00" stroke-width="0.3"><path d="
M 115.00 123.00 
C 113.52 123.33 111.14 124.80 109.00 124.00
C 107.79 132.50 109.57 143.56 106.00 150.00
C 107.33 150.00 108.67 150.00 110.00 150.00
C 122.37 145.39 141.38 140.49 131.00 122.00
C 128.30 119.72 118.53 122.56 115.00 123.00 Z"/>
</g>
<g fill="None" fill-opacity="0.0" stroke="#999A9A" stroke-opacity="1.00" stroke-width="0.3"><path d="
M 77.00 128.00 
C 77.02 135.30 77.19 145.73 81.00 151.00
C 78.00 151.00 75.00 151.00 72.00 151.00
C 76.01 151.57 89.08 151.28 92.92 152.08 C 96.75 152.89 96.60 166.20 97.00 169.00
C 96.73 163.99 95.46 159.23 96.00 154.00
C 99.34 153.43 102.43 151.81 106.00 152.00
C 107.42 151.62 108.91 150.41 110.00 150.00
C 108.67 150.00 107.33 150.00 106.00 150.00
C 109.57 143.56 107.79 132.50 109.00 124.00
C 111.14 124.80 113.52 123.33 115.00 123.00
C 102.21 124.59 89.68 126.35 77.00 128.00 Z"/>
</g>
<g fill="None" fill-opacity="0.0" stroke="#838585" stroke-opacity="1.00" stroke-width="0.3"><path d="
M 65.00 149.00 
C 67.50 151.04 68.43 150.86 72.00 151.00
C 75.00 151.00 78.00 151.00 81.00 151.00
C 77.19 145.73 77.02 135.30 77.00 128.00
C 72.69 128.56 62.70 128.31 63.00 134.00 C 63.30 139.69 62.53 145.82 65.00 149.00 Z"/>
</g>
<g fill="None" fill-opacity="0.0" stroke="#4F6264" stroke-opacity="0.32" stroke-width="0.3"><path d="
M 256.00 136.00 
C 263.47 135.59 271.53 135.49 279.00 136.00
C 271.94 134.74 263.12 134.84 256.00 136.00 Z"/>
</g>
<g fill="None" fill-opacity="0.0" stroke="#162327" stroke-opacity="0.89" stroke-width="0.3"><path d="
M 221.00 156.00 
C 220.77 156.15 221.00 157.00 221.00 157.00
C 220.66 159.05 219.28 160.99 219.00 163.00
C 218.96 163.31 219.66 163.99 220.00 164.00
C 223.07 162.69 234.92 160.47 236.00 157.00
C 234.70 155.89 235.26 156.05 236.00 155.00
C 241.46 147.32 254.67 143.94 263.00 142.00
C 266.02 141.30 268.03 141.31 271.00 142.00
C 280.08 144.11 287.57 148.20 295.00 154.00
C 295.84 154.65 296.32 155.35 297.00 156.00
C 297.32 155.76 298.00 156.00 298.00 156.00
C 301.98 157.19 298.16 161.16 303.00 162.00
C 305.65 160.98 310.33 160.30 312.00 158.00
C 310.19 157.93 308.00 152.28 305.75 151.25 C 303.50 150.22 300.82 145.59 299.00 144.00
C 293.20 139.94 286.10 136.48 279.00 136.00
C 271.53 135.49 263.47 135.59 256.00 136.00
C 239.45 136.90 233.34 147.94 221.00 156.00 Z"/>
</g>
<g fill="None" fill-opacity="0.0" stroke="#3B5155" stroke-opacity="0.35" stroke-width="0.3"><path d="
M 263.00 142.00 
C 265.45 141.73 268.55 141.73 271.00 142.00
C 268.03 141.31 266.02 141.30 263.00 142.00 Z"/>
</g>
<g fill="None" fill-opacity="0.0" stroke="#000000" stroke-opacity="0.00" stroke-width="0.3"><path d="
M 236.00 155.00 
C 238.28 154.18 244.80 158.50 249.00 157.00 C 253.20 155.50 259.28 157.51 264.00 157.00 C 268.72 156.49 275.13 157.00 280.00 157.00
C 281.70 156.84 286.76 154.52 289.00 156.00 C 291.24 157.48 297.10 154.22 295.00 154.00
C 287.57 148.20 280.08 144.11 271.00 142.00
C 268.55 141.73 265.45 141.73 263.00 142.00
C 254.67 143.94 241.46 147.32 236.00 155.00 Z"/>
</g>
<g fill="None" fill-opacity="0.0" stroke="#344749" stroke-opacity="0.48" stroke-width="0.3"><path d="
M 312.00 158.00 
C 312.43 157.40 312.90 156.96 312.00 156.00
C 311.69 155.80 311.20 155.32 311.00 155.00
C 308.33 152.92 306.27 150.34 304.00 148.00
C 302.37 146.57 300.97 145.38 299.00 144.00
C 300.82 145.59 303.50 150.22 305.75 151.25 C 308.00 152.28 310.19 157.93 312.00 158.00 Z"/>
</g>
<g fill="None" fill-opacity="0.0" stroke="#758691" stroke-opacity="0.09" stroke-width="0.3"><path d="
M 311.00 155.00 
C 309.27 152.20 306.46 150.16 304.00 148.00
C 306.27 150.34 308.33 152.92 311.00 155.00 Z"/>
</g>
<g fill="None" fill-opacity="0.0" stroke="#5C5C5E" stroke-opacity="1.00" stroke-width="0.3"><path d="
M 97.00 169.00 
C 97.66 181.17 98.84 193.20 101.00 205.00
C 103.76 199.58 101.99 205.82 104.00 208.00
C 102.50 189.48 108.59 171.40 111.00 153.00
C 109.31 153.95 107.00 152.10 106.00 152.00
C 102.43 151.81 99.34 153.43 96.00 154.00
C 95.46 159.23 96.73 163.99 97.00 169.00 Z"/>
</g>
<g fill="None" fill-opacity="0.0" stroke="#978774" stroke-opacity="0.18" stroke-width="0.3"><path d="
M 280.00 157.00 
C 280.50 157.00 281.00 157.00 281.00 157.00
C 285.39 157.00 293.70 158.44 297.00 156.00
C 296.32 155.35 295.84 154.65 295.00 154.00
C 297.10 154.22 291.24 157.48 289.00 156.00 C 286.76 154.52 281.70 156.84 280.00 157.00 Z"/>
</g>
<g fill="None" fill-opacity="0.0" stroke="#886548" stroke-opacity="0.54" stroke-width="0.3"><path d="
M 236.00 157.00 
C 240.91 161.20 251.62 156.68 258.00 158.00 C 264.38 159.32 275.13 157.57 281.00 157.00
C 281.00 157.00 280.50 157.00 280.00 157.00
C 275.13 157.00 268.72 156.49 264.00 157.00 C 259.28 157.51 253.20 155.50 249.00 157.00 C 244.80 158.50 238.28 154.18 236.00 155.00
C 235.26 156.05 234.70 155.89 236.00 157.00 Z"/>
</g>
<g fill="None" fill-opacity="0.0" stroke="#936744" stroke-opacity="0.62" stroke-width="0.3"><path d="
M 179.00 157.00 
C 191.70 156.65 208.05 160.74 221.00 157.00
C 221.00 157.00 220.77 156.15 221.00 156.00
C 214.69 155.01 206.73 157.61 200.00 157.00 C 193.27 156.39 185.64 156.18 179.00 157.00 Z"/>
</g>
<g fill="None" fill-opacity="0.0" stroke="#8C4A15" stroke-opacity="0.99" stroke-width="0.3"><path d="
M 281.00 157.00 
C 275.13 157.57 264.38 159.32 258.00 158.00 C 251.62 156.68 240.91 161.20 236.00 157.00
C 234.92 160.47 223.07 162.69 220.00 164.00
C 211.69 167.54 203.11 171.87 194.00 174.00
C 200.88 168.04 211.04 167.52 219.00 163.00
C 219.28 160.99 220.66 159.05 221.00 157.00
C 208.05 160.74 191.70 156.65 179.00 157.00
C 164.84 158.75 148.13 168.33 135.00 174.00
C 127.37 178.72 131.00 197.62 131.00 206.00
C 149.39 204.32 168.54 206.52 187.00 206.00 C 205.46 205.48 225.38 205.29 243.00 207.00
C 249.00 207.00 255.00 207.00 261.00 207.00
C 270.90 207.00 282.25 208.11 292.00 207.00 C 301.75 205.89 313.78 209.95 323.00 207.00
C 322.78 206.96 322.35 206.05 322.00 206.00
C 296.53 202.33 269.60 208.75 244.00 206.00
C 244.00 195.33 244.00 184.67 244.00 174.00
C 263.84 175.75 280.90 167.03 299.00 162.00
C 299.06 159.88 299.23 157.77 298.00 156.00
C 298.00 156.00 297.32 155.76 297.00 156.00
C 293.70 158.44 285.39 157.00 281.00 157.00 Z"/>
</g>
<g fill="None" fill-opacity="0.0" stroke="#532A12" stroke-opacity="1.00" stroke-width="0.3"><path d="
M 322.00 206.00 
C 323.33 196.04 323.09 185.35 323.00 175.00
C 324.28 174.72 326.50 175.76 327.00 174.00
C 308.84 177.19 287.50 172.44 270.00 173.00
C 281.29 170.51 292.29 165.28 303.00 162.00
C 298.16 161.16 301.98 157.19 298.00 156.00
C 299.23 157.77 299.06 159.88 299.00 162.00
C 280.90 167.03 263.84 175.75 244.00 174.00
C 244.00 184.67 244.00 195.33 244.00 206.00
C 269.60 208.75 296.53 202.33 322.00 206.00 Z"/>
</g>
<g fill="None" fill-opacity="0.0" stroke="#7D3E18" stroke-opacity="1.00" stroke-width="0.3"><path d="
M 312.00 158.00 
C 310.33 160.30 305.65 160.98 303.00 162.00
C 292.29 165.28 281.29 170.51 270.00 173.00
C 287.50 172.44 308.84 177.19 327.00 174.00
C 333.72 170.45 341.84 168.17 349.22 166.22 C 356.61 164.28 365.21 159.83 372.00 158.00
C 354.25 158.00 333.79 160.13 317.00 157.00
C 315.07 156.64 313.73 157.14 312.00 156.00
C 312.90 156.96 312.43 157.40 312.00 158.00 Z"/>
</g>
<g fill="None" fill-opacity="0.0" stroke="#7B563D" stroke-opacity="0.73" stroke-width="0.3"><path d="
M 317.00 157.00 
C 333.79 160.13 354.25 158.00 372.00 158.00
C 372.85 158.00 375.29 158.43 376.00 158.00
C 375.76 157.68 376.00 157.00 376.00 157.00
C 373.00 157.00 370.00 157.00 367.00 157.00
C 366.00 157.00 365.00 157.00 364.00 157.00
C 352.06 157.00 339.92 157.65 328.00 157.00
C 324.03 156.78 320.59 156.99 317.00 157.00 Z"/>
</g>
<g fill="None" fill-opacity="0.0" stroke="#BBBAB7" stroke-opacity="0.02" stroke-width="0.3"><path d="
M 328.00 157.00 
C 339.92 157.65 352.06 157.00 364.00 157.00
C 353.02 154.59 339.05 156.53 328.00 157.00 Z"/>
</g>
<g fill="None" fill-opacity="0.0" stroke="#ADADAD" stroke-opacity="0.04" stroke-width="0.3"><path d="
M 367.00 157.00 
C 370.00 157.00 373.00 157.00 376.00 157.00
C 376.50 157.00 377.00 157.00 377.00 157.00
C 374.12 154.88 369.91 156.36 367.00 157.00 Z"/>
</g>
<g fill="None" fill-opacity="0.0" stroke="#38211F" stroke-opacity="0.79" stroke-width="0.3"><path d="
M 376.00 158.00 
C 380.61 164.23 376.27 181.99 377.00 190.00
C 377.00 189.96 378.00 190.00 378.00 190.00
C 377.05 179.49 379.51 168.43 378.00 158.00
C 377.78 157.70 377.35 157.03 377.00 157.00
C 377.00 157.00 376.50 157.00 376.00 157.00
C 376.00 157.00 375.76 157.68 376.00 158.00 Z"/>
</g>
<g fill="None" fill-opacity="0.0" stroke="#391814" stroke-opacity="1.00" stroke-width="0.3"><path d="
M 327.00 174.00 
C 326.50 175.76 324.28 174.72 323.00 175.00
C 323.09 185.35 323.33 196.04 322.00 206.00
C 322.35 206.05 322.78 206.96 323.00 207.00
C 332.22 208.82 341.18 200.38 350.07 199.07 C 358.97 197.77 368.24 192.25 377.00 190.00
C 376.27 181.99 380.61 164.23 376.00 158.00
C 375.29 158.43 372.85 158.00 372.00 158.00
C 365.21 159.83 356.61 164.28 349.22 166.22 C 341.84 168.17 333.72 170.45 327.00 174.00 Z"/>
</g>
<g fill="None" fill-opacity="0.0" stroke="#808688" stroke-opacity="0.08" stroke-width="0.3"><path d="
M 378.00 190.00 
C 378.00 189.96 379.00 190.00 379.00 190.00
C 379.00 184.87 379.44 177.95 379.00 173.00 C 378.56 168.05 380.73 161.71 378.00 158.00
C 379.51 168.43 377.05 179.49 378.00 190.00 Z"/>
</g>
<g fill="None" fill-opacity="0.0" stroke="#702F10" stroke-opacity="1.00" stroke-width="0.3"><path d="
M 220.00 164.00 
C 219.66 163.99 218.96 163.31 219.00 163.00
C 211.04 167.52 200.88 168.04 194.00 174.00
C 203.11 171.87 211.69 167.54 220.00 164.00 Z"/>
</g>
<g fill="None" fill-opacity="0.0" stroke="#977F60" stroke-opacity="0.25" stroke-width="0.3"><path d="
M 130.00 207.00 
C 130.00 206.96 131.00 207.00 131.00 207.00
C 131.25 206.75 131.00 206.00 131.00 206.00
C 131.00 197.62 127.37 178.72 135.00 174.00
C 126.05 177.86 130.00 197.60 130.00 207.00 Z"/>
</g>
<g fill="None" fill-opacity="0.0" stroke="#707577" stroke-opacity="0.33" stroke-width="0.3"><path d="
M 112.00 199.00 
C 111.45 194.11 111.03 189.76 112.00 185.00
C 109.83 190.60 110.55 193.34 112.00 199.00 Z"/>
</g>
<g fill="None" fill-opacity="0.0" stroke="#C44816" stroke-opacity="1.00" stroke-width="0.3"><path d="
M 323.00 207.00 
C 323.00 257.00 323.00 307.00 323.00 357.00
C 272.16 359.31 220.25 357.35 169.00 358.00
C 167.39 358.22 165.84 358.86 164.00 359.00
C 163.97 359.00 164.00 360.00 164.00 360.00
C 169.67 360.00 175.33 360.00 181.00 360.00
C 185.83 360.00 190.52 360.58 195.00 361.00
C 214.42 362.82 235.26 360.01 254.00 362.00
C 255.62 362.17 257.37 362.00 259.00 362.00
C 259.50 362.00 260.00 362.00 260.00 362.00
C 265.71 357.78 276.56 362.26 284.00 361.00 C 291.44 359.74 302.23 361.73 310.00 361.00
C 315.12 360.52 320.53 360.00 326.00 360.00
C 327.00 360.00 328.00 360.00 329.00 360.00
C 329.50 360.00 330.92 360.19 331.00 360.00
C 331.00 349.33 331.00 338.67 331.00 328.00
C 344.30 327.99 356.73 315.54 369.00 319.00
C 362.15 313.47 350.99 314.45 349.00 303.00
C 348.92 302.51 349.00 301.50 349.00 301.00
C 347.96 298.55 347.62 295.11 348.00 292.00
C 349.83 277.26 367.47 274.29 377.00 284.00
C 374.83 268.89 377.30 252.30 377.00 237.00 C 376.70 221.70 375.62 205.25 377.00 190.00
C 368.24 192.25 358.97 197.77 350.07 199.07 C 341.18 200.38 332.22 208.82 323.00 207.00
M 350.00 220.00 
C 355.81 222.59 349.69 236.52 352.00 241.00 C 354.31 245.48 350.43 259.47 343.99 256.99 C 337.56 254.51 344.17 240.62 342.00 236.00 C 339.83 231.38 342.34 216.58 350.00 220.00 Z"/>
</g>
<g fill="None" fill-opacity="0.0" stroke="#B64C26" stroke-opacity="0.83" stroke-width="0.3"><path d="
M 377.00 284.00 
C 377.25 284.25 377.88 284.74 378.00 285.00
C 378.00 253.78 380.83 221.08 378.00 190.00
C 378.00 190.00 377.00 189.96 377.00 190.00
C 375.62 205.25 376.70 221.70 377.00 237.00 C 377.30 252.30 374.83 268.89 377.00 284.00 Z"/>
</g>
<g fill="None" fill-opacity="0.0" stroke="#AE9383" stroke-opacity="0.09" stroke-width="0.3"><path d="
M 378.00 285.00 
C 378.00 285.50 378.00 286.00 378.00 286.00
C 383.33 278.77 377.25 263.39 379.00 254.00 C 380.75 244.61 378.34 232.00 379.00 222.00 C 379.66 212.00 379.00 200.17 379.00 190.00
C 379.00 190.00 378.00 189.96 378.00 190.00
C 380.83 221.08 378.00 253.78 378.00 285.00 Z"/>
</g>
<g fill="None" fill-opacity="0.0" stroke="#C0691A" stroke-opacity="1.00" stroke-width="0.3"><path d="
M 131.00 207.00 
C 143.43 208.12 156.51 207.00 169.00 207.00
C 193.67 207.00 218.33 207.00 243.00 207.00
C 225.38 205.29 205.46 205.48 187.00 206.00 C 168.54 206.52 149.39 204.32 131.00 206.00
C 131.00 206.00 131.25 206.75 131.00 207.00 Z"/>
</g>
<g fill="None" fill-opacity="0.0" stroke="#DF9C4C" stroke-opacity="0.53" stroke-width="0.3"><path d="
M 130.00 227.00 
C 132.66 223.41 131.43 211.76 131.00 207.00
C 131.00 207.00 130.00 206.96 130.00 207.00
C 130.00 213.67 130.00 220.33 130.00 227.00 Z"/>
</g>
<g fill="None" fill-opacity="0.0" stroke="#FE9316" stroke-opacity="1.00" stroke-width="0.3"><path d="
M 130.00 227.00 
C 130.00 227.00 130.00 227.50 130.00 228.00
C 130.00 228.50 130.00 229.00 130.00 229.00
C 130.00 233.60 129.57 238.43 130.00 243.00
C 130.85 252.04 131.00 261.59 131.00 271.00
C 131.00 274.23 130.27 277.11 130.00 280.00
C 129.12 289.42 129.12 300.58 130.00 310.00
C 130.69 317.32 130.67 325.09 130.00 332.00
C 130.00 337.00 130.00 342.00 130.00 347.00
C 130.30 350.08 131.00 354.25 131.00 358.00
C 131.25 357.75 132.00 358.00 132.00 358.00
C 136.38 354.76 144.37 357.93 150.00 357.00 C 155.63 356.07 163.20 357.70 169.00 357.00
C 168.90 306.85 169.16 256.49 169.00 207.00
C 156.51 207.00 143.43 208.12 131.00 207.00
C 131.43 211.76 132.66 223.41 130.00 227.00 Z"/>
</g>
<g fill="None" fill-opacity="0.0" stroke="#F48216" stroke-opacity="1.00" stroke-width="0.3"><path d="
M 132.00 358.00 
C 135.60 360.67 142.13 358.74 147.00 359.00 C 151.87 359.26 158.97 359.37 164.00 359.00
C 165.84 358.86 167.39 358.22 169.00 358.00
C 182.88 354.40 199.12 358.12 214.00 357.00 C 228.88 355.88 245.00 357.84 260.00 357.00
C 259.56 306.60 260.97 256.63 261.00 207.00
C 255.00 207.00 249.00 207.00 243.00 207.00
C 218.33 207.00 193.67 207.00 169.00 207.00
C 169.16 256.49 168.90 306.85 169.00 357.00
C 163.20 357.70 155.63 356.07 150.00 357.00 C 144.37 357.93 136.38 354.76 132.00 358.00
M 191.00 226.00 
C 183.51 227.23 177.32 231.50 172.00 237.00
C 169.93 229.15 184.84 220.57 191.00 226.00
M 182.00 274.00 
C 181.52 272.83 181.10 272.35 181.00 271.00
C 179.82 267.51 180.16 264.40 181.00 261.00
C 186.21 239.95 209.77 239.87 213.99 261.01 C 218.21 282.15 190.43 294.47 182.00 274.00
M 251.00 304.00 
C 247.03 310.03 230.89 309.92 225.00 306.00
C 216.74 300.51 216.75 290.13 217.00 281.00
C 228.08 280.86 238.89 281.18 250.00 281.00 C 261.11 280.82 255.71 298.40 251.00 304.00 Z"/>
</g>
<g fill="None" fill-opacity="0.0" stroke="#E57415" stroke-opacity="1.00" stroke-width="0.3"><path d="
M 169.00 358.00 
C 220.25 357.35 272.16 359.31 323.00 357.00
C 323.00 307.00 323.00 257.00 323.00 207.00
C 313.78 209.95 301.75 205.89 292.00 207.00 C 282.25 208.11 270.90 207.00 261.00 207.00
C 260.97 256.63 259.56 306.60 260.00 357.00
C 245.00 357.84 228.88 355.88 214.00 357.00 C 199.12 358.12 182.88 354.40 169.00 358.00
M 296.00 237.00 
C 291.77 230.48 284.13 226.84 277.00 226.00
C 283.59 220.25 297.95 229.09 296.00 237.00
M 287.00 244.00 
C 298.21 247.40 300.97 268.82 293.68 278.68 C 286.39 288.53 266.98 284.14 265.03 270.98 C 263.07 257.81 271.58 239.32 287.00 244.00 Z"/>
</g>
<g fill="None" fill-opacity="0.0" stroke="#5F1F11" stroke-opacity="1.00" stroke-width="0.3"><path d="
M 350.00 220.00 
C 342.34 216.58 339.83 231.38 342.00 236.00 C 344.17 240.62 337.56 254.51 343.99 256.99 C 350.43 259.47 354.31 245.48 352.00 241.00 C 349.69 236.52 355.81 222.59 350.00 220.00 Z"/>
</g>
<g fill="None" fill-opacity="0.0" stroke="#472619" stroke-opacity="1.00" stroke-width="0.3"><path d="
M 191.00 226.00 
C 184.84 220.57 169.93 229.15 172.00 237.00
C 177.32 231.50 183.51 227.23 191.00 226.00 Z"/>
</g>
<g fill="None" fill-opacity="0.0" stroke="#42261C" stroke-opacity="1.00" stroke-width="0.3"><path d="
M 296.00 237.00 
C 297.95 229.09 283.59 220.25 277.00 226.00
C 284.13 226.84 291.77 230.48 296.00 237.00 Z"/>
</g>
<g fill="None" fill-opacity="0.0" stroke="#B2927A" stroke-opacity="0.18" stroke-width="0.3"><path d="
M 116.00 229.00 
C 120.64 228.75 125.37 229.42 130.00 229.00
C 130.00 229.00 130.00 228.50 130.00 228.00
C 125.37 228.42 120.63 227.58 116.00 228.00
C 116.00 228.00 116.01 229.00 116.00 229.00 Z"/>
</g>
<g fill="None" fill-opacity="0.0" stroke="#DF6E1E" stroke-opacity="0.96" stroke-width="0.3"><path d="
M 104.00 230.00 
C 102.58 230.25 101.55 230.80 100.00 231.00
C 95.79 234.33 102.26 242.84 100.00 247.00
C 96.77 246.94 91.57 245.95 93.00 251.00
C 93.07 251.49 93.03 252.50 93.00 253.00
C 98.84 255.59 103.25 250.24 104.33 258.67 C 105.40 267.11 105.02 263.78 106.98 273.02 C 108.93 282.27 109.80 293.42 110.99 303.01 C 112.18 312.59 113.72 323.60 114.99 333.01 C 116.26 342.42 115.57 341.03 115.00 349.00
C 114.00 349.11 112.27 348.53 112.00 350.00
C 113.95 350.00 116.07 350.23 118.00 350.00
C 122.06 348.90 125.17 347.63 126.00 343.00
C 126.22 340.34 125.07 334.49 125.00 331.00
C 124.88 325.20 125.17 315.93 124.00 311.00
C 122.88 306.28 115.86 290.37 121.00 284.00
C 117.01 280.48 116.60 265.35 116.00 260.00
C 115.59 257.99 115.00 255.63 115.00 253.00
C 114.82 250.68 115.13 248.32 115.00 246.00
C 119.01 245.43 122.96 244.57 127.00 244.00
C 127.76 243.75 128.60 242.40 130.00 243.00
C 129.57 238.43 130.00 233.60 130.00 229.00
C 125.37 229.42 120.64 228.75 116.00 229.00
C 112.05 229.21 107.92 229.32 104.00 230.00 Z"/>
</g>
<g fill="None" fill-opacity="0.0" stroke="#F59625" stroke-opacity="0.95" stroke-width="0.3"><path d="
M 89.00 232.00 
C 87.80 232.19 86.04 232.00 85.00 232.00
C 83.22 232.00 80.02 232.73 78.00 233.00
C 75.96 233.49 75.22 234.05 73.00 234.00
C 68.85 233.69 64.85 234.20 61.00 235.00
C 61.03 237.33 60.96 239.67 61.00 242.00
C 61.32 244.56 63.83 247.49 62.00 250.00
C 62.00 250.00 61.86 250.54 62.00 251.00
C 63.78 252.49 69.58 252.07 71.00 252.00
C 74.99 251.36 91.41 246.86 93.00 251.00
C 91.57 245.95 96.77 246.94 100.00 247.00
C 102.26 242.84 95.79 234.33 100.00 231.00
C 96.22 231.49 92.72 231.42 89.00 232.00 Z"/>
</g>
<g fill="None" fill-opacity="0.0" stroke="#CFA05E" stroke-opacity="0.53" stroke-width="0.3"><path d="
M 73.00 234.00 
C 75.22 234.05 75.96 233.49 78.00 233.00
C 76.19 233.24 74.72 233.79 73.00 234.00 Z"/>
</g>
<g fill="None" fill-opacity="0.0" stroke="#C1A878" stroke-opacity="0.29" stroke-width="0.3"><path d="
M 62.00 250.00 
C 63.83 247.49 61.32 244.56 61.00 242.00
C 61.05 244.87 61.08 247.41 62.00 250.00 Z"/>
</g>
<g fill="None" fill-opacity="0.0" stroke="#DF9544" stroke-opacity="0.68" stroke-width="0.3"><path d="
M 127.00 244.00 
C 129.84 244.69 129.48 245.28 130.00 248.00
C 131.11 253.85 130.00 261.03 130.00 267.00
C 130.00 268.33 129.99 269.67 130.00 271.00
C 130.13 271.22 131.00 271.00 131.00 271.00
C 131.00 261.59 130.85 252.04 130.00 243.00
C 128.60 242.40 127.76 243.75 127.00 244.00 Z"/>
</g>
<g fill="None" fill-opacity="0.0" stroke="#000000" stroke-opacity="0.00" stroke-width="0.3"><path d="
M 115.00 253.00 
C 115.12 254.53 115.76 257.88 116.00 260.00
C 116.60 265.35 117.01 280.48 121.00 284.00
C 121.28 284.25 122.00 284.00 122.00 284.00
C 123.28 281.96 125.78 280.87 128.00 280.00
C 128.43 279.83 129.00 280.00 129.00 280.00
C 130.34 277.46 130.01 273.92 130.00 271.00
C 129.99 269.67 130.00 268.33 130.00 267.00
C 129.24 261.44 130.50 253.14 130.00 248.00
C 129.48 245.28 129.84 244.69 127.00 244.00
C 122.96 244.57 119.01 245.43 115.00 246.00
C 115.13 248.32 114.82 250.68 115.00 253.00 Z"/>
</g>
<g fill="None" fill-opacity="0.0" stroke="#1A2022" stroke-opacity="1.00" stroke-width="0.3"><path d="
M 181.00 261.00 
C 180.68 263.58 181.00 266.40 181.00 269.00
C 181.13 269.73 181.97 273.86 182.00 274.00
C 190.43 294.47 218.21 282.15 213.99 261.01 C 209.77 239.87 186.21 239.95 181.00 261.00
M 202.00 247.00 
C 210.32 249.11 202.69 264.33 195.00 261.00 C 187.30 257.67 193.28 244.79 202.00 247.00
M 208.00 261.00 
C 208.13 258.25 205.80 255.56 208.00 253.00
C 209.50 254.64 209.72 259.43 208.00 261.00 Z"/>
</g>
<g fill="None" fill-opacity="0.0" stroke="#191D21" stroke-opacity="1.00" stroke-width="0.3"><path d="
M 287.00 244.00 
C 271.58 239.32 263.07 257.81 265.03 270.98 C 266.98 284.14 286.39 288.53 293.68 278.68 C 300.97 268.82 298.21 247.40 287.00 244.00
M 287.00 247.00 
C 294.36 249.76 286.94 264.60 279.33 260.67 C 271.72 256.74 278.18 243.70 287.00 247.00 Z"/>
</g>
<g fill="None" fill-opacity="0.0" stroke="#E9ECEC" stroke-opacity="1.00" stroke-width="0.3"><path d="
M 202.00 247.00 
C 193.28 244.79 187.30 257.67 195.00 261.00 C 202.69 264.33 210.32 249.11 202.00 247.00 Z"/>
</g>
<g fill="None" fill-opacity="0.0" stroke="#EBECEB" stroke-opacity="1.00" stroke-width="0.3"><path d="
M 287.00 247.00 
C 278.18 243.70 271.72 256.74 279.33 260.67 C 286.94 264.60 294.36 249.76 287.00 247.00 Z"/>
</g>
<g fill="None" fill-opacity="0.0" stroke="#C5B298" stroke-opacity="0.04" stroke-width="0.3"><path d="
M 130.00 267.00 
C 130.00 261.03 131.11 253.85 130.00 248.00
C 130.50 253.14 129.24 261.44 130.00 267.00 Z"/>
</g>
<g fill="None" fill-opacity="0.0" stroke="#D0A466" stroke-opacity="0.29" stroke-width="0.3"><path d="
M 71.00 252.00 
C 69.58 252.07 63.78 252.49 62.00 251.00
C 63.10 254.68 68.56 252.39 71.00 252.00 Z"/>
</g>
<g fill="None" fill-opacity="0.0" stroke="#F79E20" stroke-opacity="0.95" stroke-width="0.3"><path d="
M 98.00 289.00 
C 98.95 294.03 99.78 298.68 100.00 304.00
C 100.58 307.06 101.61 310.34 102.00 314.00
C 102.23 316.19 102.00 318.44 102.00 321.00
C 102.00 327.07 102.25 350.30 111.00 350.00
C 111.50 349.98 112.00 350.00 112.00 350.00
C 112.27 348.53 114.00 349.11 115.00 349.00
C 115.57 341.03 116.26 342.42 114.99 333.01 C 113.72 323.60 112.18 312.59 110.99 303.01 C 109.80 293.42 108.93 282.27 106.98 273.02 C 105.02 263.78 105.40 267.11 104.33 258.67 C 103.25 250.24 98.84 255.59 93.00 253.00
C 92.18 264.75 95.87 277.74 98.00 289.00 Z"/>
</g>
<g fill="None" fill-opacity="0.0" stroke="#C79072" stroke-opacity="0.25" stroke-width="0.3"><path d="
M 116.00 260.00 
C 115.76 257.88 115.12 254.53 115.00 253.00
C 115.00 255.63 115.59 257.99 116.00 260.00 Z"/>
</g>
<g fill="None" fill-opacity="0.0" stroke="#455353" stroke-opacity="1.00" stroke-width="0.3"><path d="
M 208.00 261.00 
C 209.72 259.43 209.50 254.64 208.00 253.00
C 205.80 255.56 208.13 258.25 208.00 261.00 Z"/>
</g>
<g fill="None" fill-opacity="0.0" stroke="#8C531D" stroke-opacity="1.00" stroke-width="0.3"><path d="
M 181.00 271.00 
C 180.96 270.50 181.00 269.50 181.00 269.00
C 181.00 266.40 180.68 263.58 181.00 261.00
C 180.16 264.40 179.82 267.51 181.00 271.00 Z"/>
</g>
<g fill="None" fill-opacity="0.0" stroke="#30201A" stroke-opacity="1.00" stroke-width="0.3"><path d="
M 181.00 271.00 
C 181.10 272.35 181.52 272.83 182.00 274.00
C 181.97 273.86 181.13 269.73 181.00 269.00
C 181.00 269.50 180.96 270.50 181.00 271.00 Z"/>
</g>
<g fill="None" fill-opacity="0.0" stroke="#D7A367" stroke-opacity="0.47" stroke-width="0.3"><path d="
M 129.00 280.00 
C 129.50 280.00 130.00 280.00 130.00 280.00
C 130.27 277.11 131.00 274.23 131.00 271.00
C 131.00 271.00 130.13 271.22 130.00 271.00
C 130.01 273.92 130.34 277.46 129.00 280.00 Z"/>
</g>
<g fill="None" fill-opacity="0.0" stroke="#853921" stroke-opacity="0.98" stroke-width="0.3"><path d="
M 348.00 292.00 
C 349.84 283.10 358.79 277.68 367.00 280.00
C 371.70 281.33 373.62 283.73 377.00 287.00
C 377.15 287.10 377.97 286.35 378.00 286.00
C 378.00 286.00 378.00 285.50 378.00 285.00
C 377.88 284.74 377.25 284.25 377.00 284.00
C 367.47 274.29 349.83 277.26 348.00 292.00 Z"/>
</g>
<g fill="None" fill-opacity="0.0" stroke="#3F2019" stroke-opacity="1.00" stroke-width="0.3"><path d="
M 348.00 292.00 
C 347.62 295.11 347.96 298.55 349.00 301.00
C 349.00 289.65 353.07 277.88 367.00 280.00
C 358.79 277.68 349.84 283.10 348.00 292.00 Z"/>
</g>
<g fill="None" fill-opacity="0.0" stroke="#678185" stroke-opacity="0.27" stroke-width="0.3"><path d="
M 122.00 284.00 
C 124.58 283.43 126.27 281.80 128.00 280.00
C 125.78 280.87 123.28 281.96 122.00 284.00 Z"/>
</g>
<g fill="None" fill-opacity="0.0" stroke="#1F2528" stroke-opacity="0.97" stroke-width="0.3"><path d="
M 122.00 284.00 
C 122.00 284.00 121.28 284.25 121.00 284.00
C 115.86 290.37 122.88 306.28 124.00 311.00
C 124.88 311.25 128.18 311.37 129.00 311.00
C 128.90 310.81 129.95 310.23 130.00 310.00
C 129.12 300.58 129.12 289.42 130.00 280.00
C 130.00 280.00 129.50 280.00 129.00 280.00
C 129.00 280.00 128.43 279.83 128.00 280.00
C 126.27 281.80 124.58 283.43 122.00 284.00 Z"/>
</g>
<g fill="None" fill-opacity="0.0" stroke="#132228" stroke-opacity="0.98" stroke-width="0.3"><path d="
M 349.00 301.00 
C 349.00 301.50 348.92 302.51 349.00 303.00
C 354.02 311.21 362.71 315.42 371.00 319.00
C 374.61 320.53 381.51 321.01 385.00 318.00
C 385.26 317.77 385.65 317.07 386.00 317.00
C 387.85 305.79 384.08 293.84 377.00 287.00
C 373.62 283.73 371.70 281.33 367.00 280.00
C 353.07 277.88 349.00 289.65 349.00 301.00 Z"/>
</g>
<g fill="None" fill-opacity="0.0" stroke="#1D1E1F" stroke-opacity="1.00" stroke-width="0.3"><path d="
M 225.00 306.00 
C 226.22 302.53 227.46 298.89 231.00 297.00
C 236.30 294.17 251.04 295.20 251.00 304.00
C 255.71 298.40 261.11 280.82 250.00 281.00 C 238.89 281.18 228.08 280.86 217.00 281.00
C 216.75 290.13 216.74 300.51 225.00 306.00 Z"/>
</g>
<g fill="None" fill-opacity="0.0" stroke="#172D32" stroke-opacity="0.96" stroke-width="0.3"><path d="
M 93.00 291.00 
C 91.25 292.16 87.30 295.20 86.00 297.00
C 84.74 299.06 84.55 300.76 84.00 303.00
C 83.64 305.90 84.00 309.08 84.00 312.00
C 84.00 312.00 83.95 312.50 84.00 313.00
C 85.59 314.98 87.57 319.66 90.00 321.00
C 92.55 322.18 99.68 323.37 102.00 321.00
C 102.00 318.44 102.23 316.19 102.00 314.00
C 101.71 313.03 100.15 307.76 100.00 304.00
C 99.78 298.68 98.95 294.03 98.00 289.00
C 96.87 288.39 93.96 290.50 93.00 291.00 Z"/>
</g>
<g fill="None" fill-opacity="0.0" stroke="#6C9094" stroke-opacity="0.11" stroke-width="0.3"><path d="
M 86.00 297.00 
C 87.30 295.20 91.25 292.16 93.00 291.00
C 90.18 292.48 87.76 294.12 86.00 297.00 Z"/>
</g>
<g fill="None" fill-opacity="0.0" stroke="#D0503C" stroke-opacity="1.00" stroke-width="0.3"><path d="
M 231.00 297.00 
C 227.56 299.36 228.14 304.73 225.00 306.00
C 230.89 309.92 247.03 310.03 251.00 304.00
C 251.04 295.20 236.30 294.17 231.00 297.00 Z"/>
</g>
<g fill="None" fill-opacity="0.0" stroke="#68241D" stroke-opacity="1.00" stroke-width="0.3"><path d="
M 225.00 306.00 
C 228.14 304.73 227.56 299.36 231.00 297.00
C 227.46 298.89 226.22 302.53 225.00 306.00 Z"/>
</g>
<g fill="None" fill-opacity="0.0" stroke="#4B5E65" stroke-opacity="0.22" stroke-width="0.3"><path d="
M 84.00 312.00 
C 84.00 309.08 83.64 305.90 84.00 303.00
C 83.35 305.63 81.99 309.28 84.00 312.00 Z"/>
</g>
<g fill="None" fill-opacity="0.0" stroke="#633321" stroke-opacity="1.00" stroke-width="0.3"><path d="
M 369.00 319.00 
C 369.47 319.13 370.58 318.82 371.00 319.00
C 362.71 315.42 354.02 311.21 349.00 303.00
C 350.99 314.45 362.15 313.47 369.00 319.00 Z"/>
</g>
<g fill="None" fill-opacity="0.0" stroke="#452F13" stroke-opacity="1.00" stroke-width="0.3"><path d="
M 102.00 314.00 
C 101.61 310.34 100.58 307.06 100.00 304.00
C 100.15 307.76 101.71 313.03 102.00 314.00 Z"/>
</g>
<g fill="None" fill-opacity="0.0" stroke="#E0964A" stroke-opacity="0.68" stroke-width="0.3"><path d="
M 129.00 311.00 
C 129.30 311.56 129.00 313.35 129.00 314.00
C 130.05 318.79 130.00 324.55 130.00 330.00
C 130.00 330.50 130.00 331.50 130.00 332.00
C 130.67 325.09 130.69 317.32 130.00 310.00
C 129.95 310.23 128.90 310.81 129.00 311.00 Z"/>
</g>
<g fill="None" fill-opacity="0.0" stroke="#435C61" stroke-opacity="0.21" stroke-width="0.3"><path d="
M 90.00 321.00 
C 87.57 319.66 85.59 314.98 84.00 313.00
C 84.29 316.05 87.11 319.66 90.00 321.00 Z"/>
</g>
<g fill="None" fill-opacity="0.0" stroke="#CCAF8A" stroke-opacity="0.05" stroke-width="0.3"><path d="
M 130.00 330.00 
C 130.00 324.55 130.05 318.79 129.00 314.00
C 129.00 319.13 128.14 325.63 130.00 330.00 Z"/>
</g>
<g fill="None" fill-opacity="0.0" stroke="#C39669" stroke-opacity="0.57" stroke-width="0.3"><path d="
M 393.00 317.00 
C 393.07 317.01 393.00 318.00 393.00 318.00
C 406.00 318.00 419.00 318.00 432.00 318.00
C 434.00 318.00 436.00 318.00 438.00 318.00
C 438.50 318.00 439.00 318.00 439.00 318.00
C 439.00 317.50 439.00 317.00 439.00 317.00
C 423.62 315.61 408.70 317.00 393.00 317.00 Z"/>
</g>
<g fill="None" fill-opacity="0.0" stroke="#F58719" stroke-opacity="1.00" stroke-width="0.3"><path d="
M 331.00 360.00 
C 331.00 363.60 331.44 368.53 331.00 372.00 C 330.56 375.47 332.06 382.07 331.00 385.00 C 329.94 387.93 332.99 395.89 332.00 397.00
C 341.93 399.11 352.76 396.24 363.00 397.00 C 373.24 397.76 384.65 397.00 395.00 397.00
C 392.16 390.60 396.33 381.08 395.00 374.00 C 393.67 366.92 395.69 358.36 395.00 351.00 C 394.31 343.64 395.52 335.44 395.00 328.00
C 407.03 323.87 420.72 323.51 432.00 318.00
C 419.00 318.00 406.00 318.00 393.00 318.00
C 390.72 318.00 387.16 318.69 385.00 318.00
C 381.51 321.01 374.61 320.53 371.00 319.00
C 370.58 318.82 369.47 319.13 369.00 319.00
C 356.73 315.54 344.30 327.99 331.00 328.00
C 331.00 338.67 331.00 349.33 331.00 360.00
M 360.00 338.00 
C 362.50 345.20 359.66 353.75 362.00 361.00
C 366.24 357.28 367.73 349.35 373.00 347.00
C 372.53 352.37 365.88 355.19 366.00 361.00
C 370.96 361.51 376.47 359.89 381.00 362.00
C 376.47 364.22 369.97 362.10 365.00 364.00
C 366.67 370.64 371.62 375.83 374.00 382.00
C 367.13 379.73 367.34 370.07 362.00 366.00
C 360.28 371.05 361.12 377.43 359.00 382.00
C 356.00 376.31 360.18 369.41 359.00 363.00
C 354.50 362.36 348.67 364.30 345.00 362.00
C 349.20 359.90 354.39 361.50 359.00 361.00
C 358.87 355.29 350.86 352.87 351.00 347.00
C 354.26 348.82 355.68 352.34 358.00 355.00
C 360.91 350.41 357.08 342.52 360.00 338.00 Z"/>
</g>
<g fill="None" fill-opacity="0.0" stroke="#BD9774" stroke-opacity="0.22" stroke-width="0.3"><path d="
M 385.00 318.00 
C 387.16 318.69 390.72 318.00 393.00 318.00
C 393.00 318.00 393.07 317.01 393.00 317.00
C 390.79 317.00 388.16 316.60 386.00 317.00
C 385.65 317.07 385.26 317.77 385.00 318.00 Z"/>
</g>
<g fill="None" fill-opacity="0.0" stroke="#A69388" stroke-opacity="0.09" stroke-width="0.3"><path d="
M 439.00 318.00 
C 439.00 339.90 442.12 364.36 439.00 386.00
C 442.55 381.18 439.47 369.32 440.00 363.00 C 440.53 356.68 440.67 345.04 440.00 339.00 C 439.33 332.96 442.99 320.83 439.00 317.00
C 439.00 317.00 439.00 317.50 439.00 318.00 Z"/>
</g>
<g fill="None" fill-opacity="0.0" stroke="#B94319" stroke-opacity="0.99" stroke-width="0.3"><path d="
M 395.00 397.00 
C 395.50 397.00 396.50 397.01 397.00 397.00
C 409.93 396.66 425.81 391.00 438.00 387.00
C 434.79 377.00 438.77 363.69 438.00 353.00 C 437.23 342.31 437.03 328.79 438.00 318.00
C 436.00 318.00 434.00 318.00 432.00 318.00
C 420.72 323.51 407.03 323.87 395.00 328.00
C 395.52 335.44 394.31 343.64 395.00 351.00 C 395.69 358.36 393.67 366.92 395.00 374.00 C 396.33 381.08 392.16 390.60 395.00 397.00 Z"/>
</g>
<g fill="None" fill-opacity="0.0" stroke="#A74B2A" stroke-opacity="0.83" stroke-width="0.3"><path d="
M 438.00 387.00 
C 438.35 386.88 438.78 386.30 439.00 386.00
C 442.12 364.36 439.00 339.90 439.00 318.00
C 439.00 318.00 438.50 318.00 438.00 318.00
C 437.03 328.79 437.23 342.31 438.00 353.00 C 438.77 363.69 434.79 377.00 438.00 387.00 Z"/>
</g>
<g fill="None" fill-opacity="0.0" stroke="#C78A5F" stroke-opacity="0.27" stroke-width="0.3"><path d="
M 126.00 343.00 
C 126.72 338.96 125.40 334.33 125.00 331.00
C 125.07 334.49 126.22 340.34 126.00 343.00 Z"/>
</g>
<g fill="None" fill-opacity="0.0" stroke="#F5E2B8" stroke-opacity="1.00" stroke-width="0.3"><path d="
M 360.00 338.00 
C 357.08 342.52 360.91 350.41 358.00 355.00
C 355.68 352.34 354.26 348.82 351.00 347.00
C 350.86 352.87 358.87 355.29 359.00 361.00
C 354.39 361.50 349.20 359.90 345.00 362.00
C 348.67 364.30 354.50 362.36 359.00 363.00
C 360.18 369.41 356.00 376.31 359.00 382.00
C 361.12 377.43 360.28 371.05 362.00 366.00
C 367.34 370.07 367.13 379.73 374.00 382.00
C 371.62 375.83 366.67 370.64 365.00 364.00
C 369.97 362.10 376.47 364.22 381.00 362.00
C 376.47 359.89 370.96 361.51 366.00 361.00
C 365.88 355.19 372.53 352.37 373.00 347.00
C 367.73 349.35 366.24 357.28 362.00 361.00
C 359.66 353.75 362.50 345.20 360.00 338.00 Z"/>
</g>
<g fill="None" fill-opacity="0.0" stroke="#CE9B57" stroke-opacity="0.35" stroke-width="0.3"><path d="
M 131.00 359.00 
C 130.95 358.50 131.00 358.00 131.00 358.00
C 131.00 354.25 130.30 350.08 130.00 347.00
C 130.00 350.10 128.81 356.89 131.00 359.00 Z"/>
</g>
<g fill="None" fill-opacity="0.0" stroke="#C79965" stroke-opacity="0.22" stroke-width="0.3"><path d="
M 118.00 350.00 
C 116.07 350.23 113.95 350.00 112.00 350.00
C 112.00 350.00 111.50 349.98 111.00 350.00
C 113.06 352.14 115.93 350.56 118.00 350.00 Z"/>
</g>
<g fill="None" fill-opacity="0.0" stroke="#D66627" stroke-opacity="0.85" stroke-width="0.3"><path d="
M 131.00 359.00 
C 131.11 360.16 132.25 359.91 133.00 360.00
C 142.34 361.15 152.58 360.00 162.00 360.00
C 162.50 360.00 163.50 360.00 164.00 360.00
C 164.00 360.00 163.97 359.00 164.00 359.00
C 158.97 359.37 151.87 359.26 147.00 359.00 C 142.13 358.74 135.60 360.67 132.00 358.00
C 132.00 358.00 131.25 357.75 131.00 358.00
C 131.00 358.00 130.95 358.50 131.00 359.00 Z"/>
</g>
<g fill="None" fill-opacity="0.0" stroke="#C58C68" stroke-opacity="0.14" stroke-width="0.3"><path d="
M 162.00 361.00 
C 161.96 361.00 162.00 360.00 162.00 360.00
C 152.58 360.00 142.34 361.15 133.00 360.00
C 140.52 363.07 153.36 361.00 162.00 361.00 Z"/>
</g>
<g fill="None" fill-opacity="0.0" stroke="#BF7D55" stroke-opacity="0.35" stroke-width="0.3"><path d="
M 162.00 361.00 
C 168.33 361.00 174.67 361.00 181.00 361.00
C 180.96 361.00 181.00 360.00 181.00 360.00
C 175.33 360.00 169.67 360.00 164.00 360.00
C 163.50 360.00 162.50 360.00 162.00 360.00
C 162.00 360.00 161.96 361.00 162.00 361.00 Z"/>
</g>
<g fill="None" fill-opacity="0.0" stroke="#BF784A" stroke-opacity="0.52" stroke-width="0.3"><path d="
M 181.00 361.00 
C 185.00 361.00 190.50 360.00 194.00 362.00
C 194.38 362.22 195.00 362.00 195.00 362.00
C 195.25 361.75 195.00 361.00 195.00 361.00
C 190.52 360.58 185.83 360.00 181.00 360.00
C 181.00 360.00 180.96 361.00 181.00 361.00 Z"/>
</g>
<g fill="None" fill-opacity="0.0" stroke="#B67C62" stroke-opacity="0.27" stroke-width="0.3"><path d="
M 310.00 361.00 
C 309.76 361.20 310.00 362.00 310.00 362.00
C 310.25 362.25 311.00 362.00 311.00 362.00
C 314.82 359.82 322.04 360.87 326.00 360.00
C 320.53 360.00 315.12 360.52 310.00 361.00 Z"/>
</g>
<g fill="None" fill-opacity="0.0" stroke="#B39064" stroke-opacity="0.37" stroke-width="0.3"><path d="
M 330.00 396.00 
C 330.16 396.36 331.65 396.92 332.00 397.00
C 332.99 395.89 329.94 387.93 331.00 385.00 C 332.06 382.07 330.56 375.47 331.00 372.00 C 331.44 368.53 331.00 363.60 331.00 360.00
C 330.92 360.19 329.50 360.00 329.00 360.00
C 328.47 364.54 330.09 373.02 330.00 378.00 C 329.91 382.99 328.03 391.70 330.00 396.00 Z"/>
</g>
<g fill="None" fill-opacity="0.0" stroke="#8E421C" stroke-opacity="1.00" stroke-width="0.3"><path d="
M 195.00 362.00 
C 213.98 363.72 233.93 361.99 253.00 362.00
C 253.50 362.00 254.00 362.00 254.00 362.00
C 235.26 360.01 214.42 362.82 195.00 361.00
C 195.00 361.00 195.25 361.75 195.00 362.00 Z"/>
</g>
<g fill="None" fill-opacity="0.0" stroke="#8A3D1A" stroke-opacity="1.00" stroke-width="0.3"><path d="
M 260.00 362.00 
C 276.33 362.01 292.67 361.99 309.00 362.00
C 309.50 362.00 310.00 362.00 310.00 362.00
C 310.00 362.00 309.76 361.20 310.00 361.00
C 302.23 361.73 291.44 359.74 284.00 361.00 C 276.56 362.26 265.71 357.78 260.00 362.00 Z"/>
</g>
<g fill="None" fill-opacity="0.0" stroke="#121E22" stroke-opacity="0.96" stroke-width="0.3"><path d="
M 213.00 394.00 
C 215.50 394.31 218.49 394.17 221.00 394.00
C 226.54 393.62 231.56 391.30 236.00 388.00
C 238.82 385.54 242.59 381.77 245.00 379.00
C 248.38 374.46 253.57 367.75 254.00 362.00
C 254.00 362.00 253.50 362.00 253.00 362.00
C 247.72 365.90 230.90 362.99 224.00 363.00 C 217.10 363.01 200.22 365.86 195.00 362.00
C 195.00 362.00 194.38 362.22 194.00 362.00
C 192.12 374.01 201.31 391.11 213.00 394.00 Z"/>
</g>
<g fill="None" fill-opacity="0.0" stroke="#1C0E12" stroke-opacity="1.00" stroke-width="0.3"><path d="
M 253.00 362.00 
C 233.93 361.99 213.98 363.72 195.00 362.00
C 200.22 365.86 217.10 363.01 224.00 363.00 C 230.90 362.99 247.72 365.90 253.00 362.00 Z"/>
</g>
<g fill="None" fill-opacity="0.0" stroke="#121F23" stroke-opacity="0.95" stroke-width="0.3"><path d="
M 268.00 382.00 
C 270.16 384.48 273.58 387.89 276.00 390.00
C 293.93 403.33 306.60 389.46 309.00 371.00
C 309.41 367.87 309.63 365.13 310.00 362.00
C 310.00 362.00 309.50 362.00 309.00 362.00
C 304.46 365.36 291.04 363.11 285.00 363.00 C 278.96 362.89 264.63 365.42 260.00 362.00
C 260.00 362.00 259.50 362.00 259.00 362.00
C 258.68 368.02 264.50 377.29 268.00 382.00 Z"/>
</g>
<g fill="None" fill-opacity="0.0" stroke="#1C0F13" stroke-opacity="1.00" stroke-width="0.3"><path d="
M 309.00 362.00 
C 292.67 361.99 276.33 362.01 260.00 362.00
C 264.63 365.42 278.96 362.89 285.00 363.00 C 291.04 363.11 304.46 365.36 309.00 362.00 Z"/>
</g>
<g fill="None" fill-opacity="0.0" stroke="#6F7D80" stroke-opacity="0.23" stroke-width="0.3"><path d="
M 309.00 371.00 
C 309.61 368.39 311.22 365.24 311.00 362.00
C 311.00 362.00 310.25 362.25 310.00 362.00
C 309.63 365.13 309.41 367.87 309.00 371.00 Z"/>
</g>
<g fill="None" fill-opacity="0.0" stroke="#385259" stroke-opacity="0.15" stroke-width="0.3"><path d="
M 236.00 388.00 
C 239.28 385.56 242.52 382.33 245.00 379.00
C 242.59 381.77 238.82 385.54 236.00 388.00 Z"/>
</g>
<g fill="None" fill-opacity="0.0" stroke="#52686D" stroke-opacity="0.11" stroke-width="0.3"><path d="
M 276.00 390.00 
C 273.58 387.89 270.16 384.48 268.00 382.00
C 270.19 384.95 273.00 387.77 276.00 390.00 Z"/>
</g>
<g fill="None" fill-opacity="0.0" stroke="#354D55" stroke-opacity="0.10" stroke-width="0.3"><path d="
M 221.00 394.00 
C 218.49 394.17 215.50 394.31 213.00 394.00
C 215.97 394.74 218.03 394.53 221.00 394.00 Z"/>
</g>
<g fill="None" fill-opacity="0.0" stroke="#9D5A36" stroke-opacity="0.28" stroke-width="0.3"><path d="
M 397.00 397.00 
C 396.50 397.01 395.50 397.00 395.00 397.00
C 384.65 397.00 373.24 397.76 363.00 397.00 C 352.76 396.24 341.93 399.11 332.00 397.00
C 331.65 396.92 330.16 396.36 330.00 396.00
C 329.22 396.93 337.42 398.84 340.00 398.00 C 342.58 397.16 348.31 398.36 352.00 398.00 C 355.69 397.64 358.02 398.03 363.00 398.00 C 367.98 397.97 368.34 397.78 375.00 398.00 C 381.66 398.22 390.86 398.10 397.00 397.00 Z"/>
</g>
<g fill="#000000" fill-opacity="0.00" stroke="None">
<path d="
M 0.00 500.00 
L 500.00 500.00
L 500.00 0.00
L 0.00 0.00
L 0.00 500.00
M 125.00 91.00 
C 132.84 91.16 133.72 92.59 135.00 100.00
C 138.32 119.23 142.45 138.29 144.00 158.00
C 129.80 160.21 114.18 169.44 112.00 185.00
C 111.03 189.76 111.45 194.11 112.00 199.00
C 112.86 206.72 112.18 221.32 116.00 228.00
C 120.63 227.58 125.37 228.42 130.00 228.00
C 130.00 227.50 130.00 227.00 130.00 227.00
C 130.00 220.33 130.00 213.67 130.00 207.00
C 130.00 197.60 126.05 177.86 135.00 174.00
C 148.13 168.33 164.84 158.75 179.00 157.00
C 185.64 156.18 193.27 156.39 200.00 157.00 C 206.73 157.61 214.69 155.01 221.00 156.00
C 233.34 147.94 239.45 136.90 256.00 136.00
C 263.12 134.84 271.94 134.74 279.00 136.00
C 286.10 136.48 293.20 139.94 299.00 144.00
C 300.97 145.38 302.37 146.57 304.00 148.00
C 306.46 150.16 309.27 152.20 311.00 155.00
C 311.20 155.32 311.69 155.80 312.00 156.00
C 313.73 157.14 315.07 156.64 317.00 157.00
C 320.59 156.99 324.03 156.78 328.00 157.00
C 339.05 156.53 353.02 154.59 364.00 157.00
C 365.00 157.00 366.00 157.00 367.00 157.00
C 369.91 156.36 374.12 154.88 377.00 157.00
C 377.35 157.03 377.78 157.70 378.00 158.00
C 380.73 161.71 378.56 168.05 379.00 173.00 C 379.44 177.95 379.00 184.87 379.00 190.00
C 379.00 200.17 379.66 212.00 379.00 222.00 C 378.34 232.00 380.75 244.61 379.00 254.00 C 377.25 263.39 383.33 278.77 378.00 286.00
C 377.97 286.35 377.15 287.10 377.00 287.00
C 384.08 293.84 387.85 305.79 386.00 317.00
C 388.16 316.60 390.79 317.00 393.00 317.00
C 408.70 317.00 423.62 315.61 439.00 317.00
C 442.99 320.83 439.33 332.96 440.00 339.00 C 440.67 345.04 440.53 356.68 440.00 363.00 C 439.47 369.32 442.55 381.18 439.00 386.00
C 438.78 386.30 438.35 386.88 438.00 387.00
C 425.81 391.00 409.93 396.66 397.00 397.00
C 390.86 398.10 381.66 398.22 375.00 398.00 C 368.34 397.78 367.98 397.97 363.00 398.00 C 358.02 398.03 355.69 397.64 352.00 398.00 C 348.31 398.36 342.58 397.16 340.00 398.00 C 337.42 398.84 329.22 396.93 330.00 396.00
C 328.03 391.70 329.91 382.99 330.00 378.00 C 330.09 373.02 328.47 364.54 329.00 360.00
C 328.00 360.00 327.00 360.00 326.00 360.00
C 322.04 360.87 314.82 359.82 311.00 362.00
C 311.22 365.24 309.61 368.39 309.00 371.00
C 306.60 389.46 293.93 403.33 276.00 390.00
C 273.00 387.77 270.19 384.95 268.00 382.00
C 264.50 377.29 258.68 368.02 259.00 362.00
C 257.37 362.00 255.62 362.17 254.00 362.00
C 253.57 367.75 248.38 374.46 245.00 379.00
C 242.52 382.33 239.28 385.56 236.00 388.00
C 231.56 391.30 226.54 393.62 221.00 394.00
C 218.03 394.53 215.97 394.74 213.00 394.00
C 201.31 391.11 192.12 374.01 194.00 362.00
C 190.50 360.00 185.00 361.00 181.00 361.00
C 174.67 361.00 168.33 361.00 162.00 361.00
C 153.36 361.00 140.52 363.07 133.00 360.00
C 132.25 359.91 131.11 360.16 131.00 359.00
C 128.81 356.89 130.00 350.10 130.00 347.00
C 130.00 342.00 130.00 337.00 130.00 332.00
C 130.00 331.50 130.00 330.50 130.00 330.00
C 128.14 325.63 129.00 319.13 129.00 314.00
C 129.00 313.35 129.30 311.56 129.00 311.00
C 128.18 311.37 124.88 311.25 124.00 311.00
C 125.17 315.93 124.88 325.20 125.00 331.00
C 125.40 334.33 126.72 338.96 126.00 343.00
C 125.17 347.63 122.06 348.90 118.00 350.00
C 115.93 350.56 113.06 352.14 111.00 350.00
C 102.25 350.30 102.00 327.07 102.00 321.00
C 99.68 323.37 92.55 322.18 90.00 321.00
C 87.11 319.66 84.29 316.05 84.00 313.00
C 83.95 312.50 84.00 312.00 84.00 312.00
C 81.99 309.28 83.35 305.63 84.00 303.00
C 84.55 300.76 84.74 299.06 86.00 297.00
C 87.76 294.12 90.18 292.48 93.00 291.00
C 93.96 290.50 96.87 288.39 98.00 289.00
C 95.87 277.74 92.18 264.75 93.00 253.00
C 93.03 252.50 93.07 251.49 93.00 251.00
C 91.41 246.86 74.99 251.36 71.00 252.00
C 68.56 252.39 63.10 254.68 62.00 251.00
C 61.86 250.54 62.00 250.00 62.00 250.00
C 61.08 247.41 61.05 244.87 61.00 242.00
C 60.96 239.67 61.03 237.33 61.00 235.00
C 64.85 234.20 68.85 233.69 73.00 234.00
C 74.72 233.79 76.19 233.24 78.00 233.00
C 80.02 232.73 83.22 232.00 85.00 232.00
C 81.73 228.20 84.70 217.94 83.00 213.00 C 81.30 208.06 81.67 199.81 80.22 194.78 C 78.77 189.74 78.15 183.78 73.75 180.25 C 69.35 176.72 66.70 173.11 60.78 172.22 C 54.85 171.34 49.06 169.24 50.00 162.00 C 50.94 154.75 47.83 149.62 48.02 142.98 C 48.22 136.33 47.32 128.24 48.00 122.00 C 48.68 115.76 47.44 109.13 52.00 105.00
C 55.72 101.63 61.44 99.72 66.00 98.00
C 68.36 97.11 70.65 96.76 73.00 96.00
C 78.18 94.32 84.24 91.68 90.00 91.00
C 101.83 89.61 113.22 90.76 125.00 91.00 Z"/>
</g>
<g fill="#B1B3B4" fill-opacity="0.98" stroke="None">
<path d="
M 90.00 91.00 
C 92.98 100.15 93.00 114.07 91.00 122.00
C 92.28 122.28 94.50 121.24 95.00 123.00
C 100.03 122.44 106.27 120.93 111.07 121.07 C 115.88 121.21 124.26 118.10 128.00 119.00
C 126.79 115.60 131.47 110.64 129.99 106.99 C 128.52 103.34 133.01 96.24 131.00 93.00
C 129.90 92.22 126.15 91.14 125.00 91.00
C 113.22 90.76 101.83 89.61 90.00 91.00 Z"/>
</g>
<g fill="#CDCDCD" fill-opacity="0.99" stroke="None">
<path d="
M 73.00 96.00 
C 72.36 96.35 67.80 97.63 66.00 98.00
C 61.44 99.72 55.72 101.63 52.00 105.00
C 49.65 110.80 55.29 119.65 54.00 126.00 C 52.71 132.35 55.53 139.92 57.32 145.68 C 59.11 151.44 66.36 154.90 72.00 154.00
C 71.30 156.08 63.97 153.77 67.00 157.00
C 66.15 160.97 68.27 164.47 66.00 168.00
C 69.36 167.05 69.11 170.94 68.00 173.00
C 89.26 184.85 86.23 211.75 89.00 232.00
C 92.72 231.42 96.22 231.49 100.00 231.00
C 101.55 230.80 102.58 230.25 104.00 230.00
C 106.15 227.07 103.04 220.34 103.01 216.99 C 102.97 213.65 101.63 208.44 101.00 205.00
C 98.84 193.20 97.66 181.17 97.00 169.00
C 96.60 166.20 96.75 152.89 92.92 152.08 C 89.08 151.28 76.01 151.57 72.00 151.00
C 68.43 150.86 67.50 151.04 65.00 149.00
C 59.94 144.88 57.73 128.13 67.22 127.22 C 76.72 126.32 85.67 124.04 95.00 123.00
C 94.50 121.24 92.28 122.28 91.00 122.00
C 93.00 114.07 92.98 100.15 90.00 91.00
C 84.24 91.68 78.18 94.32 73.00 96.00 Z"/>
</g>
<g fill="#869293" fill-opacity="0.28" stroke="None">
<path d="
M 131.00 93.00 
C 132.53 94.08 134.31 97.75 135.00 100.00
C 133.72 92.59 132.84 91.16 125.00 91.00
C 126.15 91.14 129.90 92.22 131.00 93.00 Z"/>
</g>
<g fill="#48484A" fill-opacity="0.93" stroke="None">
<path d="
M 128.00 119.00 
C 129.37 119.33 130.40 120.93 131.00 122.00
C 141.38 140.49 122.37 145.39 110.00 150.00
C 108.91 150.41 107.42 151.62 106.00 152.00
C 107.00 152.10 109.31 153.95 111.00 153.00
C 108.59 171.40 102.50 189.48 104.00 208.00
C 101.99 205.82 103.76 199.58 101.00 205.00
C 101.63 208.44 102.97 213.65 103.01 216.99 C 103.04 220.34 106.15 227.07 104.00 230.00
C 107.92 229.32 112.05 229.21 116.00 229.00
C 116.01 229.00 116.00 228.00 116.00 228.00
C 112.18 221.32 112.86 206.72 112.00 199.00
C 110.55 193.34 109.83 190.60 112.00 185.00
C 114.18 169.44 129.80 160.21 144.00 158.00
C 142.45 138.29 138.32 119.23 135.00 100.00
C 134.31 97.75 132.53 94.08 131.00 93.00
C 133.01 96.24 128.52 103.34 129.99 106.99 C 131.47 110.64 126.79 115.60 128.00 119.00 Z"/>
</g>
<g fill="#B5C4C5" fill-opacity="0.39" stroke="None">
<path d="
M 66.00 98.00 
C 67.80 97.63 72.36 96.35 73.00 96.00
C 70.65 96.76 68.36 97.11 66.00 98.00 Z"/>
</g>
<g fill="#EAECEC" fill-opacity="0.87" stroke="None">
<path d="
M 85.00 232.00 
C 86.04 232.00 87.80 232.19 89.00 232.00
C 86.23 211.75 89.26 184.85 68.00 173.00
C 69.11 170.94 69.36 167.05 66.00 168.00
C 68.27 164.47 66.15 160.97 67.00 157.00
C 63.97 153.77 71.30 156.08 72.00 154.00
C 66.36 154.90 59.11 151.44 57.32 145.68 C 55.53 139.92 52.71 132.35 54.00 126.00 C 55.29 119.65 49.65 110.80 52.00 105.00
C 47.44 109.13 48.68 115.76 48.00 122.00 C 47.32 128.24 48.22 136.33 48.02 142.98 C 47.83 149.62 50.94 154.75 50.00 162.00 C 49.06 169.24 54.85 171.34 60.78 172.22 C 66.70 173.11 69.35 176.72 73.75 180.25 C 78.15 183.78 78.77 189.74 80.22 194.78 C 81.67 199.81 81.30 208.06 83.00 213.00 C 84.70 217.94 81.73 228.20 85.00 232.00 Z"/>
</g>
<g fill="#6B6A6A" fill-opacity="1.00" stroke="None">
<path d="
M 95.00 123.00 
C 85.67 124.04 76.72 126.32 67.22 127.22 C 57.73 128.13 59.94 144.88 65.00 149.00
C 62.53 145.82 63.30 139.69 63.00 134.00 C 62.70 128.31 72.69 128.56 77.00 128.00
C 89.68 126.35 102.21 124.59 115.00 123.00
C 118.53 122.56 128.30 119.72 131.00 122.00
C 130.40 120.93 129.37 119.33 128.00 119.00
C 124.26 118.10 115.88 121.21 111.07 121.07 C 106.27 120.93 100.03 122.44 95.00 123.00 Z"/>
</g>
<g fill="#B0B0B0" fill-opacity="1.00" stroke="None">
<path d="
M 115.00 123.00 
C 113.52 123.33 111.14 124.80 109.00 124.00
C 107.79 132.50 109.57 143.56 106.00 150.00
C 107.33 150.00 108.67 150.00 110.00 150.00
C 122.37 145.39 141.38 140.49 131.00 122.00
C 128.30 119.72 118.53 122.56 115.00 123.00 Z"/>
</g>
<g fill="#999A9A" fill-opacity="1.00" stroke="None">
<path d="
M 77.00 128.00 
C 77.02 135.30 77.19 145.73 81.00 151.00
C 78.00 151.00 75.00 151.00 72.00 151.00
C 76.01 151.57 89.08 151.28 92.92 152.08 C 96.75 152.89 96.60 166.20 97.00 169.00
C 96.73 163.99 95.46 159.23 96.00 154.00
C 99.34 153.43 102.43 151.81 106.00 152.00
C 107.42 151.62 108.91 150.41 110.00 150.00
C 108.67 150.00 107.33 150.00 106.00 150.00
C 109.57 143.56 107.79 132.50 109.00 124.00
C 111.14 124.80 113.52 123.33 115.00 123.00
C 102.21 124.59 89.68 126.35 77.00 128.00 Z"/>
</g>
<g fill="#838585" fill-opacity="1.00" stroke="None">
<path d="
M 65.00 149.00 
C 67.50 151.04 68.43 150.86 72.00 151.00
C 75.00 151.00 78.00 151.00 81.00 151.00
C 77.19 145.73 77.02 135.30 77.00 128.00
C 72.69 128.56 62.70 128.31 63.00 134.00 C 63.30 139.69 62.53 145.82 65.00 149.00 Z"/>
</g>
<g fill="#4F6264" fill-opacity="0.32" stroke="None">
<path d="
M 256.00 136.00 
C 263.47 135.59 271.53 135.49 279.00 136.00
C 271.94 134.74 263.12 134.84 256.00 136.00 Z"/>
</g>
<g fill="#162327" fill-opacity="0.89" stroke="None">
<path d="
M 221.00 156.00 
C 220.77 156.15 221.00 157.00 221.00 157.00
C 220.66 159.05 219.28 160.99 219.00 163.00
C 218.96 163.31 219.66 163.99 220.00 164.00
C 223.07 162.69 234.92 160.47 236.00 157.00
C 234.70 155.89 235.26 156.05 236.00 155.00
C 241.46 147.32 254.67 143.94 263.00 142.00
C 266.02 141.30 268.03 141.31 271.00 142.00
C 280.08 144.11 287.57 148.20 295.00 154.00
C 295.84 154.65 296.32 155.35 297.00 156.00
C 297.32 155.76 298.00 156.00 298.00 156.00
C 301.98 157.19 298.16 161.16 303.00 162.00
C 305.65 160.98 310.33 160.30 312.00 158.00
C 310.19 157.93 308.00 152.28 305.75 151.25 C 303.50 150.22 300.82 145.59 299.00 144.00
C 293.20 139.94 286.10 136.48 279.00 136.00
C 271.53 135.49 263.47 135.59 256.00 136.00
C 239.45 136.90 233.34 147.94 221.00 156.00 Z"/>
</g>
<g fill="#3B5155" fill-opacity="0.35" stroke="None">
<path d="
M 263.00 142.00 
C 265.45 141.73 268.55 141.73 271.00 142.00
C 268.03 141.31 266.02 141.30 263.00 142.00 Z"/>
</g>
<g fill="#000000" fill-opacity="0.00" stroke="None">
<path d="
M 236.00 155.00 
C 238.28 154.18 244.80 158.50 249.00 157.00 C 253.20 155.50 259.28 157.51 264.00 157.00 C 268.72 156.49 275.13 157.00 280.00 157.00
C 281.70 156.84 286.76 154.52 289.00 156.00 C 291.24 157.48 297.10 154.22 295.00 154.00
C 287.57 148.20 280.08 144.11 271.00 142.00
C 268.55 141.73 265.45 141.73 263.00 142.00
C 254.67 143.94 241.46 147.32 236.00 155.00 Z"/>
</g>
<g fill="#344749" fill-opacity="0.48" stroke="None">
<path d="
M 312.00 158.00 
C 312.43 157.40 312.90 156.96 312.00 156.00
C 311.69 155.80 311.20 155.32 311.00 155.00
C 308.33 152.92 306.27 150.34 304.00 148.00
C 302.37 146.57 300.97 145.38 299.00 144.00
C 300.82 145.59 303.50 150.22 305.75 151.25 C 308.00 152.28 310.19 157.93 312.00 158.00 Z"/>
</g>
<g fill="#758691" fill-opacity="0.09" stroke="None">
<path d="
M 311.00 155.00 
C 309.27 152.20 306.46 150.16 304.00 148.00
C 306.27 150.34 308.33 152.92 311.00 155.00 Z"/>
</g>
<g fill="#5C5C5E" fill-opacity="1.00" stroke="None">
<path d="
M 97.00 169.00 
C 97.66 181.17 98.84 193.20 101.00 205.00
C 103.76 199.58 101.99 205.82 104.00 208.00
C 102.50 189.48 108.59 171.40 111.00 153.00
C 109.31 153.95 107.00 152.10 106.00 152.00
C 102.43 151.81 99.34 153.43 96.00 154.00
C 95.46 159.23 96.73 163.99 97.00 169.00 Z"/>
</g>
<g fill="#978774" fill-opacity="0.18" stroke="None">
<path d="
M 280.00 157.00 
C 280.50 157.00 281.00 157.00 281.00 157.00
C 285.39 157.00 293.70 158.44 297.00 156.00
C 296.32 155.35 295.84 154.65 295.00 154.00
C 297.10 154.22 291.24 157.48 289.00 156.00 C 286.76 154.52 281.70 156.84 280.00 157.00 Z"/>
</g>
<g fill="#886548" fill-opacity="0.54" stroke="None">
<path d="
M 236.00 157.00 
C 240.91 161.20 251.62 156.68 258.00 158.00 C 264.38 159.32 275.13 157.57 281.00 157.00
C 281.00 157.00 280.50 157.00 280.00 157.00
C 275.13 157.00 268.72 156.49 264.00 157.00 C 259.28 157.51 253.20 155.50 249.00 157.00 C 244.80 158.50 238.28 154.18 236.00 155.00
C 235.26 156.05 234.70 155.89 236.00 157.00 Z"/>
</g>
<g fill="#936744" fill-opacity="0.62" stroke="None">
<path d="
M 179.00 157.00 
C 191.70 156.65 208.05 160.74 221.00 157.00
C 221.00 157.00 220.77 156.15 221.00 156.00
C 214.69 155.01 206.73 157.61 200.00 157.00 C 193.27 156.39 185.64 156.18 179.00 157.00 Z"/>
</g>
<g fill="#8C4A15" fill-opacity="0.99" stroke="None">
<path d="
M 281.00 157.00 
C 275.13 157.57 264.38 159.32 258.00 158.00 C 251.62 156.68 240.91 161.20 236.00 157.00
C 234.92 160.47 223.07 162.69 220.00 164.00
C 211.69 167.54 203.11 171.87 194.00 174.00
C 200.88 168.04 211.04 167.52 219.00 163.00
C 219.28 160.99 220.66 159.05 221.00 157.00
C 208.05 160.74 191.70 156.65 179.00 157.00
C 164.84 158.75 148.13 168.33 135.00 174.00
C 127.37 178.72 131.00 197.62 131.00 206.00
C 149.39 204.32 168.54 206.52 187.00 206.00 C 205.46 205.48 225.38 205.29 243.00 207.00
C 249.00 207.00 255.00 207.00 261.00 207.00
C 270.90 207.00 282.25 208.11 292.00 207.00 C 301.75 205.89 313.78 209.95 323.00 207.00
C 322.78 206.96 322.35 206.05 322.00 206.00
C 296.53 202.33 269.60 208.75 244.00 206.00
C 244.00 195.33 244.00 184.67 244.00 174.00
C 263.84 175.75 280.90 167.03 299.00 162.00
C 299.06 159.88 299.23 157.77 298.00 156.00
C 298.00 156.00 297.32 155.76 297.00 156.00
C 293.70 158.44 285.39 157.00 281.00 157.00 Z"/>
</g>
<g fill="#532A12" fill-opacity="1.00" stroke="None">
<path d="
M 322.00 206.00 
C 323.33 196.04 323.09 185.35 323.00 175.00
C 324.28 174.72 326.50 175.76 327.00 174.00
C 308.84 177.19 287.50 172.44 270.00 173.00
C 281.29 170.51 292.29 165.28 303.00 162.00
C 298.16 161.16 301.98 157.19 298.00 156.00
C 299.23 157.77 299.06 159.88 299.00 162.00
C 280.90 167.03 263.84 175.75 244.00 174.00
C 244.00 184.67 244.00 195.33 244.00 206.00
C 269.60 208.75 296.53 202.33 322.00 206.00 Z"/>
</g>
<g fill="#7D3E18" fill-opacity="1.00" stroke="None">
<path d="
M 312.00 158.00 
C 310.33 160.30 305.65 160.98 303.00 162.00
C 292.29 165.28 281.29 170.51 270.00 173.00
C 287.50 172.44 308.84 177.19 327.00 174.00
C 333.72 170.45 341.84 168.17 349.22 166.22 C 356.61 164.28 365.21 159.83 372.00 158.00
C 354.25 158.00 333.79 160.13 317.00 157.00
C 315.07 156.64 313.73 157.14 312.00 156.00
C 312.90 156.96 312.43 157.40 312.00 158.00 Z"/>
</g>
<g fill="#7B563D" fill-opacity="0.73" stroke="None">
<path d="
M 317.00 157.00 
C 333.79 160.13 354.25 158.00 372.00 158.00
C 372.85 158.00 375.29 158.43 376.00 158.00
C 375.76 157.68 376.00 157.00 376.00 157.00
C 373.00 157.00 370.00 157.00 367.00 157.00
C 366.00 157.00 365.00 157.00 364.00 157.00
C 352.06 157.00 339.92 157.65 328.00 157.00
C 324.03 156.78 320.59 156.99 317.00 157.00 Z"/>
</g>
<g fill="#BBBAB7" fill-opacity="0.02" stroke="None">
<path d="
M 328.00 157.00 
C 339.92 157.65 352.06 157.00 364.00 157.00
C 353.02 154.59 339.05 156.53 328.00 157.00 Z"/>
</g>
<g fill="#ADADAD" fill-opacity="0.04" stroke="None">
<path d="
M 367.00 157.00 
C 370.00 157.00 373.00 157.00 376.00 157.00
C 376.50 157.00 377.00 157.00 377.00 157.00
C 374.12 154.88 369.91 156.36 367.00 157.00 Z"/>
</g>
<g fill="#38211F" fill-opacity="0.79" stroke="None">
<path d="
M 376.00 158.00 
C 380.61 164.23 376.27 181.99 377.00 190.00
C 377.00 189.96 378.00 190.00 378.00 190.00
C 377.05 179.49 379.51 168.43 378.00 158.00
C 377.78 157.70 377.35 157.03 377.00 157.00
C 377.00 157.00 376.50 157.00 376.00 157.00
C 376.00 157.00 375.76 157.68 376.00 158.00 Z"/>
</g>
<g fill="#391814" fill-opacity="1.00" stroke="None">
<path d="
M 327.00 174.00 
C 326.50 175.76 324.28 174.72 323.00 175.00
C 323.09 185.35 323.33 196.04 322.00 206.00
C 322.35 206.05 322.78 206.96 323.00 207.00
C 332.22 208.82 341.18 200.38 350.07 199.07 C 358.97 197.77 368.24 192.25 377.00 190.00
C 376.27 181.99 380.61 164.23 376.00 158.00
C 375.29 158.43 372.85 158.00 372.00 158.00
C 365.21 159.83 356.61 164.28 349.22 166.22 C 341.84 168.17 333.72 170.45 327.00 174.00 Z"/>
</g>
<g fill="#808688" fill-opacity="0.08" stroke="None">
<path d="
M 378.00 190.00 
C 378.00 189.96 379.00 190.00 379.00 190.00
C 379.00 184.87 379.44 177.95 379.00 173.00 C 378.56 168.05 380.73 161.71 378.00 158.00
C 379.51 168.43 377.05 179.49 378.00 190.00 Z"/>
</g>
<g fill="#702F10" fill-opacity="1.00" stroke="None">
<path d="
M 220.00 164.00 
C 219.66 163.99 218.96 163.31 219.00 163.00
C 211.04 167.52 200.88 168.04 194.00 174.00
C 203.11 171.87 211.69 167.54 220.00 164.00 Z"/>
</g>
<g fill="#977F60" fill-opacity="0.25" stroke="None">
<path d="
M 130.00 207.00 
C 130.00 206.96 131.00 207.00 131.00 207.00
C 131.25 206.75 131.00 206.00 131.00 206.00
C 131.00 197.62 127.37 178.72 135.00 174.00
C 126.05 177.86 130.00 197.60 130.00 207.00 Z"/>
</g>
<g fill="#707577" fill-opacity="0.33" stroke="None">
<path d="
M 112.00 199.00 
C 111.45 194.11 111.03 189.76 112.00 185.00
C 109.83 190.60 110.55 193.34 112.00 199.00 Z"/>
</g>
<g fill="#C44816" fill-opacity="1.00" stroke="None">
<path d="
M 323.00 207.00 
C 323.00 257.00 323.00 307.00 323.00 357.00
C 272.16 359.31 220.25 357.35 169.00 358.00
C 167.39 358.22 165.84 358.86 164.00 359.00
C 163.97 359.00 164.00 360.00 164.00 360.00
C 169.67 360.00 175.33 360.00 181.00 360.00
C 185.83 360.00 190.52 360.58 195.00 361.00
C 214.42 362.82 235.26 360.01 254.00 362.00
C 255.62 362.17 257.37 362.00 259.00 362.00
C 259.50 362.00 260.00 362.00 260.00 362.00
C 265.71 357.78 276.56 362.26 284.00 361.00 C 291.44 359.74 302.23 361.73 310.00 361.00
C 315.12 360.52 320.53 360.00 326.00 360.00
C 327.00 360.00 328.00 360.00 329.00 360.00
C 329.50 360.00 330.92 360.19 331.00 360.00
C 331.00 349.33 331.00 338.67 331.00 328.00
C 344.30 327.99 356.73 315.54 369.00 319.00
C 362.15 313.47 350.99 314.45 349.00 303.00
C 348.92 302.51 349.00 301.50 349.00 301.00
C 347.96 298.55 347.62 295.11 348.00 292.00
C 349.83 277.26 367.47 274.29 377.00 284.00
C 374.83 268.89 377.30 252.30 377.00 237.00 C 376.70 221.70 375.62 205.25 377.00 190.00
C 368.24 192.25 358.97 197.77 350.07 199.07 C 341.18 200.38 332.22 208.82 323.00 207.00
M 350.00 220.00 
C 355.81 222.59 349.69 236.52 352.00 241.00 C 354.31 245.48 350.43 259.47 343.99 256.99 C 337.56 254.51 344.17 240.62 342.00 236.00 C 339.83 231.38 342.34 216.58 350.00 220.00 Z"/>
</g>
<g fill="#B64C26" fill-opacity="0.83" stroke="None">
<path d="
M 377.00 284.00 
C 377.25 284.25 377.88 284.74 378.00 285.00
C 378.00 253.78 380.83 221.08 378.00 190.00
C 378.00 190.00 377.00 189.96 377.00 190.00
C 375.62 205.25 376.70 221.70 377.00 237.00 C 377.30 252.30 374.83 268.89 377.00 284.00 Z"/>
</g>
<g fill="#AE9383" fill-opacity="0.09" stroke="None">
<path d="
M 378.00 285.00 
C 378.00 285.50 378.00 286.00 378.00 286.00
C 383.33 278.77 377.25 263.39 379.00 254.00 C 380.75 244.61 378.34 232.00 379.00 222.00 C 379.66 212.00 379.00 200.17 379.00 190.00
C 379.00 190.00 378.00 189.96 378.00 190.00
C 380.83 221.08 378.00 253.78 378.00 285.00 Z"/>
</g>
<g fill="#C0691A" fill-opacity="1.00" stroke="None">
<path d="
M 131.00 207.00 
C 143.43 208.12 156.51 207.00 169.00 207.00
C 193.67 207.00 218.33 207.00 243.00 207.00
C 225.38 205.29 205.46 205.48 187.00 206.00 C 168.54 206.52 149.39 204.32 131.00 206.00
C 131.00 206.00 131.25 206.75 131.00 207.00 Z"/>
</g>
<g fill="#DF9C4C" fill-opacity="0.53" stroke="None">
<path d="
M 130.00 227.00 
C 132.66 223.41 131.43 211.76 131.00 207.00
C 131.00 207.00 130.00 206.96 130.00 207.00
C 130.00 213.67 130.00 220.33 130.00 227.00 Z"/>
</g>
<g fill="#FE9316" fill-opacity="1.00" stroke="None">
<path d="
M 130.00 227.00 
C 130.00 227.00 130.00 227.50 130.00 228.00
C 130.00 228.50 130.00 229.00 130.00 229.00
C 130.00 233.60 129.57 238.43 130.00 243.00
C 130.85 252.04 131.00 261.59 131.00 271.00
C 131.00 274.23 130.27 277.11 130.00 280.00
C 129.12 289.42 129.12 300.58 130.00 310.00
C 130.69 317.32 130.67 325.09 130.00 332.00
C 130.00 337.00 130.00 342.00 130.00 347.00
C 130.30 350.08 131.00 354.25 131.00 358.00
C 131.25 357.75 132.00 358.00 132.00 358.00
C 136.38 354.76 144.37 357.93 150.00 357.00 C 155.63 356.07 163.20 357.70 169.00 357.00
C 168.90 306.85 169.16 256.49 169.00 207.00
C 156.51 207.00 143.43 208.12 131.00 207.00
C 131.43 211.76 132.66 223.41 130.00 227.00 Z"/>
</g>
<g fill="#F48216" fill-opacity="1.00" stroke="None">
<path d="
M 132.00 358.00 
C 135.60 360.67 142.13 358.74 147.00 359.00 C 151.87 359.26 158.97 359.37 164.00 359.00
C 165.84 358.86 167.39 358.22 169.00 358.00
C 182.88 354.40 199.12 358.12 214.00 357.00 C 228.88 355.88 245.00 357.84 260.00 357.00
C 259.56 306.60 260.97 256.63 261.00 207.00
C 255.00 207.00 249.00 207.00 243.00 207.00
C 218.33 207.00 193.67 207.00 169.00 207.00
C 169.16 256.49 168.90 306.85 169.00 357.00
C 163.20 357.70 155.63 356.07 150.00 357.00 C 144.37 357.93 136.38 354.76 132.00 358.00
M 191.00 226.00 
C 183.51 227.23 177.32 231.50 172.00 237.00
C 169.93 229.15 184.84 220.57 191.00 226.00
M 182.00 274.00 
C 181.52 272.83 181.10 272.35 181.00 271.00
C 179.82 267.51 180.16 264.40 181.00 261.00
C 186.21 239.95 209.77 239.87 213.99 261.01 C 218.21 282.15 190.43 294.47 182.00 274.00
M 251.00 304.00 
C 247.03 310.03 230.89 309.92 225.00 306.00
C 216.74 300.51 216.75 290.13 217.00 281.00
C 228.08 280.86 238.89 281.18 250.00 281.00 C 261.11 280.82 255.71 298.40 251.00 304.00 Z"/>
</g>
<g fill="#E57415" fill-opacity="1.00" stroke="None">
<path d="
M 169.00 358.00 
C 220.25 357.35 272.16 359.31 323.00 357.00
C 323.00 307.00 323.00 257.00 323.00 207.00
C 313.78 209.95 301.75 205.89 292.00 207.00 C 282.25 208.11 270.90 207.00 261.00 207.00
C 260.97 256.63 259.56 306.60 260.00 357.00
C 245.00 357.84 228.88 355.88 214.00 357.00 C 199.12 358.12 182.88 354.40 169.00 358.00
M 296.00 237.00 
C 291.77 230.48 284.13 226.84 277.00 226.00
C 283.59 220.25 297.95 229.09 296.00 237.00
M 287.00 244.00 
C 298.21 247.40 300.97 268.82 293.68 278.68 C 286.39 288.53 266.98 284.14 265.03 270.98 C 263.07 257.81 271.58 239.32 287.00 244.00 Z"/>
</g>
<g fill="#5F1F11" fill-opacity="1.00" stroke="None">
<path d="
M 350.00 220.00 
C 342.34 216.58 339.83 231.38 342.00 236.00 C 344.17 240.62 337.56 254.51 343.99 256.99 C 350.43 259.47 354.31 245.48 352.00 241.00 C 349.69 236.52 355.81 222.59 350.00 220.00 Z"/>
</g>
<g fill="#472619" fill-opacity="1.00" stroke="None">
<path d="
M 191.00 226.00 
C 184.84 220.57 169.93 229.15 172.00 237.00
C 177.32 231.50 183.51 227.23 191.00 226.00 Z"/>
</g>
<g fill="#42261C" fill-opacity="1.00" stroke="None">
<path d="
M 296.00 237.00 
C 297.95 229.09 283.59 220.25 277.00 226.00
C 284.13 226.84 291.77 230.48 296.00 237.00 Z"/>
</g>
<g fill="#B2927A" fill-opacity="0.18" stroke="None">
<path d="
M 116.00 229.00 
C 120.64 228.75 125.37 229.42 130.00 229.00
C 130.00 229.00 130.00 228.50 130.00 228.00
C 125.37 228.42 120.63 227.58 116.00 228.00
C 116.00 228.00 116.01 229.00 116.00 229.00 Z"/>
</g>
<g fill="#DF6E1E" fill-opacity="0.96" stroke="None">
<path d="
M 104.00 230.00 
C 102.58 230.25 101.55 230.80 100.00 231.00
C 95.79 234.33 102.26 242.84 100.00 247.00
C 96.77 246.94 91.57 245.95 93.00 251.00
C 93.07 251.49 93.03 252.50 93.00 253.00
C 98.84 255.59 103.25 250.24 104.33 258.67 C 105.40 267.11 105.02 263.78 106.98 273.02 C 108.93 282.27 109.80 293.42 110.99 303.01 C 112.18 312.59 113.72 323.60 114.99 333.01 C 116.26 342.42 115.57 341.03 115.00 349.00
C 114.00 349.11 112.27 348.53 112.00 350.00
C 113.95 350.00 116.07 350.23 118.00 350.00
C 122.06 348.90 125.17 347.63 126.00 343.00
C 126.22 340.34 125.07 334.49 125.00 331.00
C 124.88 325.20 125.17 315.93 124.00 311.00
C 122.88 306.28 115.86 290.37 121.00 284.00
C 117.01 280.48 116.60 265.35 116.00 260.00
C 115.59 257.99 115.00 255.63 115.00 253.00
C 114.82 250.68 115.13 248.32 115.00 246.00
C 119.01 245.43 122.96 244.57 127.00 244.00
C 127.76 243.75 128.60 242.40 130.00 243.00
C 129.57 238.43 130.00 233.60 130.00 229.00
C 125.37 229.42 120.64 228.75 116.00 229.00
C 112.05 229.21 107.92 229.32 104.00 230.00 Z"/>
</g>
<g fill="#F59625" fill-opacity="0.95" stroke="None">
<path d="
M 89.00 232.00 
C 87.80 232.19 86.04 232.00 85.00 232.00
C 83.22 232.00 80.02 232.73 78.00 233.00
C 75.96 233.49 75.22 234.05 73.00 234.00
C 68.85 233.69 64.85 234.20 61.00 235.00
C 61.03 237.33 60.96 239.67 61.00 242.00
C 61.32 244.56 63.83 247.49 62.00 250.00
C 62.00 250.00 61.86 250.54 62.00 251.00
C 63.78 252.49 69.58 252.07 71.00 252.00
C 74.99 251.36 91.41 246.86 93.00 251.00
C 91.57 245.95 96.77 246.94 100.00 247.00
C 102.26 242.84 95.79 234.33 100.00 231.00
C 96.22 231.49 92.72 231.42 89.00 232.00 Z"/>
</g>
<g fill="#CFA05E" fill-opacity="0.53" stroke="None">
<path d="
M 73.00 234.00 
C 75.22 234.05 75.96 233.49 78.00 233.00
C 76.19 233.24 74.72 233.79 73.00 234.00 Z"/>
</g>
<g fill="#C1A878" fill-opacity="0.29" stroke="None">
<path d="
M 62.00 250.00 
C 63.83 247.49 61.32 244.56 61.00 242.00
C 61.05 244.87 61.08 247.41 62.00 250.00 Z"/>
</g>
<g fill="#DF9544" fill-opacity="0.68" stroke="None">
<path d="
M 127.00 244.00 
C 129.84 244.69 129.48 245.28 130.00 248.00
C 131.11 253.85 130.00 261.03 130.00 267.00
C 130.00 268.33 129.99 269.67 130.00 271.00
C 130.13 271.22 131.00 271.00 131.00 271.00
C 131.00 261.59 130.85 252.04 130.00 243.00
C 128.60 242.40 127.76 243.75 127.00 244.00 Z"/>
</g>
<g fill="#000000" fill-opacity="0.00" stroke="None">
<path d="
M 115.00 253.00 
C 115.12 254.53 115.76 257.88 116.00 260.00
C 116.60 265.35 117.01 280.48 121.00 284.00
C 121.28 284.25 122.00 284.00 122.00 284.00
C 123.28 281.96 125.78 280.87 128.00 280.00
C 128.43 279.83 129.00 280.00 129.00 280.00
C 130.34 277.46 130.01 273.92 130.00 271.00
C 129.99 269.67 130.00 268.33 130.00 267.00
C 129.24 261.44 130.50 253.14 130.00 248.00
C 129.48 245.28 129.84 244.69 127.00 244.00
C 122.96 244.57 119.01 245.43 115.00 246.00
C 115.13 248.32 114.82 250.68 115.00 253.00 Z"/>
</g>
<g fill="#1A2022" fill-opacity="1.00" stroke="None">
<path d="
M 181.00 261.00 
C 180.68 263.58 181.00 266.40 181.00 269.00
C 181.13 269.73 181.97 273.86 182.00 274.00
C 190.43 294.47 218.21 282.15 213.99 261.01 C 209.77 239.87 186.21 239.95 181.00 261.00
M 202.00 247.00 
C 210.32 249.11 202.69 264.33 195.00 261.00 C 187.30 257.67 193.28 244.79 202.00 247.00
M 208.00 261.00 
C 208.13 258.25 205.80 255.56 208.00 253.00
C 209.50 254.64 209.72 259.43 208.00 261.00 Z"/>
</g>
<g fill="#191D21" fill-opacity="1.00" stroke="None">
<path d="
M 287.00 244.00 
C 271.58 239.32 263.07 257.81 265.03 270.98 C 266.98 284.14 286.39 288.53 293.68 278.68 C 300.97 268.82 298.21 247.40 287.00 244.00
M 287.00 247.00 
C 294.36 249.76 286.94 264.60 279.33 260.67 C 271.72 256.74 278.18 243.70 287.00 247.00 Z"/>
</g>
<g fill="#E9ECEC" fill-opacity="1.00" stroke="None">
<path d="
M 202.00 247.00 
C 193.28 244.79 187.30 257.67 195.00 261.00 C 202.69 264.33 210.32 249.11 202.00 247.00 Z"/>
</g>
<g fill="#EBECEB" fill-opacity="1.00" stroke="None">
<path d="
M 287.00 247.00 
C 278.18 243.70 271.72 256.74 279.33 260.67 C 286.94 264.60 294.36 249.76 287.00 247.00 Z"/>
</g>
<g fill="#C5B298" fill-opacity="0.04" stroke="None">
<path d="
M 130.00 267.00 
C 130.00 261.03 131.11 253.85 130.00 248.00
C 130.50 253.14 129.24 261.44 130.00 267.00 Z"/>
</g>
<g fill="#D0A466" fill-opacity="0.29" stroke="None">
<path d="
M 71.00 252.00 
C 69.58 252.07 63.78 252.49 62.00 251.00
C 63.10 254.68 68.56 252.39 71.00 252.00 Z"/>
</g>
<g fill="#F79E20" fill-opacity="0.95" stroke="None">
<path d="
M 98.00 289.00 
C 98.95 294.03 99.78 298.68 100.00 304.00
C 100.58 307.06 101.61 310.34 102.00 314.00
C 102.23 316.19 102.00 318.44 102.00 321.00
C 102.00 327.07 102.25 350.30 111.00 350.00
C 111.50 349.98 112.00 350.00 112.00 350.00
C 112.27 348.53 114.00 349.11 115.00 349.00
C 115.57 341.03 116.26 342.42 114.99 333.01 C 113.72 323.60 112.18 312.59 110.99 303.01 C 109.80 293.42 108.93 282.27 106.98 273.02 C 105.02 263.78 105.40 267.11 104.33 258.67 C 103.25 250.24 98.84 255.59 93.00 253.00
C 92.18 264.75 95.87 277.74 98.00 289.00 Z"/>
</g>
<g fill="#C79072" fill-opacity="0.25" stroke="None">
<path d="
M 116.00 260.00 
C 115.76 257.88 115.12 254.53 115.00 253.00
C 115.00 255.63 115.59 257.99 116.00 260.00 Z"/>
</g>
<g fill="#455353" fill-opacity="1.00" stroke="None">
<path d="
M 208.00 261.00 
C 209.72 259.43 209.50 254.64 208.00 253.00
C 205.80 255.56 208.13 258.25 208.00 261.00 Z"/>
</g>
<g fill="#8C531D" fill-opacity="1.00" stroke="None">
<path d="
M 181.00 271.00 
C 180.96 270.50 181.00 269.50 181.00 269.00
C 181.00 266.40 180.68 263.58 181.00 261.00
C 180.16 264.40 179.82 267.51 181.00 271.00 Z"/>
</g>
<g fill="#30201A" fill-opacity="1.00" stroke="None">
<path d="
M 181.00 271.00 
C 181.10 272.35 181.52 272.83 182.00 274.00
C 181.97 273.86 181.13 269.73 181.00 269.00
C 181.00 269.50 180.96 270.50 181.00 271.00 Z"/>
</g>
<g fill="#D7A367" fill-opacity="0.47" stroke="None">
<path d="
M 129.00 280.00 
C 129.50 280.00 130.00 280.00 130.00 280.00
C 130.27 277.11 131.00 274.23 131.00 271.00
C 131.00 271.00 130.13 271.22 130.00 271.00
C 130.01 273.92 130.34 277.46 129.00 280.00 Z"/>
</g>
<g fill="#853921" fill-opacity="0.98" stroke="None">
<path d="
M 348.00 292.00 
C 349.84 283.10 358.79 277.68 367.00 280.00
C 371.70 281.33 373.62 283.73 377.00 287.00
C 377.15 287.10 377.97 286.35 378.00 286.00
C 378.00 286.00 378.00 285.50 378.00 285.00
C 377.88 284.74 377.25 284.25 377.00 284.00
C 367.47 274.29 349.83 277.26 348.00 292.00 Z"/>
</g>
<g fill="#3F2019" fill-opacity="1.00" stroke="None">
<path d="
M 348.00 292.00 
C 347.62 295.11 347.96 298.55 349.00 301.00
C 349.00 289.65 353.07 277.88 367.00 280.00
C 358.79 277.68 349.84 283.10 348.00 292.00 Z"/>
</g>
<g fill="#678185" fill-opacity="0.27" stroke="None">
<path d="
M 122.00 284.00 
C 124.58 283.43 126.27 281.80 128.00 280.00
C 125.78 280.87 123.28 281.96 122.00 284.00 Z"/>
</g>
<g fill="#1F2528" fill-opacity="0.97" stroke="None">
<path d="
M 122.00 284.00 
C 122.00 284.00 121.28 284.25 121.00 284.00
C 115.86 290.37 122.88 306.28 124.00 311.00
C 124.88 311.25 128.18 311.37 129.00 311.00
C 128.90 310.81 129.95 310.23 130.00 310.00
C 129.12 300.58 129.12 289.42 130.00 280.00
C 130.00 280.00 129.50 280.00 129.00 280.00
C 129.00 280.00 128.43 279.83 128.00 280.00
C 126.27 281.80 124.58 283.43 122.00 284.00 Z"/>
</g>
<g fill="#132228" fill-opacity="0.98" stroke="None">
<path d="
M 349.00 301.00 
C 349.00 301.50 348.92 302.51 349.00 303.00
C 354.02 311.21 362.71 315.42 371.00 319.00
C 374.61 320.53 381.51 321.01 385.00 318.00
C 385.26 317.77 385.65 317.07 386.00 317.00
C 387.85 305.79 384.08 293.84 377.00 287.00
C 373.62 283.73 371.70 281.33 367.00 280.00
C 353.07 277.88 349.00 289.65 349.00 301.00 Z"/>
</g>
<g fill="#1D1E1F" fill-opacity="1.00" stroke="None">
<path d="
M 225.00 306.00 
C 226.22 302.53 227.46 298.89 231.00 297.00
C 236.30 294.17 251.04 295.20 251.00 304.00
C 255.71 298.40 261.11 280.82 250.00 281.00 C 238.89 281.18 228.08 280.86 217.00 281.00
C 216.75 290.13 216.74 300.51 225.00 306.00 Z"/>
</g>
<g fill="#172D32" fill-opacity="0.96" stroke="None">
<path d="
M 93.00 291.00 
C 91.25 292.16 87.30 295.20 86.00 297.00
C 84.74 299.06 84.55 300.76 84.00 303.00
C 83.64 305.90 84.00 309.08 84.00 312.00
C 84.00 312.00 83.95 312.50 84.00 313.00
C 85.59 314.98 87.57 319.66 90.00 321.00
C 92.55 322.18 99.68 323.37 102.00 321.00
C 102.00 318.44 102.23 316.19 102.00 314.00
C 101.71 313.03 100.15 307.76 100.00 304.00
C 99.78 298.68 98.95 294.03 98.00 289.00
C 96.87 288.39 93.96 290.50 93.00 291.00 Z"/>
</g>
<g fill="#6C9094" fill-opacity="0.11" stroke="None">
<path d="
M 86.00 297.00 
C 87.30 295.20 91.25 292.16 93.00 291.00
C 90.18 292.48 87.76 294.12 86.00 297.00 Z"/>
</g>
<g fill="#D0503C" fill-opacity="1.00" stroke="None">
<path d="
M 231.00 297.00 
C 227.56 299.36 228.14 304.73 225.00 306.00
C 230.89 309.92 247.03 310.03 251.00 304.00
C 251.04 295.20 236.30 294.17 231.00 297.00 Z"/>
</g>
<g fill="#68241D" fill-opacity="1.00" stroke="None">
<path d="
M 225.00 306.00 
C 228.14 304.73 227.56 299.36 231.00 297.00
C 227.46 298.89 226.22 302.53 225.00 306.00 Z"/>
</g>
<g fill="#4B5E65" fill-opacity="0.22" stroke="None">
<path d="
M 84.00 312.00 
C 84.00 309.08 83.64 305.90 84.00 303.00
C 83.35 305.63 81.99 309.28 84.00 312.00 Z"/>
</g>
<g fill="#633321" fill-opacity="1.00" stroke="None">
<path d="
M 369.00 319.00 
C 369.47 319.13 370.58 318.82 371.00 319.00
C 362.71 315.42 354.02 311.21 349.00 303.00
C 350.99 314.45 362.15 313.47 369.00 319.00 Z"/>
</g>
<g fill="#452F13" fill-opacity="1.00" stroke="None">
<path d="
M 102.00 314.00 
C 101.61 310.34 100.58 307.06 100.00 304.00
C 100.15 307.76 101.71 313.03 102.00 314.00 Z"/>
</g>
<g fill="#E0964A" fill-opacity="0.68" stroke="None">
<path d="
M 129.00 311.00 
C 129.30 311.56 129.00 313.35 129.00 314.00
C 130.05 318.79 130.00 324.55 130.00 330.00
C 130.00 330.50 130.00 331.50 130.00 332.00
C 130.67 325.09 130.69 317.32 130.00 310.00
C 129.95 310.23 128.90 310.81 129.00 311.00 Z"/>
</g>
<g fill="#435C61" fill-opacity="0.21" stroke="None">
<path d="
M 90.00 321.00 
C 87.57 319.66 85.59 314.98 84.00 313.00
C 84.29 316.05 87.11 319.66 90.00 321.00 Z"/>
</g>
<g fill="#CCAF8A" fill-opacity="0.05" stroke="None">
<path d="
M 130.00 330.00 
C 130.00 324.55 130.05 318.79 129.00 314.00
C 129.00 319.13 128.14 325.63 130.00 330.00 Z"/>
</g>
<g fill="#C39669" fill-opacity="0.57" stroke="None">
<path d="
M 393.00 317.00 
C 393.07 317.01 393.00 318.00 393.00 318.00
C 406.00 318.00 419.00 318.00 432.00 318.00
C 434.00 318.00 436.00 318.00 438.00 318.00
C 438.50 318.00 439.00 318.00 439.00 318.00
C 439.00 317.50 439.00 317.00 439.00 317.00
C 423.62 315.61 408.70 317.00 393.00 317.00 Z"/>
</g>
<g fill="#F58719" fill-opacity="1.00" stroke="None">
<path d="
M 331.00 360.00 
C 331.00 363.60 331.44 368.53 331.00 372.00 C 330.56 375.47 332.06 382.07 331.00 385.00 C 329.94 387.93 332.99 395.89 332.00 397.00
C 341.93 399.11 352.76 396.24 363.00 397.00 C 373.24 397.76 384.65 397.00 395.00 397.00
C 392.16 390.60 396.33 381.08 395.00 374.00 C 393.67 366.92 395.69 358.36 395.00 351.00 C 394.31 343.64 395.52 335.44 395.00 328.00
C 407.03 323.87 420.72 323.51 432.00 318.00
C 419.00 318.00 406.00 318.00 393.00 318.00
C 390.72 318.00 387.16 318.69 385.00 318.00
C 381.51 321.01 374.61 320.53 371.00 319.00
C 370.58 318.82 369.47 319.13 369.00 319.00
C 356.73 315.54 344.30 327.99 331.00 328.00
C 331.00 338.67 331.00 349.33 331.00 360.00
M 360.00 338.00 
C 362.50 345.20 359.66 353.75 362.00 361.00
C 366.24 357.28 367.73 349.35 373.00 347.00
C 372.53 352.37 365.88 355.19 366.00 361.00
C 370.96 361.51 376.47 359.89 381.00 362.00
C 376.47 364.22 369.97 362.10 365.00 364.00
C 366.67 370.64 371.62 375.83 374.00 382.00
C 367.13 379.73 367.34 370.07 362.00 366.00
C 360.28 371.05 361.12 377.43 359.00 382.00
C 356.00 376.31 360.18 369.41 359.00 363.00
C 354.50 362.36 348.67 364.30 345.00 362.00
C 349.20 359.90 354.39 361.50 359.00 361.00
C 358.87 355.29 350.86 352.87 351.00 347.00
C 354.26 348.82 355.68 352.34 358.00 355.00
C 360.91 350.41 357.08 342.52 360.00 338.00 Z"/>
</g>
<g fill="#BD9774" fill-opacity="0.22" stroke="None">
<path d="
M 385.00 318.00 
C 387.16 318.69 390.72 318.00 393.00 318.00
C 393.00 318.00 393.07 317.01 393.00 317.00
C 390.79 317.00 388.16 316.60 386.00 317.00
C 385.65 317.07 385.26 317.77 385.00 318.00 Z"/>
</g>
<g fill="#A69388" fill-opacity="0.09" stroke="None">
<path d="
M 439.00 318.00 
C 439.00 339.90 442.12 364.36 439.00 386.00
C 442.55 381.18 439.47 369.32 440.00 363.00 C 440.53 356.68 440.67 345.04 440.00 339.00 C 439.33 332.96 442.99 320.83 439.00 317.00
C 439.00 317.00 439.00 317.50 439.00 318.00 Z"/>
</g>
<g fill="#B94319" fill-opacity="0.99" stroke="None">
<path d="
M 395.00 397.00 
C 395.50 397.00 396.50 397.01 397.00 397.00
C 409.93 396.66 425.81 391.00 438.00 387.00
C 434.79 377.00 438.77 363.69 438.00 353.00 C 437.23 342.31 437.03 328.79 438.00 318.00
C 436.00 318.00 434.00 318.00 432.00 318.00
C 420.72 323.51 407.03 323.87 395.00 328.00
C 395.52 335.44 394.31 343.64 395.00 351.00 C 395.69 358.36 393.67 366.92 395.00 374.00 C 396.33 381.08 392.16 390.60 395.00 397.00 Z"/>
</g>
<g fill="#A74B2A" fill-opacity="0.83" stroke="None">
<path d="
M 438.00 387.00 
C 438.35 386.88 438.78 386.30 439.00 386.00
C 442.12 364.36 439.00 339.90 439.00 318.00
C 439.00 318.00 438.50 318.00 438.00 318.00
C 437.03 328.79 437.23 342.31 438.00 353.00 C 438.77 363.69 434.79 377.00 438.00 387.00 Z"/>
</g>
<g fill="#C78A5F" fill-opacity="0.27" stroke="None">
<path d="
M 126.00 343.00 
C 126.72 338.96 125.40 334.33 125.00 331.00
C 125.07 334.49 126.22 340.34 126.00 343.00 Z"/>
</g>
<g fill="#F5E2B8" fill-opacity="1.00" stroke="None">
<path d="
M 360.00 338.00 
C 357.08 342.52 360.91 350.41 358.00 355.00
C 355.68 352.34 354.26 348.82 351.00 347.00
C 350.86 352.87 358.87 355.29 359.00 361.00
C 354.39 361.50 349.20 359.90 345.00 362.00
C 348.67 364.30 354.50 362.36 359.00 363.00
C 360.18 369.41 356.00 376.31 359.00 382.00
C 361.12 377.43 360.28 371.05 362.00 366.00
C 367.34 370.07 367.13 379.73 374.00 382.00
C 371.62 375.83 366.67 370.64 365.00 364.00
C 369.97 362.10 376.47 364.22 381.00 362.00
C 376.47 359.89 370.96 361.51 366.00 361.00
C 365.88 355.19 372.53 352.37 373.00 347.00
C 367.73 349.35 366.24 357.28 362.00 361.00
C 359.66 353.75 362.50 345.20 360.00 338.00 Z"/>
</g>
<g fill="#CE9B57" fill-opacity="0.35" stroke="None">
<path d="
M 131.00 359.00 
C 130.95 358.50 131.00 358.00 131.00 358.00
C 131.00 354.25 130.30 350.08 130.00 347.00
C 130.00 350.10 128.81 356.89 131.00 359.00 Z"/>
</g>
<g fill="#C79965" fill-opacity="0.22" stroke="None">
<path d="
M 118.00 350.00 
C 116.07 350.23 113.95 350.00 112.00 350.00
C 112.00 350.00 111.50 349.98 111.00 350.00
C 113.06 352.14 115.93 350.56 118.00 350.00 Z"/>
</g>
<g fill="#D66627" fill-opacity="0.85" stroke="None">
<path d="
M 131.00 359.00 
C 131.11 360.16 132.25 359.91 133.00 360.00
C 142.34 361.15 152.58 360.00 162.00 360.00
C 162.50 360.00 163.50 360.00 164.00 360.00
C 164.00 360.00 163.97 359.00 164.00 359.00
C 158.97 359.37 151.87 359.26 147.00 359.00 C 142.13 358.74 135.60 360.67 132.00 358.00
C 132.00 358.00 131.25 357.75 131.00 358.00
C 131.00 358.00 130.95 358.50 131.00 359.00 Z"/>
</g>
<g fill="#C58C68" fill-opacity="0.14" stroke="None">
<path d="
M 162.00 361.00 
C 161.96 361.00 162.00 360.00 162.00 360.00
C 152.58 360.00 142.34 361.15 133.00 360.00
C 140.52 363.07 153.36 361.00 162.00 361.00 Z"/>
</g>
<g fill="#BF7D55" fill-opacity="0.35" stroke="None">
<path d="
M 162.00 361.00 
C 168.33 361.00 174.67 361.00 181.00 361.00
C 180.96 361.00 181.00 360.00 181.00 360.00
C 175.33 360.00 169.67 360.00 164.00 360.00
C 163.50 360.00 162.50 360.00 162.00 360.00
C 162.00 360.00 161.96 361.00 162.00 361.00 Z"/>
</g>
<g fill="#BF784A" fill-opacity="0.52" stroke="None">
<path d="
M 181.00 361.00 
C 185.00 361.00 190.50 360.00 194.00 362.00
C 194.38 362.22 195.00 362.00 195.00 362.00
C 195.25 361.75 195.00 361.00 195.00 361.00
C 190.52 360.58 185.83 360.00 181.00 360.00
C 181.00 360.00 180.96 361.00 181.00 361.00 Z"/>
</g>
<g fill="#B67C62" fill-opacity="0.27" stroke="None">
<path d="
M 310.00 361.00 
C 309.76 361.20 310.00 362.00 310.00 362.00
C 310.25 362.25 311.00 362.00 311.00 362.00
C 314.82 359.82 322.04 360.87 326.00 360.00
C 320.53 360.00 315.12 360.52 310.00 361.00 Z"/>
</g>
<g fill="#B39064" fill-opacity="0.37" stroke="None">
<path d="
M 330.00 396.00 
C 330.16 396.36 331.65 396.92 332.00 397.00
C 332.99 395.89 329.94 387.93 331.00 385.00 C 332.06 382.07 330.56 375.47 331.00 372.00 C 331.44 368.53 331.00 363.60 331.00 360.00
C 330.92 360.19 329.50 360.00 329.00 360.00
C 328.47 364.54 330.09 373.02 330.00 378.00 C 329.91 382.99 328.03 391.70 330.00 396.00 Z"/>
</g>
<g fill="#8E421C" fill-opacity="1.00" stroke="None">
<path d="
M 195.00 362.00 
C 213.98 363.72 233.93 361.99 253.00 362.00
C 253.50 362.00 254.00 362.00 254.00 362.00
C 235.26 360.01 214.42 362.82 195.00 361.00
C 195.00 361.00 195.25 361.75 195.00 362.00 Z"/>
</g>
<g fill="#8A3D1A" fill-opacity="1.00" stroke="None">
<path d="
M 260.00 362.00 
C 276.33 362.01 292.67 361.99 309.00 362.00
C 309.50 362.00 310.00 362.00 310.00 362.00
C 310.00 362.00 309.76 361.20 310.00 361.00
C 302.23 361.73 291.44 359.74 284.00 361.00 C 276.56 362.26 265.71 357.78 260.00 362.00 Z"/>
</g>
<g fill="#121E22" fill-opacity="0.96" stroke="None">
<path d="
M 213.00 394.00 
C 215.50 394.31 218.49 394.17 221.00 394.00
C 226.54 393.62 231.56 391.30 236.00 388.00
C 238.82 385.54 242.59 381.77 245.00 379.00
C 248.38 374.46 253.57 367.75 254.00 362.00
C 254.00 362.00 253.50 362.00 253.00 362.00
C 247.72 365.90 230.90 362.99 224.00 363.00 C 217.10 363.01 200.22 365.86 195.00 362.00
C 195.00 362.00 194.38 362.22 194.00 362.00
C 192.12 374.01 201.31 391.11 213.00 394.00 Z"/>
</g>
<g fill="#1C0E12" fill-opacity="1.00" stroke="None">
<path d="
M 253.00 362.00 
C 233.93 361.99 213.98 363.72 195.00 362.00
C 200.22 365.86 217.10 363.01 224.00 363.00 C 230.90 362.99 247.72 365.90 253.00 362.00 Z"/>
</g>
<g fill="#121F23" fill-opacity="0.95" stroke="None">
<path d="
M 268.00 382.00 
C 270.16 384.48 273.58 387.89 276.00 390.00
C 293.93 403.33 306.60 389.46 309.00 371.00
C 309.41 367.87 309.63 365.13 310.00 362.00
C 310.00 362.00 309.50 362.00 309.00 362.00
C 304.46 365.36 291.04 363.11 285.00 363.00 C 278.96 362.89 264.63 365.42 260.00 362.00
C 260.00 362.00 259.50 362.00 259.00 362.00
C 258.68 368.02 264.50 377.29 268.00 382.00 Z"/>
</g>
<g fill="#1C0F13" fill-opacity="1.00" stroke="None">
<path d="
M 309.00 362.00 
C 292.67 361.99 276.33 362.01 260.00 362.00
C 264.63 365.42 278.96 362.89 285.00 363.00 C 291.04 363.11 304.46 365.36 309.00 362.00 Z"/>
</g>
<g fill="#6F7D80" fill-opacity="0.23" stroke="None">
<path d="
M 309.00 371.00 
C 309.61 368.39 311.22 365.24 311.00 362.00
C 311.00 362.00 310.25 362.25 310.00 362.00
C 309.63 365.13 309.41 367.87 309.00 371.00 Z"/>
</g>
<g fill="#385259" fill-opacity="0.15" stroke="None">
<path d="
M 236.00 388.00 
C 239.28 385.56 242.52 382.33 245.00 379.00
C 242.59 381.77 238.82 385.54 236.00 388.00 Z"/>
</g>
<g fill="#52686D" fill-opacity="0.11" stroke="None">
<path d="
M 276.00 390.00 
C 273.58 387.89 270.16 384.48 268.00 382.00
C 270.19 384.95 273.00 387.77 276.00 390.00 Z"/>
</g>
<g fill="#354D55" fill-opacity="0.10" stroke="None">
<path d="
M 221.00 394.00 
C 218.49 394.17 215.50 394.31 213.00 394.00
C 215.97 394.74 218.03 394.53 221.00 394.00 Z"/>
</g>
<g fill="#9D5A36" fill-opacity="0.28" stroke="None">
<path d="
M 397.00 397.00 
C 396.50 397.01 395.50 397.00 395.00 397.00
C 384.65 397.00 373.24 397.76 363.00 397.00 C 352.76 396.24 341.93 399.11 332.00 397.00
C 331.65 396.92 330.16 396.36 330.00 396.00
C 329.22 396.93 337.42 398.84 340.00 398.00 C 342.58 397.16 348.31 398.36 352.00 398.00 C 355.69 397.64 358.02 398.03 363.00 398.00 C 367.98 397.97 368.34 397.78 375.00 398.00 C 381.66 398.22 390.86 398.10 397.00 397.00 Z"/>
</g>
</svg>