<?xml version="1.0" standalone="no"?>
<!DOCTYPE svg PUBLIC "-//W3C//DTD SVG 20010904//EN"
 "http://www.w3.org/TR/2001/REC-SVG-20010904/DTD/svg10.dtd">
<svg version="1.0" xmlns="http://www.w3.org/2000/svg"
 width="500.000000pt" height="500.000000pt" viewBox="0 0 500.000000 500.000000"
 preserveAspectRatio="xMidYMid meet">
<metadata>
Created by potrace 1.14, written by Peter Selinger 2001-2017
</metadata>
<g transform="translate(0.000000,500.000000) scale(0.100000,-0.100000)"
fill="#000000" stroke="none">
<path d="M1310 4053 c-1 -10 -7 -67 -14 -127 -13 -104 -13 -111 5 -135 25 -34
36 -146 17 -181 -7 -13 -27 -34 -44 -45 -27 -18 -220 -85 -286 -100 -24 -5
-28 -10 -28 -42 0 -43 31 -319 63 -558 22 -162 24 -169 47 -175 l24 -6 -30
-14 c-20 -10 -30 -24 -32 -42 -2 -16 1 -28 8 -28 6 0 8 5 5 10 -9 15 4 12 21
-5 9 -9 11 -15 4 -15 -6 0 -8 -4 -5 -10 3 -5 2 -10 -4 -10 -5 0 -12 4 -16 10
-10 16 -35 -1 -34 -24 1 -16 2 -17 6 -3 6 23 20 22 28 -3 3 -11 11 -20 17 -20
5 0 8 -7 4 -15 -3 -8 1 -18 8 -22 29 -17 62 -89 65 -138 1 -27 4 -51 7 -54 12
-12 13 13 4 75 -5 38 -10 92 -10 120 0 60 3 62 97 71 l63 6 0 70 0 70 -69 -7
c-39 -3 -72 -2 -75 3 -3 5 -15 75 -26 156 -37 259 -26 343 56 434 47 52 138
105 201 117 19 4 37 13 40 21 6 15 -25 229 -62 423 -13 69 -26 144 -30 168 -7
41 -25 59 -25 25z"/>
<path d="M1065 3779 c-279 -34 -417 -58 -438 -77 -16 -14 -19 -27 -14 -77 2
-34 12 -75 21 -93 15 -30 20 -32 64 -30 l47 1 -43 4 c-34 3 -42 8 -38 19 3 8
2 12 -3 9 -11 -6 -26 33 -17 42 3 4 6 -2 6 -12 0 -10 2 -16 5 -13 9 9 -6 58
-16 52 -15 -9 -10 73 5 85 15 13 298 59 491 81 61 7 117 17 125 21 22 12 -22
10 -195 -12z"/>
<path d="M2501 3624 c-83 -22 -168 -72 -234 -138 l-60 -60 -226 -6 c-181 -5
-233 -9 -261 -23 -19 -9 -111 -46 -205 -82 -93 -36 -177 -70 -185 -74 -12 -7
-15 -35 -15 -157 l0 -149 958 -3 958 -2 -3 -744 c-2 -409 -5 -746 -8 -749 -13
-11 -327 -17 -1004 -17 -725 0 -947 -9 -499 -20 l226 -5 13 -65 c31 -152 65
-215 137 -251 76 -40 194 -11 288 69 45 39 111 131 138 195 32 74 68 71 90 -5
56 -188 232 -325 353 -275 60 25 96 96 128 252 l16 80 49 2 c28 2 74 5 103 9
l52 5 0 154 0 153 33 7 c52 11 206 64 258 90 l49 23 26 -20 c28 -22 97 -34
138 -24 58 14 57 151 -1 266 l-33 68 -3 649 -2 648 -326 2 -325 1 -57 56 c-66
64 -124 100 -214 133 -54 19 -82 23 -181 22 -69 0 -139 -6 -171 -15z m324 -75
c61 -32 155 -98 155 -109 0 -9 -247 -20 -435 -20 -212 0 -230 8 -152 66 147
108 303 131 432 63z"/>
<path d="M2793 2758 c-38 -10 -44 -28 -9 -28 59 0 143 -48 152 -87 7 -26 15
-28 32 -11 17 17 15 23 -19 63 -50 56 -102 78 -156 63z"/>
<path d="M1779 2731 c-51 -32 -89 -88 -67 -96 8 -3 32 12 54 33 39 37 98 62
144 62 19 0 20 2 10 15 -21 25 -90 19 -141 -14z"/>
<path d="M1938 2557 c-49 -12 -113 -81 -128 -139 -27 -98 7 -205 76 -246 31
-18 50 -22 96 -19 110 6 164 81 157 220 -4 61 -9 81 -31 113 -45 64 -102 88
-170 71z m100 -43 c31 -22 27 -51 -12 -90 -55 -55 -109 -41 -109 28 0 22 8 38
29 55 34 27 61 29 92 7z"/>
<path d="M2775 2557 c-56 -23 -84 -49 -111 -103 -23 -48 -26 -63 -22 -123 6
-80 28 -125 79 -159 28 -20 44 -23 94 -20 113 7 160 67 160 203 0 67 -4 87
-25 124 -43 76 -109 105 -175 78z m109 -43 c25 -24 19 -62 -13 -95 -49 -49
-111 -34 -111 27 0 64 83 110 124 68z"/>
<path d="M1159 2280 c-4 -8 -5 -27 -3 -43 1 -15 -1 -25 -5 -22 -7 4 -22 -71
-22 -115 0 -26 13 -214 16 -235 2 -11 4 -25 4 -32 1 -6 10 -14 20 -18 24 -7
41 -87 21 -93 -9 -3 -9 -6 -1 -12 18 -10 3 -58 -17 -56 -11 1 -17 -6 -17 -19
0 -16 6 -20 28 -18 15 1 27 -1 27 -5 0 -4 9 -8 20 -8 13 0 20 7 20 18 0 10 -3
18 -7 18 -5 0 -9 30 -11 67 -2 37 -6 71 -9 76 -12 20 -9 90 5 103 7 8 27 14
43 14 l29 0 0 150 0 150 -54 -27 c-30 -16 -57 -35 -59 -43 -2 -8 -3 -5 -2 8 1
12 -1 22 -6 22 -4 0 -9 30 -11 68 -2 37 -6 60 -9 52z m38 -297 c-2 -16 -4 -5
-4 22 0 28 2 40 4 28 2 -13 2 -35 0 -50z m20 -225 c-3 -8 -6 -5 -6 6 -1 11 2
17 5 13 3 -3 4 -12 1 -19z"/>
<path d="M2165 2180 c-8 -13 11 -151 25 -182 7 -12 28 -35 47 -50 34 -26 42
-28 138 -28 98 0 102 1 127 28 50 52 64 103 59 210 l-1 32 -194 0 c-118 0
-197 -4 -201 -10z"/>
<path d="M925 2077 c-107 -60 -115 -230 -14 -282 20 -11 43 -15 64 -11 56 11
59 22 41 148 -29 193 -23 184 -91 145z"/>
<path d="M4270 1799 c-36 -10 -121 -32 -190 -47 l-125 -29 -3 -346 c-1 -191
-1 -347 1 -347 14 0 406 104 420 111 16 9 17 36 17 344 l0 335 -27 -1 c-16 0
-57 -9 -93 -20z"/>
<path d="M1160 1679 c0 -5 5 -7 10 -4 6 3 10 8 10 11 0 2 -4 4 -10 4 -5 0 -10
-5 -10 -11z"/>
</g>
</svg>
