<?xml version="1.0" encoding="utf-8"?><!-- Uploaded to: SVG Repo, www.svgrepo.com, Generator: SVG Repo Mixer Tools -->
<svg width="800px" height="800px" viewBox="0 0 24 24" xmlns="http://www.w3.org/2000/svg"><path fill="white" d="M22 6H2a1.001 1.001 0 0 0-1 1v3a1.001 1.001 0 0 0 1 1h20a1.001 1.001 0 0 0 1-1V7a1.001 1.001 0 0 0-1-1zm0 4H2V7h20v3h.001M22 17H2a1.001 1.001 0 0 0-1 1v3a1.001 1.001 0 0 0 1 1h20a1.001 1.001 0 0 0 1-1v-3a1.001 1.001 0 0 0-1-1zm0 4H2v-3h20v3h.001M10 14v1H2v-1zM2 3h8v1H2z"/><path fill="none" d="M0 0h24v24H0z"/></svg>