<svg xmlns="http://www.w3.org/2000/svg" xmlns:xlink="http://www.w3.org/1999/xlink" width="6000" height="6000" viewBox="0 0 4500 4500"><title>Layer 1</title><title>Group</title><title>Group</title><defs><g id="b"><defs><path id="a" d="M1015.12 1339.45c23.87-19.84 45.33-26.67 45.33-26.67-2.5 45.76 3.26 84.65 13.66 117.45a269 269 0 0 0 31.13 66.81c39.58 60.94 90.55 84.8 90.55 84.8 6.08-117.22 66.2-156.82 66.2-156.82-9.97 68.44-9.32 243.79 50.55 382.93 69.84 162.03-2.28 154.76 94.89 357.99 122.33 255.51 469.04 252.37 469.04 252.37-198.79 57.25-418.4-12.05-525.98-190.02-42.4-70.38-59.54-128.17-67.24-178.5-49.02-16.48-129.15-85.89-134.03-90.22 3.89.87 67.56 15.39 127.41 15.62-2.05-43.72-3.13-82.49-18.87-121.56-57.9-7.04-120.59-45.66-120.59-45.66-6.39 112.36-64.03 168.31-129.26 187.76l-16.54 85.08c63 84.48 221.88 208.87 221.88 208.87s-133.49-41.64-235.327-140.33L940.718 2340c64.972 52.49 132.732 97.83 197.532 137.73 190.65 117.45 450.99 170.85 518.42 167.6 64.85-11.51 131.76-25.7 198.23-41.54-68.21-15.72-230.44-56.43-320.89-106.16 66.81 3.35 325.88 37.62 574.13 39.14 232.07-67.02 413.4-133.39 413.4-133.39s-95.51-133.5-27.77-289.44c67.75-155.95 212.89-193.05 282.62-202.96 59.11-44.57 138.06-212.56 147.6-365.9 9.87-159.97-102.16-215.17-166.35-298.24-64.2-83.07-105.75-191.62-189.25-298.773 78.09 38.496 129.6 108.023 129.6 108.023 11.06-29.17 68.97-193.372 18.1-292.82-56.07-109.313-182.72-158.554-182.72-158.554 14.2-16.279 50.74-32.961 50.74-32.961-183.41-92.186-351.26 27.98-351.26 27.98-4.77-27.133-1.41-56.285-1.41-56.285-93.48 78.621-119.94 225.03-119.94 225.03 197.92-1.303 268.4 75.266 268.4 75.266-212.87-36.662-451.89-17.137-637.13 76.776-185.24 93.908-351.16 289.238-351.16 289.238 22.46-112.47 81.35-163.11 81.35-163.11-98.04-76.79-202.15-64.2-202.15-64.2 19.63 14.206 41.75 51.07 41.75 51.07a348.4 348.4 0 0 0-122.76 30.15 344 344 0 0 0-49.46 27.14c-42.73 27.87-77.42 63.45-101.07 101.07-32.86 51.84-44.891 107.45-29.18 152.05 1.66-1.55 3.4-3.07 5.03-4.48m998.15-57.8s28.63-97.17 130.79-140.98c102.16-43.82 306.38-8.89 422.31 116.47 115.93 125.37 81.98 258.76-12.92 309.84-144.45 77.65-197.05-7.48-316.33-48.15-119.29-40.66-265.26-73.2-223.85-237.18m84.04 331.1c70.17-9.87 93.81 34.81 67.46 95.86s-64.53 90.08-97.06 97.82c-64.75 15.2-142.18-40.88-144.14-84.26s103.59-99.66 173.74-109.42m38.28 254.09c49.45 29.83 159.42 6.3 166.58-129.27 0 0 63.33 82.85-6.62 154.75 19.42 27.22 50.54 174.94-59.96 232.41-121.36 63.22-205.41-63.88-223.52-99.33-82.1-8.36-97.06-82.21-97.06-82.21 153.13 73.85 220.59-76.35 220.59-76.35zm-710.01-193.47c16.28-188.92 156.82-367.42 323.29-327.4 161.26 38.82 132.85 187.07 98.25 282.72s-22.99 147.7-49.66 220.04c-26.68 72.33-95.77 128.84-187.19 123.19-117.48-7.26-199.1-116.03-184.68-298.55z"/></defs><use xlink:href="#a" style="fill:#797979;fill-opacity:1;fill-rule:evenodd;opacity:1;stroke:none"/></g></defs><use xlink:href="#b"/><defs><g id="d"><defs><path id="c" d="M2997.23 1863.15s-37.1 86.49-190.77 116.59c-171.66 33.64-289.13 157.57-210.06 264.81 80.9 109.76 283.05 80.8 283.05 80.8-181.65 99.66-319.17-15.5-319.17-15.5 64.32 155.2 299.55 205.28 489.33 48.03 189.77-157.25 206.48-356.47 206.48-356.47-22.66 50.76-69.94 105.52-72.87 108.89 2.59-6.3 59.53-145.76 51.62-251.71-8.14-108.45-92.52-191.52-241.41-258.43-6.62 152.04-117.13 299.32-117.13 299.32 49.03-7.36 120.93-36.33 120.93-36.33"/></defs><use xlink:href="#c" style="fill:#797979;fill-opacity:1;fill-rule:evenodd;opacity:1;stroke:none"/></g></defs><use xlink:href="#d"/><defs><g id="f"><defs><path id="e" d="M1977.6 1743.43c52.27 41.42 91.85 24.18 126.45-14.53 34.6-38.72 23.74-71.14-27.33-55.97-51.08 15.17-76.89 30.39-100.32 44.69-5.53 3.37-17.68 10.84 1.2 25.81"/></defs><use xlink:href="#e" style="fill:#797979;fill-opacity:1;fill-rule:evenodd;opacity:1;stroke:none"/></g></defs><use xlink:href="#f"/><defs><g id="h"><defs><path id="g" d="M2736.31 2783.16c109.41 58.68 284.88 202.81 340.3 487.69-5.74-12.14-187.76-394.63-590.41-409.27-445.84 129.58-911.83 217.32-994.15 215.37-1.41 69.52 132.31 885.62 188.38 1161.29 307.66 161.37 761.89 94.24 959.76 45.44 343.03-96.95 573.91-496.37 573.91-496.37-17.03 200.2-157.37 359.94-161.71 364.94 202.46-94.9 477.06-335.66 517.29-425.02-119.15-384.57-238.29-769.13-357.44-1153.7-114.48 73.6-285.39 144.96-475.93 209.63"/></defs><use xlink:href="#g" style="fill:#797979;fill-opacity:1;fill-rule:evenodd;opacity:1;stroke:none"/></g></defs><use xlink:href="#h"/><defs><g id="j"><defs><path id="i" d="M860.796 1983.53c-19.536-9.97-34.915-23.09-43.924-38.17 0 0 19.851 6.72 48.482 9.98a258 258 0 0 0 49.012.97c19.623-1.62 40.233-5.96 59.974-14.96a145.3 145.3 0 0 0 51.83-38.93c40.67-48.05 48.38-110.19 33.09-169.84a275.5 275.5 0 0 0-30.05-72.01 288 288 0 0 0-55.412-67.88 258.2 258.2 0 0 0-43.923-32.32 227.3 227.3 0 0 0-55.525-23.43c-150.968-40.67-331.206 145.97-237.684 402.13 41.318 113.33 107.034 208.87 183.928 290.32z"/></defs><use xlink:href="#i" style="fill:#797979;fill-opacity:1;fill-rule:evenodd;opacity:1;stroke:none"/></g></defs><use xlink:href="#j"/><defs><g id="l"><defs><path id="k" d="M3308.04 1821.57s99.45 255.73-159.54 539.1c-168.09 178.94-436.39 222.32-577.39 100.21 0 0-428.37 160.06-783.6 229.15-355.07 69.08-613.82 84.59-553.64-81.77-26.77-11.39-58.98-28.42-90.65-46.41-178.071 62.24-222.103 203.33-175.824 305.06-92.839-50.64-138.606-221.33 83.724-360.05-24.63-15.39-40.79-26.04-40.79-26.04s-195.638 80.9-281.53 222.75-18.104 282.83 164.523 306.36 694.967 10.92 1429.727-184.3c734.76-195.21 1295.87-539.54 1371.84-756.42s-235.02-266.57-386.85-247.64"/></defs><use xlink:href="#k" style="fill:#797979;fill-opacity:1;fill-rule:evenodd;opacity:1;stroke:none"/></g></defs><use xlink:href="#l"/><defs><g id="n"><defs><path id="m" d="M2100.24 1418.52c2.92 6.65 31.63 31.18 37.25 37.54 5.61 6.36 17.88 10.35 17.88 10.35 20.94 6.48 41.87 12.96 62.81 19.43 20.93 6.48 67.78 14.47 70.05 15.83 2.26 1.35 56.59 14.73 56.59 14.73s105.17-2.99 106.97-2.99 35.71-10.39 37.06-11.3c1.34-.91 35.69-32.56 35.69-32.56l14.01-75.02v-69.13c0-23.05-38.41-80.88-38.86-82.69-.46-1.81-16.98-24.96-16.98-24.96-10-7.94-20.01-15.88-30.02-23.82l-75.01-25.72s-35.57-10-36.9-10.31c-1.34-.3-47.18-3.69-48.54-2.47-1.36 1.21-48.84 0-48.84 0-15.35-.65-30.71-1.31-46.06-1.96s-53.57 13.94-55.35 14.74c-1.78.81-44.94 34.36-45.85 35.71-.92 1.35-18.08 47.25-18.08 47.25s-7.22 37.25-7.68 38.61 9.5 79.53 9.5 79.53 17.43 42.56 20.36 49.21"/></defs><use xlink:href="#m" style="fill:#797979;fill-opacity:1;fill-rule:evenodd;opacity:1;stroke:none"/></g></defs><use xlink:href="#n"/><defs><g id="p"><defs><path id="o" d="M1536.75 1845.54c19.43 7.23 38.86 14.47 58.29 21.7h87.44c2.04 0 49.48-29.14 49.48-29.14 14.23-9.7 28.47-19.4 42.7-29.11 14.24-9.7 23.05-48.84 23.73-54.26.68-5.43 6.1-67.43 6.1-67.43s14.97-47.97 16.33-51.87c1.37-3.9 6.04-29.14 9.23-32.56s10.42-32.56 10.42-32.56l9.38-35.26-1.35-38.28 1.35-39.66c-8.13-12.42-16.26-24.85-24.39-37.28l-27.14-31.07c-17.39-2.53-34.79-5.07-52.19-7.6l-6.78 86.76c-34.79-6.1-69.58-12.2-104.38-18.3l-149.43 72.72-11.48 23.56c-9.82 34.12-19.65 68.23-29.48 102.35 5.19 35.47 10.39 70.94 15.58 106.41 5.2 35.47 42.71 66.42 44.74 67.78s31.85 23.1 31.85 23.1"/></defs><use xlink:href="#o" style="fill:#797979;fill-opacity:1;fill-rule:evenodd;opacity:1;stroke:none"/></g></defs><use xlink:href="#p"/><defs><g id="r"><defs><path id="q" d="M3580.33 3608.5c-19.21-53.54-38.41-107.08-57.61-160.62-21.92-71.4-43.83-142.8-65.75-214.2l-82.02-245.39c-18.75-67.56-37.5-135.12-56.25-202.67-29.15-86.53-58.3-173.06-87.44-259.59l-530.52 230.91c-99.12 27.72-198.25 55.43-297.37 83.15-86.76 25.6-173.52 51.21-260.28 76.82l-267.45 55.1c-96.39 20.48-192.79 40.97-289.18 61.45l-91.28 26.22c249.43 112.97 518.79-88.58 858.55 27.13 339.77 115.72 562.12 368.73 569.35 549.48 0 0 89.47-101.23 94.9-210.55 98.5 422.04-132.85 792.58-901.03 933.55 0 0 310 22.6 474.47-15.36 164.47-37.95 307.27-87.66 307.27-87.66 62.51-26.13 125.02-52.27 187.52-78.4 45.64-22.59 91.28-45.18 136.92-67.78 49.02-38.41 98.05-76.82 147.08-115.23l161.32-152.5c25.98-36.6 51.96-73.21 77.94-109.81z"/></defs><use xlink:href="#q" style="fill:#4b4b4b;fill-opacity:1;fill-rule:evenodd;opacity:1;stroke:none"/></g></defs><use xlink:href="#r"/><defs><g id="t"><defs><path id="s" d="M1954.28 2610.77c23.05-11.3 46.09-22.59 69.14-33.89-69.14-180.98-138.28-361.95-207.42-542.92l-523.7-118.83s-90.38-18.54-175.83-69.59l-31.13-73.89c-85.917-152.72-245.372-171.48-342.963-58.51s-54.266 304.55 111.158 461.8c165.425 157.25 540.435 416.62 981.465 456.39z"/></defs><use xlink:href="#s" style="fill:#4b4b4b;fill-opacity:1;fill-rule:evenodd;opacity:1;stroke:none"/></g></defs><use xlink:href="#t"/><defs><g id="v"><defs><path id="u" d="M2219.55 1462.33c88.99 35.24 220.68 115.49 307.44 65.28 86.76-50.2 87.85-163.75-28.63-262.76-21.26-18.01-136.75-106.61-260.81-95.77s-197.38 108.46-177.99 183.5c19.39 75.03 77.34 77 159.99 109.75m-28.53-119.62c4.55-55.09 55.85-95.97 114.74-91.17 58.89 4.81 102.93 53.18 98.47 108.23-.32 4.79-1.05 9.54-2.17 14.21-15.29-32.97-49.13-57.52-90.08-60.85-53.69-4.34-101.18 29.18-112.36 76.9a94.75 94.75 0 0 1-8.6-47.32"/></defs><use xlink:href="#u" style="fill:#4b4b4b;fill-opacity:1;fill-rule:evenodd;opacity:1;stroke:none"/></g></defs><use xlink:href="#v"/><defs><g id="x"><defs><path id="w" d="M1613.97 1926.16c130.89-4.01 147.81-130.79 168.1-231.1 20.28-100.32 96.95-205.83 0-281.32-103.58-80.68-287.18 45.01-305.62 225.03-9.97 97.17 6.73 291.51 137.52 287.39m-31.34-317.21c26.35-52.81 87.84-75.58 137.29-51.01a94.86 94.86 0 0 1 36.12 31.78c-46.67-15.08-99.85 8.23-123.95 56.43-18.33 36.76-14.87 78.41 5.52 108.53a88 88 0 0 1-13.34-5.42c-49.46-24.7-68.1-87.49-41.64-140.31"/></defs><use xlink:href="#w" style="fill:#4b4b4b;fill-opacity:1;fill-rule:evenodd;opacity:1;stroke:none"/></g></defs><use xlink:href="#x"/><defs><g id="z"><defs><path id="y" d="M2020.25 1772.73c32.56 12.2 35.48 17.63 57.62 0 22.14-17.62 53.32-48.12 53.32-48.12 4.07-8.66 8.13-17.31 12.2-25.97v-18.08c0-.9-9.94-25.53-9.94-25.53s-11.94-8.14-12.66-8.14c-.71 0-17.17-.44-21.91.91-4.74 1.36-15.6 2.03-22.6 5.43s-58.74 30.04-58.74 30.04-29.85 77.31 2.71 89.46"/></defs><use xlink:href="#y" style="fill:#4b4b4b;fill-opacity:1;fill-rule:evenodd;opacity:1;stroke:none"/></g></defs><use xlink:href="#z"/><defs><g id="B"><defs><path id="A" d="M1126 1415.12c6.44-23.04 44.74-57.15 44.74-57.15-18.97 112.97 44.74 179.84 44.74 179.84 139.62 19.88 198.37-23.49 198.37-23.49s270.24-371.44 46.09-431.09-330.55 109.62-330.55 109.62c30.17-11.86 86.09-10.17 86.09-10.17-113.87 81.97-89.48 232.44-89.48 232.44"/></defs><use xlink:href="#A" style="fill:#4b4b4b;fill-opacity:1;fill-rule:evenodd;opacity:1;stroke:none"/></g></defs><use xlink:href="#B"/><defs><g id="D"><defs><path id="C" d="M2570.62 1062.45c27.42-9.64 54.83-19.28 82.24-28.93 80.42-187.972-49.93-271.118-49.93-271.118 27.22-.854 54.47.052 81.57 2.713-123.1-150.023-306.37-93.544-306.37-93.544 15.35-33.883 53.31-68.222 53.31-68.222-146.4 3.614-256.2 106.187-270.65 185.263l61 120.21z"/></defs><use xlink:href="#C" style="fill:#4b4b4b;fill-opacity:1;fill-rule:evenodd;opacity:1;stroke:none"/></g></defs><use xlink:href="#D"/><defs><g id="F"><defs><path id="E" d="M2962.51 1894c76.59-41.69 51.41-138.39-3.72-184.51 0 0-86.77 144.14-101.68 189.93-14.9 45.79 28.81 36.26 105.4-5.42"/></defs><use xlink:href="#E" style="fill:#4b4b4b;fill-opacity:1;fill-rule:evenodd;opacity:1;stroke:none"/></g></defs><use xlink:href="#F"/><defs><g id="H"><defs><path id="G" d="M2552.33 2649.41c549.23-130.14 994.33-451.87 1028.67-595.57 34.34-143.69-197.02-142.79-197.02-142.79-18.97 80.43-83.57 150.7-83.57 150.7s-60.86 94.13-75.01 124.4l37.5-80.31c5.28-18.53 10.55-37.05 15.83-55.58 4.06-31.93 8.13-63.86 12.2-95.79-3.17-30.58-6.33-61.15-9.5-91.73-10.24-30.43-20.48-60.85-30.71-91.28-21.55-32.68-43.09-65.37-64.63-98.05-18.38-12.2-36.75-24.4-55.13-36.6-8.28 2.86-16.57 5.73-24.85 8.59-8.28 2.87 131.94 175.77 35.71 398.1 0 0 13.11-90.83-6.79-144.61 0 0-54.65 224.59-250.77 327.61-196.12 103.03-339.41-82.43-206.06-217.8 0 0-75.92 10.39-88.46 39.19-12.55 28.81-48.01 40.35-58.85 90.95a392.7 392.7 0 0 0-8.15 94.89 322.3 322.3 0 0 0-.29 75.97c4.82 41.57 44.58 88.57 44.58 88.57 5.27 4.3 10.54 8.61 15.81 12.91-31.48 12.57-62.95 25.13-94.43 37.7-100.31 35.45-200.63 70.9-300.94 106.36-96.24 23.04-192.47 46.09-288.7 69.13l-281.29 63.72-172.16 2.7-105.74-19.65c-13.55-23.72-27.11-47.45-40.67-71.17-52.98-26.77-105.97-53.54-158.95-80.31-20.44 5.31-40.89 10.62-61.34 15.93-29.22 18.09-58.43 36.18-87.65 54.27-29.216 18.09-85.859 117.47-70.491 183.42 15.813 68.67 36.141 228.64 659.721 127.42 623.58-101.21 972.13-251.29 972.13-251.29m599.9-353.37c9.73-12.77 19.46-25.53 29.19-38.3-12.89 19.13-27.01 39.74-40.93 60.9-34.54 52.5-84.91 70.06-122.16 98.61 22.04-16.91 44.08-33.81 66.13-50.72zm-229.09 158.61 88.83-32.79c-31.48 21.97-73.4 36.02-132.04 48.44zm-294.13-5.87 123.83 37.45c-32.45 0-59.12-4.05-80.81-11.03-39.85-12.82-88.88-63.73-89.23-64.08z"/></defs><use xlink:href="#G" style="fill:#4b4b4b;fill-opacity:1;fill-rule:evenodd;opacity:1;stroke:none"/></g></defs><use xlink:href="#H"/><defs><g id="J"><defs><path id="I" d="M2116.95 1747.48c23.95-11.3 20.56-35.25 20.8-36.38s5.86-15.36 8.35-29.37c2.5-14.01-11.07-17.63-28.21-26.88-17.15-9.26-50.61-3.17-50.61-3.17-5.27 5.42-10.55 10.85-15.82 16.28 51.07 28.46-12.19 60.55-16.72 112.07 25.72 9.7 58.23-21.25 82.21-32.55"/></defs><use xlink:href="#I" style="fill:#383838;fill-opacity:1;fill-rule:evenodd;opacity:1;stroke:none"/></g></defs><use xlink:href="#J"/><defs><g id="L"><defs><path id="K" d="M1397.8 1704.55c0 2.71 17.62 123.36 19.67 146.09 2.04 22.72 35.91 87.76 37.98 93.17 2.07 5.42 126.74 86.76 137.6 91.51 10.85 4.74 86.75 6.09 88.79 4.74 2.04-1.36 100.31-59.69 102.34-61.68s54.91-151.15 54.91-151.15a811287 811287 0 0 1-29.15-151.83c-33.21.69-116.35 153.87-196.34 160.63-79.98 6.76-122.45-70.49-145.49-175.32-.04.01-70.31 41.13-70.31 43.84"/></defs><use xlink:href="#K" style="fill:#383838;fill-opacity:1;fill-rule:evenodd;opacity:1;stroke:none"/></g></defs><use xlink:href="#L"/><defs><g id="N"><defs><path id="M" d="M2470.31 1660.72c2.71 0 127.43-20.79 155.45-29.83s71.39-73.2 71.39-73.2c14.47-42.78 28.94-85.55 43.41-128.33 14.47-42.77-34.34-89.47-35.24-92.19-.9-2.71-130.17-180.73-206.09-214.54s-53.32-18.57-62.35-21.28c-9.03-2.72-50.62 18.98-52.42 21.28s-4.53 62.76-4.53 62.76c129.24 67.78 156.58 214.19 85.41 262.31-71.18 48.13-142.36 6.79-235.42 34.57 0 0 14.46 67.29 16.28 70.05 1.83 2.75 221.39 108.4 224.11 108.4"/></defs><use xlink:href="#M" style="fill:#383838;fill-opacity:1;fill-rule:evenodd;opacity:1;stroke:none"/></g></defs><use xlink:href="#N"/><defs><g id="P"><defs><path id="O" d="M1243.04 1293.81c-14.45 45.58-12.65 115.9.22 165.71 0 0 .68 23.39.68 25.42s176.91-77.27 176.91-77.27c34.57-46.09 69.14-92.18 103.7-138.27 34.57-46.09 14.24-93.54-93.53-126.75s-167.24 33.44-167.24 33.44c15.37-.91 37.06 4.52 37.06 4.52-84.05 56.26-95.8 141.21-95.8 141.21 7.73-11.75 38-28.01 38-28.01"/></defs><use xlink:href="#O" style="fill:#383838;fill-opacity:1;fill-rule:evenodd;opacity:1;stroke:none"/></g></defs><use xlink:href="#P"/><defs><g id="R"><defs><path id="Q" d="M2527.7 1036.89s39.99 16.94 73.21-58.966c33.21-75.907-46.27-150.978-46.27-150.978 12.27 3.8 24.32 8.267 36.1 13.382-57.61-116.563-177.61-98.938-177.61-98.938 8.98-12.025 33.22-25.081 33.22-25.081-124.72-29.141-201.08 80.888-201.08 80.888-1.89 16.642-3.77 33.283-5.66 49.925 22.6 32.082 45.19 64.164 67.78 96.246z"/></defs><use xlink:href="#Q" style="fill:#383838;fill-opacity:1;fill-rule:evenodd;opacity:1;stroke:none"/></g></defs><use xlink:href="#R"/><defs><g id="T"><defs><path id="S" d="M2931.22 1773.23c-28.32 38.86-56.64 77.73-84.96 116.59-1.2 15.06-2.41 30.12-3.61 45.18 32.68-12.96 65.37-25.91 98.06-38.87 41.13-53.76 18.52-101.69-9.49-122.9"/></defs><use xlink:href="#S" style="fill:#383838;fill-opacity:1;fill-rule:evenodd;opacity:1;stroke:none"/></g></defs><use xlink:href="#T"/><defs><g id="V"><defs><path id="U" d="M2600.57 2308.13c-14.47-7.91-28.94-15.82-43.41-23.72-7.57 3.95-15.13 7.9-22.7 11.86v31.18c0 1.02 13.55 32.19 13.55 32.19l42.32 57.62c23.39 13.1 46.77 26.21 70.16 39.31 30.72 7 61.45 14.01 92.17 21.01 20.45 2.03 40.9 4.07 61.35 6.1 20.44 2.03 80.31-13.89 81.68-14.91 1.36-1.02 67.78-22.02 69.12-23.73 1.35-1.7 43.61-14.34 120.47-42.81s135.57-92.17 156.35-122.45c75.46-38.86 166.52-157.03 44.5-190.24 0 0-26.21-14.92-17.36-62.35 8.84-47.44-20.56-86.76-49.04 6.1s-130.36 193.62-130.36 193.62c12.66-26.2 17.85-115.05 17.85-115.05-56.93 83.38-166.97 230.22-315.18 229.33-46.54-4.7-93.08-9.41-139.63-14.11z"/></defs><use xlink:href="#U" style="fill:#383838;fill-opacity:1;fill-rule:evenodd;opacity:1;stroke:none"/></g></defs><use xlink:href="#V"/><defs><g id="X"><defs><path id="W" d="M2796.79 2509.1c-72.07-25.08-144.15-50.16-216.22-75.24-10.4-2.85-20.79-5.71-31.19-8.57-69.58 27.86-139.17 55.71-208.76 83.57l-192.04 56.94c-17.41 4.38-34.83 8.77-52.24 13.16l80.31-25.83c40.67-12.88 81.34-25.75 122.01-38.63l269.67-100.97c-13.1-23.73-26.2-47.45-39.31-71.17-7.45-37.05-14.91-74.1-22.36-111.16l-16.95-20.34c7.08-17.69 14.16-35.39 21.23-53.09-212.36 10.24-424.72 20.48-637.08 30.73-212.36 10.24-550.38-131.95-639.86-201.54 0 0-75.01-20.33-101.21-34.34 0 0 27.78 58.3 64.73 86.08 0 0-97.27-42.69-152.18-88.45 9.6-22.37 19.21-44.73 28.81-67.1-1.7-7.12-3.39-14.24-5.08-21.36-1.69-7.11-32.56-153.18-187.968-120.64-155.406 32.54-119.753 249.43-12.209 322.63 0 0 55.59-7.23 123.367 58.74 67.78 65.97 102.91 92.75 102.91 92.75 21.24 13.44 42.47 26.89 63.71 40.33 83.88 56.6 240.28 134.88 365 180.29 0 0-112.3 7.46-185.49-4.34 0 0 229.09 90.38 407.12 113.87 178.04 23.5 253.5 55.13 253.5 55.13l33.15-5.43-61.17 15.48c-59.8 15.82-119.59 31.64-179.38 47.46l-165.84 28.47-190.69 16.71c-50.31-38.26-100.62-76.51-150.92-114.77-36.91-6.94-73.81-13.87-110.71-20.81-85.4 55.15-134.65 198.38 44.28 257.11 178.94 58.74 839.57-23.48 1370.96-294.61 0-.05 161.98 14.86 208.1-21.06"/></defs><use xlink:href="#W" style="fill:#383838;fill-opacity:1;fill-rule:evenodd;opacity:1;stroke:none"/></g></defs><use xlink:href="#X"/><defs><g id="Z"><defs><path id="Y" d="M3562.48 3572.11c-12.05-43.07-24.1-86.14-36.16-129.22l-63.25-178.93-57.39-187.08-42.48-137.37-43.83-153.19c-16.41-53.18-32.83-106.36-49.25-159.54-16.57-32.38-33.14-64.76-49.71-97.15-30.27 13.56-60.54 27.11-90.81 40.67l-134.67 67.29c-68.38 28.47-136.75 56.95-205.13 85.42l-186.16 52.86c-62.05 17.62 138.27 55.13 176.22 99.19 37.96 44.05 109.8 69.8 134.89 111.84 25.08 42.03 58.96 67.1 71.84 99.63 12.89 32.53 32.56 47.33 46.77 89.47 58.97 118.62 111.16 257.81 113.87 316.55 0 0 33.44-114.79 34.35-248.54 0 0 161.3 494.8-74.1 741.97-228.66 241.29-114.79 233.61-42.94 200.17s202.89-115.68 202.89-115.68c44.58-35.09 89.16-70.19 133.74-105.28 38.56-35.85 77.13-71.69 115.69-107.54 29.97-37.21 59.95-74.41 89.93-111.62 1.05-6.78 2.09-13.56 3.14-20.34z"/></defs><use xlink:href="#Y" style="fill:#383838;fill-opacity:1;fill-rule:evenodd;opacity:1;stroke:none"/></g></defs><use xlink:href="#Z"/><defs><g id="ab"><defs><path id="aa" d="M2060.02 3779.98c-59.7-469.04-443.29-657.47-595.12-651.37 59.65 373.77 119.29 747.55 178.94 1121.33 3.47 4.21 6.93 8.43 10.4 12.65 75.31 26.2 150.62 52.41 225.94 78.61 484.39-131.95 280.15-714.85 225.02-784.45 9.94 133.74-45.18 223.23-45.18 223.23"/></defs><use xlink:href="#aa" style="fill:#a7a5a5;fill-opacity:1;fill-rule:evenodd;opacity:1;stroke:none"/></g></defs><use xlink:href="#ab"/><defs><g id="ad"><defs><path id="ac" d="M3735.21 1943.48c-10.06-16.16-20.11-32.31-30.17-48.46-16.49-15.71-32.99-31.41-49.48-47.12-23.27-10.16-46.54-20.33-69.81-30.49-39.87-7.01-79.75-14.01-119.63-21.02-3.73 4.18-7.45 8.36-11.18 12.54 200.62 40.67 246.67 237.22 98.95 463.61 20.67-8.92 41.35-17.85 62.02-26.77 13.33-15.14 26.66-30.27 39.99-45.41s50.16-63.04 50.5-64.03c.33-1 26.44-67.79 26.44-67.79 1.91-19.43 3.83-38.86 5.75-58.3z"/></defs><use xlink:href="#ac" style="fill:#a7a5a5;fill-opacity:1;fill-rule:evenodd;opacity:1;stroke:none"/></g></defs><use xlink:href="#ad"/><defs><g id="af"><defs><path id="ae" d="M853.535 2928.67c-151.825-122.92-67.778-277.92 124.724-454.14 0 0-94.422 37.51-217.345 133.77-122.923 96.25-112.971 178.93-112.971 178.93l9.486 105.28c3.162 35.09 43.825 77.72 51.064 84.96s99.849 47.75 99.849 47.75c34.795 5.61 69.591 11.22 104.386 16.82 34.795 5.61 150.462 24.86 152.272 24.86h99.41c73.51-14.92 147.01-29.83 220.52-44.75 73.5-14.92-379.57 29.43-531.395-93.48"/></defs><use xlink:href="#ae" style="fill:#a7a5a5;fill-opacity:1;fill-rule:evenodd;opacity:1;stroke:none"/></g></defs><use xlink:href="#af"/><defs><g id="ah"><defs><path id="ag" d="M866.711 2248.1c-244.989-234.51-271.329-481.45-188.053-591.84s200.187-118.5 268.865-96.8c-10.318-13.56-20.635-27.11-30.953-40.67-21.344-5.2-42.689-10.4-64.034-15.59h-65.412c-21.688 6.87-43.376 13.74-65.065 20.62-25.081 21.12-50.163 42.24-75.244 63.37l-41.677 73.89c-9.601 26.54-19.203 53.09-28.804 79.64v62.7l11.179 98.94c10.166 28.25 20.331 56.49 30.497 84.73l52.53 107.1c25.306 40.33 50.612 80.66 75.917 120.98 21.124 23.16 42.248 46.31 63.372 69.46 38.069 32.09 76.139 64.17 114.208 96.26l122.683 81.44c35.24 20.22 70.49 40.44 105.73 60.66 39.44 19.77 78.87 39.54 118.3 59.31 55.81 18.98 111.61 37.96 167.41 56.94l188.12 23.72c-238.07-73.08-514.57-180.3-759.569-414.86"/></defs><use xlink:href="#ag" style="fill:#a7a5a5;fill-opacity:1;fill-rule:evenodd;opacity:1;stroke:none"/></g></defs><use xlink:href="#ah"/><defs><g id="aj"><defs><path id="ai" d="M1019.36 1389.14c3.31-7.38 6.63-14.76 9.94-22.14 6.18 25.3 12.35 50.61 18.53 75.92l34.35 66.87c11.45 22.3 45.18 55.14 46.54 57.84 1.35 2.7 79.53 51.52 79.53 51.52l1.8-51.52c-34.57-18.3-135.56-126.07-119.29-279.25 0 0-29.82.45-54.26 15.81 0 0 14.26-206.96 265.25-274.28-3.98-5.23-7.96-10.47-11.94-15.7-3.98-5.24 105-16.826 194.92 43.27 5.27-3.47 10.54-6.93 15.82-10.4-3.01-8.74-6.02-17.47-9.03-26.21q-27.57-17.85-55.14-35.696c-25.45-7.981-50.91-15.962-76.36-23.942l-61.45-5.883-56.04 6.328c-4.82 4.218-9.63 8.436-14.45 12.654 1.81 6.628 3.62 13.256 5.42 19.883l-31.13 30.736c-21.69 6.33-43.38 12.66-65.07 18.98l-76.82 62.81c-12.8 20.34-25.6 40.67-38.41 61.01-10.09 21.7-20.18 43.41-30.267 65.11l-14.011 79.98 11.298 61.86z"/></defs><use xlink:href="#ai" style="fill:#a7a5a5;fill-opacity:1;fill-rule:evenodd;opacity:1;stroke:none"/></g></defs><use xlink:href="#aj"/><defs><g id="al"><defs><path id="ak" d="M1473.03 1552.95c-2.03 17.25-4.06 34.49-6.1 51.74v30.72c58.3-115.9 121.33-233.16 321.96-226.83-7.83-11.22-15.66-22.43-23.49-33.65-12.2-2.11-24.4-4.22-36.6-6.32l-31.41-4.98-57.84 11.07c-11.9 6.41-23.79 12.81-35.69 19.21-13.03 11.22-26.05 22.43-39.07 33.65-13.11 13.7-26.21 27.41-39.31 41.11-8.29 10.77-16.57 21.54-24.86 32.31z"/></defs><use xlink:href="#ak" style="fill:#a7a5a5;fill-opacity:1;fill-rule:evenodd;opacity:1;stroke:none"/></g></defs><use xlink:href="#al"/><defs><g id="an"><defs><path id="am" d="M2221.79 1159.15s-36.38-15.49-94.68 16.38c-58.3 31.86-83.02 93.87-83.02 93.87-6.1 14.21-12.2 28.42-18.31 42.63 3.62 17.3 7.24 34.61 10.86 51.92s24.07 43.72 25.42 45.08c1.34 1.37 34.57 26.05 34.57 26.05 18.3 9.38 36.6 18.76 54.9 28.13l52.19 5.43c-144.6-78.64-143.7-236.51 18.07-309.49"/></defs><use xlink:href="#am" style="fill:#a7a5a5;fill-opacity:1;fill-rule:evenodd;opacity:1;stroke:none"/></g></defs><use xlink:href="#an"/><defs><g id="ap"><defs><path id="ao" d="M2689.36 670.899s-28.13-32.191-29.15-33.211-52.19-43.716-52.19-43.716c10.17-6.216 20.34-12.431 30.5-18.646 10.17-6.215-25.08-21.706-26.1-22.705s-43.72-25.071-43.72-25.071l-70.82-14.869h-106.45l-54.91 10.506c-18.18 3.618-36.37 7.236-54.56 10.853-18.18 3.618-28.46-3.733-28.46-6.435 0-2.703-2.38-22.369-2.38-22.369l-23.01 6.36s-38.64 19.655-61.01 57.956c-22.36 38.301-44.39 72.521-44.39 72.521-9.71 21.576-19.43 43.152-29.15 64.728-6.32 28.808-12.64 57.616-18.97 86.424l57.95-4.406c19.31-1.469 29.82-123.357 86.76-183.007 2.48 13.328 4.97 26.656 7.45 39.984 2.49 13.327 140.31-132.17 310.4-75.907l-34.56 41.687c-11.53 13.895 175.58 46.907 236.14 192.404l1.47-46.994-26.1-51.856z"/></defs><use xlink:href="#ao" style="fill:#a7a5a5;fill-opacity:1;fill-rule:evenodd;opacity:1;stroke:none"/></g></defs><use xlink:href="#ap"/><defs><g id="ar"><defs><path id="aq" d="M3079.43 1771.88c-23.04 4.97-18.61 113.41-91.73 181.65-33.96 31.7-42.15 29.99-53.66 54.67-19.25 41.31 23.38 91.51 102.68 0 79.31-91.5 65.75-241.29 42.71-236.32"/></defs><use xlink:href="#aq" style="fill:#a7a5a5;fill-opacity:1;fill-rule:evenodd;opacity:1;stroke:none"/></g></defs><use xlink:href="#ar"/><defs><g id="at"><defs><path id="as" d="M2866.94 2048.53a41.355 41.355 0 0 0-29.24 70.6c11.83 11.82 29.62 15.36 45.07 8.95 15.45-6.4 25.52-21.48 25.52-38.21 0-10.96-4.36-21.48-12.11-29.23a41.4 41.4 0 0 0-29.24-12.11"/></defs><use xlink:href="#as" style="fill:#a7a5a5;fill-opacity:1;fill-rule:evenodd;opacity:1;stroke:none"/></g></defs><use xlink:href="#at"/><defs><g id="av"><defs><path id="au" d="M2675.25 1070.73c-14.11-18.95-28.22-37.89-42.33-56.84-5.43-7.37-10.52-14.205-15.07-20.381-42.73-51.824-185.99-146.192-313.2-172.109l-107.04-20.383h-113.2s-155.95 12.297-157.9 12.894-157.24 50.218-159.3 51.498c-2.06 1.281-127.43 76.569-127.43 76.569 19.2 36.619 38.39 73.242 57.59 109.852l123.18 70.73s74.07 131.45 75.91 136.86c1.83 5.42 45.12 166.36 45.12 173.52 0 7.17-28.85 146.4-37.99 178.4-9.14 31.99-46.96 308.75-80.79 379.24s-181.76 196.61-252.25 227.74-55.53 124.28-54.66 125.58c.87 1.31 71.46 38.51 71.46 38.51 25.74 9.18 51.48 18.36 77.22 27.55 21.08.28 42.15.57 63.23.85 120.92 16.92 328.26 7.17 504.67-33.73 40.85-25.52 81.7-51.04 122.54-76.56 18.66-46.81 37.31-93.62 55.96-140.44l29.94-160.06c21.22-56.46 42.44-112.93 63.66-169.4 21.22-56.46 78.62-119.29 82.75-130.14 4.12-10.84 69.08-176.23 69.08-176.23l25.78-288.75zm-664.57 711.77c-1.31-.65-11.83-6.17-13.34-7.04s-14.98-7.38-18.01-12.48c-3.02-5.1-12.9-16.7-13.89-17.78-.99-1.09-17.67-14.97-17.67-14.97s2.39-17.57 2.82-18.55c.44-.97 14.85-16.59 14.85-16.59l2.4-9.54c.97 0 28.62-6.72 29.5-7.38s52.09-26.35 52.09-26.35c12.37-1.84 24.73-3.68 37.09-5.53 8.03-.79 16.06-1.59 24.08-2.38 3.73 1.01 7.45 2.02 11.17 3.04 1.7 1.62 3.39 3.24 5.09 4.87l12.47 10.73c-.59 2.57-.59 5.25 0 7.82 1.09 4.34 0 15.19 0 15.19.34 3.75.48 7.51.44 11.28-.11 3.69-7.81 21.7-8.58 22.98-.77 1.29-13.54 18.34-14.19 20.72-.66 2.39-13.23 14.86-15.95 17.57-2.71 2.72-16.91 12.91-18.33 14.21s-23.31 9.22-23.31 9.22-24.72 3.03-25.81 3.03-21.73-1.56-22.92-2.07m255.72 266.35c-7.16 22.13-34.6 36.66-35.25 37.63-.65.96-43.71 19.41-44.68 19.74-.98.32-36.66 0-37.32 0s-54.55-20.39-54.55-20.39-31.87-26.13-32.55-27.43c-.69-1.3-25.81-58.68-25.81-58.68l13.23-20.28c23.6-14.35 47.21-28.7 70.81-43.05 6.11-5.53 12.22-11.06 18.32-16.59 40.57-2.49 81.13-4.99 121.69-7.48 40.56-2.5 13.56 33.93 17.23 57.26 3.68 23.32-3.96 57.23-11.12 79.24zm345.83-592.34c-3.25 24.39-16.27 43.81-37.08 61.49s-61.49 43.81-101.18 50.53-98.59-7.69-150.97-37.41c-52.49-29.93-108.45-50.65-108.88-52.5 0 0-86.76-21.25-108.88-30.68s-47.94-45.66-65.12-71.9-15.39-47.4-8.56-78.63c6.83-31.24 52.81-88.05 52.81-88.05 17.93-14.79 35.86-29.57 53.79-44.36l66.81-13.02c24.11-1.96 48.22-3.91 72.34-5.86 15.21 2.53 30.43 5.06 45.65 7.59 24.54 5.75 49.09 11.49 73.63 17.24 24.55 5.74 66.48 33.4 67.78 33.84 1.31.43 60.52 43.81 60.52 43.81s31.23 33.51 32.1 35.68 39.8 58.78 38.5 60.19 18 57.8 18.45 60.08 1.43 27.52-1.71 51.92z"/></defs><use xlink:href="#au" style="fill:#c6cacd;fill-opacity:1;fill-rule:evenodd;opacity:1;stroke:none"/></g></defs><use xlink:href="#av"/><defs><g id="ax"><defs><path id="aw" d="m1145.66 442.82-9.15 13.903-99.63 598.317c10.85 1.75 21.7 3.5 32.56 5.26 15.02.79 30.04 1.58 45.07 2.38 24.92-10.5 49.84-20.99 74.76-31.48 24.91-10.49 6.8-146.733 41.15-300.37s51.51-262.983 51.51-262.983-68.48-41.296-136.27-25.027"/></defs><use xlink:href="#aw" style="fill:#c6cacd;fill-opacity:1;fill-rule:evenodd;opacity:1;stroke:none"/></g></defs><use xlink:href="#ax"/><defs><g id="az"><defs><path id="ay" d="m1009.74 1400.24-23.808 25.51-29.379 109.8 99.417 70.49 24.4-78.16-51.97-130.6z"/></defs><use xlink:href="#ay" style="fill:#c6cacd;fill-opacity:1;fill-rule:evenodd;opacity:1;stroke:none"/></g></defs><use xlink:href="#az"/><defs><g id="aB"><defs><path id="aA" d="m854.892 2155.88-30.172 230.53 22.379 23.06h53.875l86.304-420.69-94.433-6.78z"/></defs><use xlink:href="#aA" style="fill:#c6cacd;fill-opacity:1;fill-rule:evenodd;opacity:1;stroke:none"/></g></defs><use xlink:href="#aB"/><defs><g id="aD"><defs><path id="aC" d="M2950.2 1456.47c-15.37-72.29-51.51-104.83-51.51-104.83s-48.84-53.32-86.76-95.8-66.87-91.26-66.87-91.26-43.86-58.87-83.81-112.59c-2.17 2.58-4.34 5.16-6.51 7.75-190.69-168.099-395.84-163.584-395.84-163.584 125.62 82.246 111.16 190.694 111.16 190.694 206.97 101.21 230.44 233.72 230.44 233.72s-15.81.35-6.78 17.06 9.04 54.68 18.98 88.57c9.94 33.9-12.2 33.89-19.44 67.78-7.23 33.9-22.58 20.78-42.91 42.94-20.33 22.15-59.19 19.41-102.13 31.62-42.93 12.21-137.83-35.25-137.83-35.25 45.18 45.19 54.26 174.42-5.31 212.6 0 0 1.02 11.19 3.73 27.45 2.72 16.26-14.57 54.57-26.04 87.78-11.48 33.21-12.55 34.57-12.55 34.57s3.61 58.29 11.3 96.24c7.68 37.96-8.13 70.05-8.13 70.05 100.31 156.35-40.72 315.12-40.72 315.12 106.68-24.68 202.1-60.77 260.33-109.06-.91-5.43-1.81-10.85-2.72-16.28l76.83-211.47c19.9-12.05 39.79-24.11 59.69-36.16 16.57-6.62 33.13-13.24 49.7-19.87 25.3-8.73 50.61-17.47 75.91-26.21a204.3 204.3 0 0 0 56.94-34.34c27.13-23.49 35.24-37.98 57.85-82.24 22.6-44.26 46.09-74.11 61.45-125.62s16.28-71.4 21.7-121.11c5.43-49.71 15.21-65.97-.15-138.27"/></defs><use xlink:href="#aC" style="fill:#a1a5a8;fill-opacity:1;fill-rule:evenodd;opacity:1;stroke:none"/></g></defs><use xlink:href="#aD"/><defs><g id="aF"><defs><path id="aE" d="M1127.36 1046.18c20.03-8.81 40.06-17.63 60.09-26.44 1.74-22.668 3.47-45.336 5.2-68.005.76-8.661 1.51-17.321 2.26-25.982s13.11-64.381 13.34-65.293c.23-.911 22.6-98.764 22.6-98.764 2.55-22.82 5.11-45.641 7.67-68.461 7-25.154 14.01-50.308 21.01-75.462l10.17-79.077 8.37-58.064c.97-8.961 1.95-17.922 2.93-26.883l-60.78-13.328c26.44 71.175-79.3 497.314-92.86 605.759"/></defs><use xlink:href="#aE" style="fill:#a1a5a8;fill-opacity:1;fill-rule:evenodd;opacity:1;stroke:none"/></g></defs><use xlink:href="#aF"/><defs><g id="aH"><defs><path id="aG" d="m1022.97 1584.36 27.13 23.05 30.27-77.73-33.44-35.7z"/></defs><use xlink:href="#aG" style="fill:#a1a5a8;fill-opacity:1;fill-rule:evenodd;opacity:1;stroke:none"/></g></defs><use xlink:href="#aH"/><defs><g id="aJ"><defs><path id="aI" d="m945.027 2122.07 40.916-129.22c-25.834-1.45-51.668-2.9-77.502-4.34 22.357 19.74 39.983 59 36.586 133.56"/></defs><use xlink:href="#aI" style="fill:#a1a5a8;fill-opacity:1;fill-rule:evenodd;opacity:1;stroke:none"/></g></defs><use xlink:href="#aJ"/><defs><g id="aL"><defs><path id="aK" d="M1984.75 1686.93c23.06-16.05 46.12-32.11 69.19-48.16 144.35-83.39 93.27-134.14 48.59-177.74-116.59-180.78-49.34-186.21-75.97-311.79C1974.07 885.281 1639.73 942 1639.73 942c-44.9 44.823-89.8 89.65-134.7 134.47-82.2 72.72-215.7 266.78-266.57 402.35-2.71 23.1-5.41 46.2-8.12 69.3 2.7 37.45 5.41 74.9 8.12 112.35 4.31 22.16 8.61 44.32 12.91 66.47 4.3 22.16 31.78 99.56 32.56 104.34.78 4.77 20.93 53.57 20.93 53.57 4.77 29.17 9.54 58.34 14.31 87.52 5.86 40.41 11.71 80.82 17.57 121.24 5.86 40.41 18.98 40.01 65.12 131.55 46.14 91.53 133.6 108.44 133.6 108.44 268.3 94.79 586.28-22.22 540.84-251.49 0 0-6.84-15.61-23.75-54.98-16.91-39.36-6.08-59.69-6.08-59.69 99.67-104.98-2.06-168.75-2.06-168.75s3.8-6.72-19.62-11.49c-23.42-4.76-57.59-31.23-74.18-51.84-16.6-20.62 34.14-48.43 34.14-48.43m-137.94-147.39c0 1.63-11.51 54.89-11.51 54.89-5.74 16.28-11.49 32.56-17.23 48.84-6.69 21.68-13.37 43.37-20.06 65.06l-8.79 50.87c-4.52 20.98-9.04 41.96-13.56 62.95-12.32 23.82-24.65 47.64-36.97 71.47-17.39 13.55-34.78 27.11-52.16 40.66-12.55 3.84-25.1 7.67-37.64 11.51-.98.42-47.39 0-47.39 0s-34.92-9.12-36.66-10.1c-1.74-.97-33.5-17.68-33.5-17.68l-38.28-39.9c-8.83-16.16-17.65-32.32-26.47-48.47-4.85-12.01-9.69-24.01-14.54-36.01-4.84-12.01.33-57.59 0-61.93-.32-4.34-4.45-74.5-4.45-75.37s16.28-62.58 16.92-64.3c.64-1.73 14.32-55.54 14.32-56.62 0-1.09 37.19-69.07 38.61-70.82 1.43-1.75 51.73-46.08 53.18-47.06 1.46-.98 74.61-47.5 74.61-47.5s29.82-4.44 31.56-4.78 45.66 0 45.66 0l50.86 13.56c11.1 8.24 22.2 16.49 33.3 24.73l31.12 44.5 10.86 48.84c3.61 16.28-1.79 40.93-1.79 42.66"/></defs><use xlink:href="#aK" style="fill:#f6fbfd;fill-opacity:1;fill-rule:evenodd;opacity:1;stroke:none"/></g></defs><use xlink:href="#aL"/><defs><g id="aN"><defs><path id="aM" d="M1130.97 451.524c-10.85 81.938-21.7 163.875-32.56 245.813l-65.97 383.293c-21.99 127.76 16.94 22.71 17.96 23.05s22.37 2.03 22.37 2.03c13.21-15.92 26.43-31.84 39.64-47.75-25.95-34.17 14.92-154.543 32.56-262.988 17.65-108.445 65.07-305.69 33.89-355.17z"/></defs><use xlink:href="#aM" style="fill:#f6fbfd;fill-opacity:1;fill-rule:evenodd;opacity:1;stroke:none"/></g></defs><use xlink:href="#aN"/><defs><g id="aP"><defs><path id="aO" d="m975.199 1422.93-12.21 103.36 44.631 30.04 25.75-97.14-13.78-65.42z"/></defs><use xlink:href="#aO" style="fill:#f6fbfd;fill-opacity:1;fill-rule:evenodd;opacity:1;stroke:none"/></g></defs><use xlink:href="#aP"/><defs><g id="aR"><defs><path id="aQ" d="m889.231 2005.05-35.696 156.79-14.457 118.39c-4.818 39.46-24.397 41.12-2.713 76.82 21.685 35.69 49.708-36.37 59.194-100.76 9.485-64.4 22.14-178 4.069-253.06z"/></defs><use xlink:href="#aQ" style="fill:#f6fbfd;fill-opacity:1;fill-rule:evenodd;opacity:1;stroke:none"/></g></defs><use xlink:href="#aR"/><defs><g id="aT"><defs><path id="aS" d="M1680.67 3194.57c-87.42.43-158.23-5.85-205.4-18.33 3.11 25.02 6.21 50.04 9.32 75.05l.33 2.28c15.4 96.56 30.8 193.12 46.2 289.67 157.56 15.62 313.84 15.28 465.13 2.6-75.85-172.55-200.19-286.74-315.58-351.27"/></defs><use xlink:href="#aS" style="fill:#df6064;fill-opacity:1;fill-rule:evenodd;opacity:1;stroke:none"/></g></defs><use xlink:href="#aT"/><defs><g id="aV"><defs><path id="aU" d="M2147.75 1948.61s-29.06 40.88-79.17 64.53c55.85 128.95 228.61 73.09 177.87-78.85-44.47 28.85-98.7 14.32-98.7 14.32"/></defs><use xlink:href="#aU" style="fill:#aa282a;fill-opacity:1;fill-rule:evenodd;opacity:1;stroke:none"/></g></defs><use xlink:href="#aV"/><defs><g id="aX"><defs><path id="aW" d="M1142.76 794.636q-.975 6.511-2.28 13.024c10.19 1.41 24.01 6.729 32.47 11.504 5.43-26.894 10.97-54.711 16.28-82.159-9.32-3.679-23.24-7.022-33.77-8.682-4.55 24.105-9.55 46.679-12.7 66.313"/></defs><use xlink:href="#aW" style="fill:#aa282a;fill-opacity:1;fill-rule:evenodd;opacity:1;stroke:none"/></g></defs><use xlink:href="#aX"/><defs><g id="aZ"><defs><path id="aY" d="M3033.34 3176.05c-14.2-42.08-33.84-56.94-46.74-89.48-12.89-32.53-46.74-57.57-71.91-99.65-9.97-16.7-27.22-30.8-46.84-44.5-149.98 65.51-315.26 117.57-478.91 157.05 167.99 63.33 304.86 159.96 397.89 262.88 100.44-39.37 192.5-82.75 274.16-127.97-8.89-19.74-18.21-39.26-27.65-58.33"/></defs><use xlink:href="#aY" style="fill:#aa282a;fill-opacity:1;fill-rule:evenodd;opacity:1;stroke:none"/></g></defs><use xlink:href="#aZ"/><defs><g id="bb"><defs><path id="ba" d="M3277.35 2685.48c-105.41 101.51-248.79 186.97-409.5 256.91 19.62 13.67 36.9 27.77 46.84 44.5 25.17 42.08 59 67.12 71.91 99.65 12.92 32.53 32.56 47.4 46.74 89.47 9.44 19.1 18.76 38.62 27.65 58.36 131.66-72.89 236.1-150.64 304.42-224.39z"/></defs><use xlink:href="#ba" style="fill:#771c1c;fill-opacity:1;fill-rule:evenodd;opacity:1;stroke:none"/></g></defs><use xlink:href="#bb"/><defs><g id="bd"><defs><path id="bc" d="M1187.44 736.257c-5.32 27.436-10.85 54.982-16.28 81.876a140 140 0 0 1 32.11 24.962c5.63-25.772 11.27-51.545 16.91-77.318-4.97-14.217-17.34-23.432-32.74-29.52"/></defs><use xlink:href="#bc" style="fill:#771c1c;fill-opacity:1;fill-rule:evenodd;opacity:1;stroke:none"/></g></defs><use xlink:href="#bd"/><defs><g id="bf"><defs><path id="be" d="M2208.45 2103.09s35.72-10.77 54.91-42.69 14.47-34.13 19.26-61.29c4.8-27.17-19.26-53.94-19.26-53.94-60.32 44.74-90.83 105.73-54.91 157.92"/></defs><use xlink:href="#be" style="fill:#771c1c;fill-opacity:1;fill-rule:evenodd;opacity:1;stroke:none"/></g></defs><use xlink:href="#bf"/><defs><g id="bh"><defs><path id="bg" d="M2388.94 3099.47c-263.53 63.43-522.94 94.25-708.27 95.1 115.39 64.53 239.77 178.72 315.58 351.27 289.99-24.18 561.87-93.59 790.58-183.49-93.03-102.92-229.9-199.55-397.89-262.88"/></defs><use xlink:href="#bg" style="fill:#d63d3d;fill-opacity:1;fill-rule:evenodd;opacity:1;stroke:none"/></g></defs><use xlink:href="#bh"/><defs><g id="bj"><defs><path id="bi" d="m1093.3 726.727-5.34 31.127v73.737c17.37-21.468 36.9-26.352 54.77-23.638q1.305-6.513 2.28-13.024c3.14-19.634 7.37-42.327 11.94-66.378-26.12-3.994-52.71-2.692-63.65-1.824"/></defs><use xlink:href="#bi" style="fill:#d63d3d;fill-opacity:1;fill-rule:evenodd;opacity:1;stroke:none"/></g></defs><use xlink:href="#bj"/><defs><g id="bl"><defs><path id="bk" d="M2123.72 2093.16h15.38c-8.59-47.9 39.53-136.47 91.72-160.86-30.91-4.45-61.82-8.9-92.73-13.34-33.78 28.47-67.56 56.93-101.34 85.4 14.38 20.56 28.76 41.12 43.15 61.68z"/></defs><use xlink:href="#bk" style="fill:#d63d3d;fill-opacity:1;fill-rule:evenodd;opacity:1;stroke:none"/></g></defs><use xlink:href="#bl"/><defs><g id="bn"><defs><path id="bm" d="M3716.33 2181.78c139.68-184.36 69.18-474.04-437.82-442.81 0 0-86.75-167.99-277.18-220.15-4.77-103.89-65.29-178.08-122.23-226.83-56.93-48.75-91.64-123.19-122.54-153.34 0 0 58.33-114.09 48.36-253.337s-70.71-219.83-129.69-271.329l48.68-4.232c-71.03-86.544-183.48-163.883-424.79-116.368 7.66-19.811 15.33-39.621 22.99-59.432-133.5 17.571-230.23 126.982-287.17 336.632-122-5.86-386.29 89.897-513.29 219.603-59.1-46.31-201.5-83.07-307.99-56.827l91.17-467.087c-30.58-57.587-140.11-94.781-194.88-18.548-37.78 231.284-75.55 462.569-113.328 693.855a414 414 0 0 0-26.678 40.45c-45.008 77.87-34.73 154.33-13.556 206.06-5.821 35.57-11.641 71.14-17.462 106.7-107.36-46.66-280.338-39.36-367.098 156.06-83.927 188.92 23.877 468.72 231.325 675.63l-9.54 58.61c3.679 39.46 77.057 86.53 127.524 42.72 4.776 3.58 9.66 7.05 14.543 10.53 0 0-185.882 100.85-289.779 240.94-103.897 140.08-73.205 366.01 201.5 403.09 274.709 37.09 554.929 9 554.929 9 63.81 394.43 127.61 788.86 191.41 1183.29s204.43 147.92 554.17 162.88c349.75 14.97 1176.7-120.74 1502.03-700.94l-368.28-1208.49s295.09-161.97 434.67-346.33M3233.3 1858.6c7.91 105.95-49.03 245.41-51.62 251.71 2.93-3.36 50.2-58.13 72.87-108.89 0 0-16.7 199.23-206.49 356.47s-425.01 107.16-489.32-48.03c0 0 137.52 115.16 319.17 15.51 0 0-202.15 28.95-283.05-80.81-79.07-107.25 38.4-231.17 210.06-264.81 153.67-30.15 190.77-116.59 190.77-116.59s-71.9 28.96-120.93 36.34c0 0 110.51-147.28 117.13-299.32 148.89 66.9 233.27 149.97 241.41 258.42M1157.49 458.969s53.46-22.998 100.93 18.537l-92.4 473.491a159 159 0 0 0-28.74 18.765 79.6 79.6 0 0 1 23.54 8.129c-2.06 10.52-4.13 21.041-6.19 31.559-12.68 6.07-53.57 27.33-98.03 67.02zm-119.73 732.891c23.64-37.63 58.34-73.2 101.07-101.07a342.7 342.7 0 0 1 49.46-27.14 348.3 348.3 0 0 1 122.79-30.13c42.43-2.46-22.12-36.896-41.75-51.071 0 0 104.11-12.589 202.15 64.201 0 0-58.89 50.64-81.35 163.11 0 0 165.94-195.22 351.16-289.239 185.22-94.021 424.23-113.437 637.1-76.819 0 0-70.48-76.569-268.4-75.266 0 0 26.46-146.409 119.94-225.03 0 0-3.36 29.174 1.41 56.285 0 0 167.88-120.166 351.26-27.98 0 0-36.54 16.703-50.75 32.961 0 0 126.66 49.241 182.73 158.554 50.87 99.448-7.05 263.644-18.1 292.814 0 0-51.51-69.521-129.6-108.017 83.5 107.157 125.15 215.597 189.24 298.777 64.1 83.18 176.23 138.27 166.36 298.23-9.54 153.35-88.5 321.33-147.6 365.91-69.73 9.86-214.84 47.07-282.62 202.95-67.78 155.89 27.77 289.41 27.77 289.41s-181.33 66.37-413.4 133.4c-248.25-1.52-507.32-35.82-574.13-39.15 90.45 49.77 252.68 90.44 320.89 106.17-66.47 15.83-133.38 30.03-198.23 41.53-67.46 3.26-327.84-50.11-518.5-167.55-64.75-39.91-132.52-85.24-197.528-137.74l37.248-190.62c101.82 98.69 235.33 140.33 235.33 140.33s-158.88-124.38-221.882-208.86c5.531-28.38 11.062-56.75 16.592-85.13 65.27-19.42 122.87-75.38 129.26-187.76 0 0 62.69 38.61 120.59 45.66 15.74 39.07 16.82 77.86 18.88 121.55-59.86-.22-123.52-14.75-127.42-15.61 4.87 4.34 85.01 73.73 134.04 90.22 7.69 50.32 24.83 108.12 67.23 178.5 107.58 177.99 327.19 247.27 525.98 190.02 0 0-346.71 3.13-469.04-252.37-97.17-203.24-25.05-195.97-94.89-357.99-59.87-139.14-60.52-314.49-50.54-382.93 0 0-60.19 39.58-66.21 156.81 0 0-51.01-23.87-90.55-84.79a268.8 268.8 0 0 1-31.12-66.81c-10.42-32.76-16.16-71.69-13.67-117.46 0 0-21.48 6.84-45.33 26.68-1.63 1.41-3.37 2.93-4.99 4.45-15.773-44.52-3.74-100.15 29.11-151.99zm41.24 432.27c2.57-13.19 5.13-26.39 7.7-39.58 27.14 34.38 63.77 66.8 112.79 87.85 0 0 8.13 54.33 24.18 84.59 0 0-59.87-18.88-103.25-50.43-.03-.03-12.93-37.31-41.46-82.43zm-83.181-175.57s7.701-13.67 17.361-22.79c0 0 8.57 49.92 39.48 106.83-2.86 14.6-5.71 29.21-8.57 43.81-17.65-21.1-37.79-40-59.971-56.28zm-360.695 490.56c-93.489-256.13 86.75-442.81 237.684-402.13a228 228 0 0 1 55.525 23.43 258.7 258.7 0 0 1 43.923 32.32 288 288 0 0 1 55.414 67.88c13.38 22.46 23.5 46.7 30.04 72.01 15.3 59.69 7.6 121.79-33.08 169.84a145.3 145.3 0 0 1-51.831 38.93c-19.741 9-40.352 13.34-59.974 14.97-16.332 1.23-32.743.9-49.013-.98-28.63-3.25-48.481-9.97-48.481-9.97 9.008 15.07 24.398 28.22 43.923 38.17-13.411 81.95-26.822 163.9-40.232 245.86-76.896-81.51-142.612-177.05-183.93-290.38zm266.131 369.16-17.669 90.55v.23a55.62 55.62 0 0 1-40.243-17.14l2.496-15.29c5.169-31.6 10.339-63.2 15.509-94.79 14.832-90.78 29.665-181.55 44.498-272.32 18.028 3.8 36.48 5.19 54.874 4.14zm-9.431 701.77c-182.627-23.53-250.415-164.51-164.523-306.37 85.892-141.85 281.529-222.75 281.529-222.75s16.16 10.64 40.79 26.05c-222.329 138.72-176.562 309.4-83.723 360.04-46.311-101.72-2.28-242.81 175.823-305.06 31.67 18 63.88 35.03 90.65 46.42-60.18 166.36 198.62 150.86 553.65 81.77 355.26-69.09 783.59-229.15 783.59-229.15 140.99 122.11 409.29 78.73 577.39-100.21 258.98-283.38 159.54-539.1 159.54-539.1 151.83-18.97 462.75 30.69 386.83 247.6-75.92 216.9-637.08 561.21-1371.84 756.46s-1247.22 207.77-1429.739 184.24zm2676.386 717.16c-40.26 89.31-314.86 330.11-517.37 424.97 4.34-4.99 144.66-164.74 161.72-364.94 0 0-230.88 399.4-573.91 496.37-197.92 48.84-652.1 115.94-959.77-45.44-56.06-275.67-189.79-1091.74-188.37-1161.29 82.32 1.96 548.31-85.74 994.15-215.37 402.65 14.64 584.64 397.13 590.41 409.27-55.42-284.86-230.89-429.01-340.3-487.62 190.53-64.63 361.41-135.99 475.97-209.63z"/></defs><use xlink:href="#bm" style="fill:#000;fill-opacity:1;fill-rule:evenodd;opacity:1;stroke:none"/></g></defs><use xlink:href="#bn"/><defs><g id="bp"><defs><path id="bo" d="M2012.08 2025.4c18.11 35.45 102.16 162.55 223.52 99.33 110.5-57.52 79.38-205.19 59.96-232.41 69.95-71.9 6.62-154.75 6.62-154.75-7.16 135.57-117.12 159.1-166.58 129.27 0 0-67.45 150.2-220.58 76.35-.05 0 14.96 73.85 97.06 82.21m135.66-76.79s54.27 14.53 98.7-14.32c50.74 151.95-122.02 207.8-177.87 78.85 50.12-23.65 79.18-64.53 79.18-64.53z"/></defs><use xlink:href="#bo" style="fill:#000;fill-opacity:1;fill-rule:evenodd;opacity:1;stroke:none"/></g></defs><use xlink:href="#bp"/><defs><g id="br"><defs><path id="bq" d="M2067.72 1806.43c32.56-7.69 70.55-36.76 97.06-97.82 26.52-61.06 2.71-105.73-67.46-95.86-70.18 9.86-175.82 65.94-173.74 109.42s79.39 99.4 144.14 84.26m-91.32-88.81c23.43-14.32 49.24-29.61 100.32-44.69 51.07-15.09 61.92 17.36 27.33 55.97-34.59 38.6-74.18 55.95-126.45 14.53-18.88-14.97-6.73-22.44-1.2-25.81"/></defs><use xlink:href="#bq" style="fill:#000;fill-opacity:1;fill-rule:evenodd;opacity:1;stroke:none"/></g></defs><use xlink:href="#br"/><defs><g id="bt"><defs><path id="bs" d="M2237.12 1518.83c119.28 40.67 171.88 125.8 316.33 48.15 94.9-51.08 128.73-184.36 12.92-309.84-115.81-125.47-320.17-160.38-422.31-116.47s-130.79 140.98-130.79 140.98c-41.41 163.98 104.55 196.51 223.85 237.18m.43-349.75c124.05-10.85 239.55 77.76 260.81 95.77 116.48 99.01 115.39 212.72 28.63 262.76-86.76 50.05-218.4-30.04-307.44-65.28-82.65-32.75-140.55-34.81-159.97-109.76-19.41-74.94 54.01-172.64 177.97-183.49"/></defs><use xlink:href="#bs" style="fill:#000;fill-opacity:1;fill-rule:evenodd;opacity:1;stroke:none"/></g></defs><use xlink:href="#bt"/><defs><g id="bv"><defs><path id="bu" d="M1610.28 1971.92c91.42 5.65 160.51-51.01 187.19-123.19 26.67-72.19 15.19-124.5 49.66-220.04s63.01-243.9-98.25-282.72c-166.47-40.02-307.02 138.48-323.29 327.4-14.42 182.52 67.2 291.29 184.69 298.55m-133.83-333.19c18.45-180.02 202.04-305.71 305.62-225.03 96.95 75.48 20.38 181 0 281.31-20.39 100.32-37.21 227.1-168.1 231.11-130.89 4.02-147.49-190.18-137.46-287.35z"/></defs><use xlink:href="#bu" style="fill:#000;fill-opacity:1;fill-rule:evenodd;opacity:1;stroke:none"/></g></defs><use xlink:href="#bv"/><defs><g id="bx"><defs><path id="bw" d="M1624.27 1749.28c4.29 2.17 8.75 3.98 13.34 5.43-20.39-30.15-23.88-71.8-5.52-108.54 24.06-48.15 77.31-71.46 123.95-56.43a94.94 94.94 0 0 0-36.12-31.78c-49.45-24.61-110.94-1.84-137.29 51.01-26.35 52.86-7.82 115.59 41.64 140.31"/></defs><use xlink:href="#bw" style="fill:#040002;fill-opacity:1;fill-rule:evenodd;opacity:1;stroke:none"/></g></defs><use xlink:href="#bx"/><defs><g id="bz"><defs><path id="by" d="M2311.95 1313.1c40.98 3.37 74.82 27.87 90.08 60.85 1.12-4.67 1.84-9.42 2.17-14.21 4.45-55.09-39.69-103.57-98.47-108.23s-110.19 36.11-114.74 91.17a94.7 94.7 0 0 0 8.56 47.28c11.22-47.68 58.71-81.2 112.4-76.86"/></defs><use xlink:href="#by" style="fill:#040002;fill-opacity:1;fill-rule:evenodd;opacity:1;stroke:none"/></g></defs><use xlink:href="#bz"/><defs><g id="bB"><defs><path id="bA" d="M789.761 3239.15s-34.73 125.15-136.001 207.35c101.303 82.21 136.001 207.36 136.001 207.36s34.817-125.15 136.099-207.36c-101.282-82.2-136.099-207.35-136.099-207.35"/></defs><use xlink:href="#bA" style="fill:#000;fill-opacity:1;fill-rule:evenodd;opacity:1;stroke:none"/></g></defs><use xlink:href="#bB"/><defs><g id="bD"><defs><path id="bC" d="M485.667 2315.51s-27.133 97.89-106.361 162.2c79.228 64.31 106.361 162.19 106.361 162.19s27.23-97.88 106.458-162.19c-79.228-64.31-106.458-162.2-106.458-162.2"/></defs><use xlink:href="#bC" style="fill:#040002;fill-opacity:1;fill-rule:evenodd;opacity:1;stroke:none"/><use xlink:href="#bC" style="fill:#000;fill-opacity:1;fill-rule:evenodd;opacity:1;stroke:none"/></g></defs><use xlink:href="#bD"/><defs><g id="bF"><defs><path id="bE" d="M1849.08 382.443s32.11-115.379 125.59-191.2C1881.24 115.423 1849.14 0 1849.14 0s-32.06 115.456-125.49 191.243c93.43 75.821 125.43 191.2 125.43 191.2"/></defs><use xlink:href="#bE" style="fill:#040002;fill-opacity:1;fill-rule:evenodd;opacity:1;stroke:none"/><use xlink:href="#bE" style="fill:#000;fill-opacity:1;fill-rule:evenodd;opacity:1;stroke:none"/></g></defs><use xlink:href="#bF"/><defs><g id="bH"><defs><path id="bG" d="M3187.55 1162.89s29.07-104.48 113.63-173.114c-84.56-68.636-113.63-173.119-113.63-173.119s-28.97 104.483-113.52 173.119c84.55 68.634 113.52 173.114 113.52 173.114"/></defs><use xlink:href="#bG" style="fill:#040002;fill-opacity:1;fill-rule:evenodd;opacity:1;stroke:none"/><use xlink:href="#bG" style="fill:#000;fill-opacity:1;fill-rule:evenodd;opacity:1;stroke:none"/></g></defs><use xlink:href="#bH"/><defs><g id="bJ"><defs><path id="bI" d="M4040.47 1965.72s-20.46 73.81-80.17 122.23c59.69 48.47 80.17 122.24 80.17 122.24s20.51-73.8 80.22-122.24c-59.71-48.46-80.22-122.23-80.22-122.23"/></defs><use xlink:href="#bI" style="fill:#040002;fill-opacity:1;fill-rule:evenodd;opacity:1;stroke:none"/><use xlink:href="#bI" style="fill:#000;fill-opacity:1;fill-rule:evenodd;opacity:1;stroke:none"/></g></defs><use xlink:href="#bJ"/><defs><g id="bL"><defs><path id="bK" d="M3838.35 2352.62s-32.01 115.42-125.43 191.25c93.42 75.82 125.43 191.25 125.43 191.25s32.09-115.43 125.53-191.25c-93.44-75.83-125.53-191.25-125.53-191.25"/></defs><use xlink:href="#bK" style="fill:#000;fill-opacity:1;fill-rule:evenodd;opacity:1;stroke:none"/></g></defs><use xlink:href="#bL"/><defs><g id="bN"><defs><path id="bM" d="M1517.46 619.498s27.23-94.129 106.45-155.971c-79.22-61.863-106.45-155.981-106.45-155.981s-27.14 94.129-106.37 155.981c79.22 61.842 106.37 155.971 106.37 155.971"/></defs><use xlink:href="#bM" style="fill:#000;fill-opacity:1;fill-rule:evenodd;opacity:1;stroke:none"/></g></defs><use xlink:href="#bN"/></svg>
